<svg width="52" height="56" viewBox="0 0 52 56" fill="none" xmlns="http://www.w3.org/2000/svg">
<path fill-rule="evenodd" clip-rule="evenodd" d="M4.875 14C4.875 13.5359 5.0462 13.0908 5.35095 12.7626C5.6557 12.4344 6.06902 12.25 6.5 12.25H45.5C45.931 12.25 46.3443 12.4344 46.6491 12.7626C46.9538 13.0908 47.125 13.5359 47.125 14C47.125 14.4641 46.9538 14.9092 46.6491 15.2374C46.3443 15.5656 45.931 15.75 45.5 15.75H6.5C6.06902 15.75 5.6557 15.5656 5.35095 15.2374C5.0462 14.9092 4.875 14.4641 4.875 14ZM4.875 23.3333C4.875 22.8692 5.0462 22.4241 5.35095 22.0959C5.6557 21.7677 6.06902 21.5833 6.5 21.5833H45.5C45.931 21.5833 46.3443 21.7677 46.6491 22.0959C46.9538 22.4241 47.125 22.8692 47.125 23.3333C47.125 23.7975 46.9538 24.2426 46.6491 24.5708C46.3443 24.899 45.931 25.0833 45.5 25.0833H6.5C6.06902 25.0833 5.6557 24.899 5.35095 24.5708C5.0462 24.2426 4.875 23.7975 4.875 23.3333ZM4.875 32.6667C4.875 32.2025 5.0462 31.7574 5.35095 31.4292C5.6557 31.101 6.06902 30.9167 6.5 30.9167H23.8333C24.2643 30.9167 24.6776 31.101 24.9824 31.4292C25.2871 31.7574 25.4583 32.2025 25.4583 32.6667C25.4583 33.1308 25.2871 33.5759 24.9824 33.9041C24.6776 34.2323 24.2643 34.4167 23.8333 34.4167H6.5C6.06902 34.4167 5.6557 34.2323 5.35095 33.9041C5.0462 33.5759 4.875 33.1308 4.875 32.6667ZM36.8593 33.67C37.1538 33.3983 37.5289 33.2489 37.9167 33.2489C38.3045 33.2489 38.6795 33.3983 38.974 33.67L46.5573 40.67C46.7195 40.8195 46.8528 41.002 46.9495 41.207C47.0462 41.412 47.1044 41.6355 47.1209 41.8647C47.1374 42.0939 47.1118 42.3244 47.0456 42.543C46.9794 42.7616 46.8739 42.964 46.735 43.1387C46.5961 43.3133 46.4267 43.4568 46.2364 43.561C46.046 43.6651 45.8385 43.7278 45.6256 43.7456C45.4128 43.7634 45.1987 43.7358 44.9958 43.6645C44.7928 43.5932 44.6048 43.4795 44.4427 43.33L37.9167 37.303L31.3907 43.3253C31.23 43.4838 31.0414 43.6058 30.8361 43.6842C30.6307 43.7626 30.4129 43.7957 30.1954 43.7816C29.978 43.7674 29.7654 43.7064 29.5703 43.602C29.3752 43.4976 29.2016 43.3521 29.0597 43.174C28.9179 42.9959 28.8108 42.7889 28.7447 42.5654C28.6787 42.3418 28.655 42.1062 28.6752 41.8726C28.6954 41.6391 28.759 41.4122 28.8622 41.2056C28.9654 40.999 29.1061 40.8169 29.276 40.67L36.8593 33.67ZM4.875 42C4.875 41.5359 5.0462 41.0908 5.35095 40.7626C5.6557 40.4344 6.06902 40.25 6.5 40.25H23.8333C24.2643 40.25 24.6776 40.4344 24.9824 40.7626C25.2871 41.0908 25.4583 41.5359 25.4583 42C25.4583 42.4641 25.2871 42.9093 24.9824 43.2374C24.6776 43.5656 24.2643 43.75 23.8333 43.75H6.5C6.06902 43.75 5.6557 43.5656 5.35095 43.2374C5.0462 42.9093 4.875 42.4641 4.875 42Z" fill="#AED391"/>
</svg>
