<svg width="16" height="16" viewBox="0 0 16 16" fill="none" xmlns="http://www.w3.org/2000/svg">
<path d="M4.79 11.342L6.11075 10.961L14.063 2.91351C14.1257 2.84923 14.1607 2.76286 14.1602 2.67305C14.1598 2.58324 14.1241 2.49719 14.0608 2.43351L13.5845 1.95201C13.5537 1.92038 13.517 1.89521 13.4763 1.87795C13.4357 1.86069 13.3921 1.85169 13.348 1.85148C13.3038 1.85128 13.2601 1.85986 13.2194 1.87673C13.1786 1.8936 13.1416 1.91843 13.1105 1.94976L5.17925 9.97626L4.79 11.342ZM14.5273 0.998007L15.0035 1.48026C15.6605 2.14551 15.6665 3.21876 15.0155 3.87726L6.821 12.1708L3.998 12.9838C3.82565 13.032 3.6412 13.0099 3.48512 12.9223C3.32905 12.8347 3.2141 12.6888 3.1655 12.5165C3.12934 12.3927 3.12882 12.2611 3.164 12.137L3.98525 9.25701L12.158 0.985257C12.3134 0.828775 12.4984 0.704803 12.7022 0.620571C12.9061 0.536339 13.1246 0.493533 13.3451 0.49465C13.5657 0.495767 13.7838 0.540785 13.9867 0.627077C14.1897 0.713369 14.3734 0.839959 14.5273 0.998007ZM5.888 1.86276C6.26 1.86276 6.5615 2.16801 6.5615 2.54451C6.56209 2.63351 6.54514 2.72175 6.5116 2.8042C6.47807 2.88664 6.42861 2.96166 6.36606 3.02498C6.30351 3.0883 6.22909 3.13866 6.14706 3.1732C6.06503 3.20774 5.977 3.22577 5.888 3.22626H3.194C2.45 3.22626 1.847 3.83676 1.847 4.58901V12.7685C1.847 13.5215 2.45 14.132 3.194 14.132H11.276C12.02 14.132 12.6238 13.5215 12.6238 12.7685V10.0423C12.6238 9.66576 12.9253 9.36051 13.2973 9.36051C13.6693 9.36051 13.9708 9.66576 13.9708 10.043V12.7685C13.9708 14.2745 12.764 15.4955 11.276 15.4955H3.194C1.706 15.4955 0.5 14.2745 0.5 12.7685V4.58901C0.5 3.08376 1.706 1.86276 3.194 1.86276H5.888Z" fill="white"/>
</svg>
