<svg width="35" height="31" viewBox="0 0 35 31" fill="none" xmlns="http://www.w3.org/2000/svg">
<path d="M13.2083 0.125C16.5125 0.125 19.6813 1.2949 22.0177 3.37733C24.3541 5.45977 25.6667 8.28416 25.6667 11.2292C25.6667 13.9796 24.5358 16.5079 22.6767 18.4554L23.1942 18.9167H24.7083L34.2917 27.4583L31.4167 30.0208L21.8333 21.4792V20.1296L21.3158 19.6683C19.0552 21.3882 16.1805 22.3332 13.2083 22.3333C9.90418 22.3333 6.73535 21.1634 4.39896 19.081C2.06257 16.9986 0.75 14.1742 0.75 11.2292C0.75 8.28416 2.06257 5.45977 4.39896 3.37733C6.73535 1.2949 9.90418 0.125 13.2083 0.125ZM13.2083 3.54167C8.41667 3.54167 4.58333 6.95833 4.58333 11.2292C4.58333 15.5 8.41667 18.9167 13.2083 18.9167C18 18.9167 21.8333 15.5 21.8333 11.2292C21.8333 6.95833 18 3.54167 13.2083 3.54167Z" fill="black"/>
</svg>
