<svg width="43" height="34" viewBox="0 0 43 34" fill="none" xmlns="http://www.w3.org/2000/svg">
<path d="M25.4267 17.2064L42.1957 4.39187C42.6969 4.00824 42.9785 3.48793 42.9785 2.9454C42.9785 2.40287 42.6969 1.88256 42.1957 1.49893C41.6945 1.1153 41.0147 0.89978 40.3059 0.89978C39.597 0.89978 38.9172 1.1153 38.416 1.49893L21.6737 14.3338L4.93128 1.49893C4.43006 1.1153 3.75026 0.899781 3.04144 0.899781C2.33261 0.899781 1.65281 1.1153 1.1516 1.49893C0.650381 1.88256 0.368801 2.40287 0.368801 2.9454C0.368801 3.48793 0.650381 4.00824 1.1516 4.39187L17.9206 17.2064L1.1516 30.0209C0.902116 30.2103 0.704098 30.4356 0.568965 30.6839C0.433832 30.9321 0.364258 31.1984 0.364258 31.4673C0.364258 31.7363 0.433832 32.0026 0.568965 32.2508C0.704098 32.4991 0.902116 32.7244 1.1516 32.9138C1.39904 33.1048 1.69343 33.2563 2.01779 33.3598C2.34215 33.4632 2.69005 33.5164 3.04144 33.5164C3.39282 33.5164 3.74072 33.4632 4.06508 33.3598C4.38944 33.2563 4.68383 33.1048 4.93128 32.9138L21.6737 20.0789L38.416 32.9138C38.6635 33.1048 38.9579 33.2563 39.2822 33.3598C39.6066 33.4632 39.9545 33.5164 40.3059 33.5164C40.6572 33.5164 41.0051 33.4632 41.3295 33.3598C41.6539 33.2563 41.9483 33.1048 42.1957 32.9138C42.4452 32.7244 42.6432 32.4991 42.7783 32.2508C42.9135 32.0026 42.983 31.7363 42.983 31.4673C42.983 31.1984 42.9135 30.9321 42.7783 30.6839C42.6432 30.4356 42.4452 30.2103 42.1957 30.0209L25.4267 17.2064Z" fill="#707070"/>
</svg>
