<svg width="24" height="24" viewBox="0 0 24 24" fill="none" xmlns="http://www.w3.org/2000/svg">
<g id="jam:write">
<path id="Vector" d="M7.72 16.4561L9.481 15.9481L20.084 5.21809C20.1676 5.13239 20.2142 5.01722 20.2136 4.89748C20.2131 4.77773 20.1654 4.66301 20.081 4.57809L19.446 3.93609C19.405 3.89393 19.3559 3.86036 19.3018 3.83735C19.2477 3.81434 19.1895 3.80234 19.1306 3.80206C19.0718 3.80178 19.0135 3.81322 18.9591 3.83572C18.9048 3.85822 18.8554 3.89132 18.814 3.93309L8.239 14.6351L7.72 16.4561ZM20.703 2.66409L21.338 3.30709C22.214 4.19409 22.222 5.62509 21.354 6.50309L10.428 17.5611L6.664 18.6451C6.4342 18.7094 6.18826 18.6799 5.98016 18.5631C5.77206 18.4463 5.6188 18.2518 5.554 18.0221C5.50578 17.857 5.50509 17.6816 5.552 17.5161L6.647 13.6761L17.544 2.64709C17.7512 2.43845 17.9979 2.27315 18.2696 2.16084C18.5414 2.04853 18.8328 1.99146 19.1269 1.99295C19.4209 1.99444 19.7117 2.05446 19.9823 2.16952C20.2529 2.28457 20.4979 2.45336 20.703 2.66409ZM9.184 3.81709C9.68 3.81709 10.082 4.22409 10.082 4.72609C10.0828 4.84476 10.0602 4.96242 10.0155 5.07234C9.97076 5.18227 9.90481 5.2823 9.82141 5.36672C9.73801 5.45115 9.63879 5.5183 9.52942 5.56435C9.42004 5.6104 9.30267 5.63444 9.184 5.63509H5.592C4.6 5.63509 3.796 6.44909 3.796 7.45209V18.3581C3.796 19.3621 4.6 20.1761 5.592 20.1761H16.368C17.36 20.1761 18.165 19.3621 18.165 18.3581V14.7231C18.165 14.2211 18.567 13.8141 19.063 13.8141C19.559 13.8141 19.961 14.2211 19.961 14.7241V18.3581C19.961 20.3661 18.352 21.9941 16.368 21.9941H5.592C3.608 21.9941 2 20.3661 2 18.3581V7.45209C2 5.44509 3.608 3.81709 5.592 3.81709H9.184Z" fill="black"/>
</g>
</svg>
