<svg width="30" height="30" viewBox="0 0 30 30" fill="none" xmlns="http://www.w3.org/2000/svg">
<g id="la:clock-solid">
<path id="Vector" d="M15 3.75C8.79656 3.75 3.75 8.79656 3.75 15C3.75 21.2034 8.79656 26.25 15 26.25C21.2034 26.25 26.25 21.2034 26.25 15C26.25 8.79656 21.2034 3.75 15 3.75ZM15 5.625C20.1891 5.625 24.375 9.81094 24.375 15C24.375 20.1891 20.1891 24.375 15 24.375C9.81094 24.375 5.625 20.1891 5.625 15C5.625 9.81094 9.81094 5.625 15 5.625ZM14.0625 7.5V15.9375H20.625V14.0625H15.9375V7.5H14.0625Z" fill="black"/>
</g>
</svg>
