<svg width="11" height="10" viewBox="0 0 11 10" fill="none" xmlns="http://www.w3.org/2000/svg">
<path d="M8.71233 1.21248C8.88842 1.04484 9.12274 0.952167 9.36585 0.954006C9.60897 0.955846 9.84186 1.05206 10.0154 1.22234C10.1889 1.39263 10.2895 1.62366 10.2959 1.8667C10.3024 2.10974 10.2141 2.34577 10.0498 2.52498L5.06233 8.76248C4.97657 8.85486 4.87306 8.92899 4.758 8.98044C4.64293 9.0319 4.51867 9.05962 4.39264 9.06195C4.26662 9.06429 4.14142 9.04118 4.02453 8.99402C3.90763 8.94686 3.80145 8.87662 3.71233 8.78748L0.404831 5.47998C0.312722 5.39416 0.238845 5.29066 0.187605 5.17566C0.136365 5.06066 0.108812 4.93652 0.106591 4.81064C0.10437 4.68476 0.127526 4.55972 0.174678 4.44299C0.221829 4.32625 0.29201 4.22021 0.381033 4.13119C0.470057 4.04216 0.576099 3.97198 0.692834 3.92483C0.809569 3.87768 0.934606 3.85452 1.06048 3.85674C1.18636 3.85896 1.3105 3.88652 1.4255 3.93776C1.5405 3.989 1.644 4.06287 1.72983 4.15498L4.34733 6.77123L8.68858 1.23998L8.71233 1.21248Z" fill="white"/>
</svg>
