<svg width="42" height="42" viewBox="0 0 42 42" fill="none" xmlns="http://www.w3.org/2000/svg">
<path d="M3.5 9.2225L5.74 7L35 36.26L32.7775 38.5L27.3875 33.11C25.375 33.775 23.24 34.125 21 34.125C12.25 34.125 4.7775 28.6825 1.75 21C2.9575 17.92 4.8825 15.2075 7.3325 13.055L3.5 9.2225ZM21 15.75C22.3924 15.75 23.7277 16.3031 24.7123 17.2877C25.6969 18.2723 26.25 19.6076 26.25 21C26.2509 21.596 26.1503 22.1878 25.9525 22.75L19.25 16.0475C19.8122 15.8497 20.404 15.7491 21 15.75ZM21 7.875C29.75 7.875 37.2225 13.3175 40.25 21C38.8217 24.6281 36.3947 27.7772 33.25 30.0825L30.765 27.58C33.1851 25.9059 35.1369 23.6408 36.435 21C35.0202 18.1124 32.8237 15.6796 30.0952 13.9781C27.3667 12.2767 24.2156 11.3748 21 11.375C19.0925 11.375 17.22 11.69 15.47 12.25L12.775 9.5725C15.295 8.4875 18.0775 7.875 21 7.875ZM5.565 21C6.97977 23.8876 9.17625 26.3204 11.9048 28.0219C14.6333 29.7233 17.7844 30.6252 21 30.625C22.2075 30.625 23.3975 30.5025 24.5 30.2575L20.51 26.25C19.2923 26.1195 18.1559 25.576 17.29 24.71C16.424 23.8441 15.8805 22.7077 15.75 21.49L9.8 15.5225C8.0675 17.01 6.615 18.865 5.565 21Z" fill="black"/>
</svg>
