<svg width="33" height="33" viewBox="0 0 33 33" fill="none" xmlns="http://www.w3.org/2000/svg">
<path id="Vector" d="M12.2571 0C15.5079 0 18.6256 1.29137 20.9243 3.59003C23.2229 5.88869 24.5143 9.00635 24.5143 12.2571C24.5143 15.2931 23.4017 18.084 21.5726 20.2337L22.0817 20.7429H23.5714L33 30.1714L30.1714 33L20.7429 23.5714V22.0817L20.2337 21.5726C18.0096 23.4711 15.1813 24.5141 12.2571 24.5143C9.00635 24.5143 5.88869 23.2229 3.59003 20.9243C1.29137 18.6256 0 15.5079 0 12.2571C0 9.00635 1.29137 5.88869 3.59003 3.59003C5.88869 1.29137 9.00635 0 12.2571 0ZM12.2571 3.77143C7.54286 3.77143 3.77143 7.54286 3.77143 12.2571C3.77143 16.9714 7.54286 20.7429 12.2571 20.7429C16.9714 20.7429 20.7429 16.9714 20.7429 12.2571C20.7429 7.54286 16.9714 3.77143 12.2571 3.77143Z" fill="white"/>
</svg>
