<svg width="55" height="55" viewBox="0 0 55 55" fill="none" xmlns="http://www.w3.org/2000/svg">
<path d="M16.0416 20.625H4.58325V16.0417H16.0416V20.625ZM16.0416 27.5H4.58325V32.0833H16.0416V27.5ZM47.1853 43.5417L38.4082 34.7646C36.5749 35.9562 34.4207 36.6667 32.0833 36.6667C25.7583 36.6667 20.6249 31.5333 20.6249 25.2083C20.6249 18.8833 25.7583 13.75 32.0833 13.75C38.4082 13.75 43.5416 18.8833 43.5416 25.2083C43.5416 27.5458 42.8312 29.7 41.6395 31.5104L50.4166 40.3104L47.1853 43.5417ZM38.9582 25.2083C38.9582 21.4271 35.8645 18.3333 32.0833 18.3333C28.302 18.3333 25.2083 21.4271 25.2083 25.2083C25.2083 28.9896 28.302 32.0833 32.0833 32.0833C35.8645 32.0833 38.9582 28.9896 38.9582 25.2083ZM4.58325 43.5417H27.4999V38.9583H4.58325V43.5417Z" fill="#AED391"/>
</svg>
