<svg width="54" height="59" viewBox="0 0 54 59" fill="none" xmlns="http://www.w3.org/2000/svg">
<path d="M22 37.3333V40.6666C22 42.0555 22.4866 43.2366 23.46 44.21C24.4333 45.1833 25.6133 45.6688 27 45.6666C28.3889 45.6666 29.57 45.1811 30.5433 44.21C31.5166 43.2388 32.0022 42.0577 32 40.6666V37.3333H35.3333C36.7222 37.3333 37.9033 36.8477 38.8767 35.8766C39.85 34.9055 40.3355 33.7244 40.3333 32.3333C40.3333 30.9444 39.8478 29.7644 38.8767 28.7933C37.9055 27.8222 36.7244 27.3355 35.3333 27.3333H32V24C32 22.6111 31.5144 21.4311 30.5433 20.46C29.5722 19.4888 28.3911 19.0022 27 19C25.6111 19 24.4311 19.4866 23.46 20.46C22.4889 21.4333 22.0022 22.6133 22 24V27.3333H18.6666C17.2778 27.3333 16.0978 27.82 15.1266 28.7933C14.1555 29.7666 13.6689 30.9466 13.6666 32.3333C13.6666 33.7222 14.1533 34.9033 15.1266 35.8766C16.1 36.85 17.28 37.3355 18.6666 37.3333H22ZM6.99998 59C5.16665 59 3.59776 58.3477 2.29331 57.0433C0.988868 55.7388 0.335535 54.1688 0.333313 52.3333V22.3333C0.333313 21.2777 0.569979 20.2777 1.04331 19.3333C1.51665 18.3888 2.16887 17.6111 2.99998 17L23 1.99996C24.1666 1.11107 25.5 0.666626 27 0.666626C28.5 0.666626 29.8333 1.11107 31 1.99996L51 17C51.8333 17.6111 52.4867 18.3888 52.96 19.3333C53.4333 20.2777 53.6689 21.2777 53.6667 22.3333V52.3333C53.6667 54.1666 53.0133 55.7366 51.7067 57.0433C50.4 58.35 48.8311 59.0022 47 59H6.99998Z" fill="#95D1D9"/>
</svg>
