<svg width="10" height="9" viewBox="0 0 10 9" fill="none" xmlns="http://www.w3.org/2000/svg">
<path d="M9.25042 7.34729L5.8344 1.41487C5.74904 1.26953 5.62718 1.14902 5.48089 1.06528C5.3346 0.98155 5.16897 0.9375 5.00042 0.9375C4.83186 0.9375 4.66623 0.98155 4.51995 1.06528C4.37366 1.14902 4.2518 1.26953 4.16643 1.41487L0.750419 7.34729C0.668285 7.48787 0.625 7.64776 0.625 7.81057C0.625 7.97339 0.668285 8.13327 0.750419 8.27385C0.834689 8.42007 0.956345 8.54124 1.1029 8.62492C1.24946 8.7086 1.41565 8.75178 1.5844 8.75003H8.41643C8.58506 8.75164 8.75108 8.70839 8.89749 8.62472C9.0439 8.54105 9.16543 8.41996 9.24964 8.27385C9.33189 8.13334 9.37531 7.97349 9.37545 7.81068C9.37558 7.64786 9.33243 7.48794 9.25042 7.34729ZM8.70862 7.96096C8.67884 8.01176 8.63609 8.05373 8.58474 8.08256C8.5334 8.11139 8.47531 8.12604 8.41643 8.12503H1.5844C1.52553 8.12604 1.46744 8.11139 1.41609 8.08256C1.36475 8.05373 1.322 8.01176 1.29222 7.96096C1.26524 7.91529 1.25101 7.86322 1.25101 7.81018C1.25101 7.75714 1.26524 7.70507 1.29222 7.6594L4.70823 1.72698C4.73861 1.67642 4.78156 1.63459 4.8329 1.60554C4.88424 1.5765 4.94222 1.56123 5.0012 1.56123C5.06018 1.56123 5.11816 1.5765 5.1695 1.60554C5.22084 1.63459 5.26379 1.67642 5.29417 1.72698L8.71019 7.6594C8.73692 7.70521 8.75088 7.75735 8.75061 7.8104C8.75033 7.86344 8.73583 7.91543 8.70862 7.96096ZM4.68792 5.62503V4.06253C4.68792 3.97965 4.72084 3.90016 4.77945 3.84155C4.83805 3.78295 4.91754 3.75003 5.00042 3.75003C5.0833 3.75003 5.16279 3.78295 5.22139 3.84155C5.28 3.90016 5.31292 3.97965 5.31292 4.06253V5.62503C5.31292 5.70791 5.28 5.78739 5.22139 5.846C5.16279 5.9046 5.0833 5.93753 5.00042 5.93753C4.91754 5.93753 4.83805 5.9046 4.77945 5.846C4.72084 5.78739 4.68792 5.70791 4.68792 5.62503ZM5.46917 7.03128C5.46917 7.12399 5.44168 7.21461 5.39017 7.2917C5.33866 7.36878 5.26545 7.42887 5.1798 7.46434C5.09415 7.49982 4.9999 7.50911 4.90897 7.49102C4.81804 7.47293 4.73452 7.42829 4.66896 7.36273C4.60341 7.29718 4.55876 7.21365 4.54068 7.12272C4.52259 7.0318 4.53187 6.93755 4.56735 6.85189C4.60283 6.76624 4.66291 6.69303 4.74 6.64152C4.81708 6.59002 4.90771 6.56253 5.00042 6.56253C5.12474 6.56253 5.24397 6.61191 5.33187 6.69982C5.41978 6.78773 5.46917 6.90696 5.46917 7.03128Z" fill="#FF0000"/>
</svg>
