<svg width="131" height="30" viewBox="0 0 131 30" fill="none" xmlns="http://www.w3.org/2000/svg">
<path d="M18.6817 1.5625C16.9729 1.5625 15.5942 1.5625 14.5104 1.70875C13.3854 1.85875 12.4379 2.18375 11.6854 2.935C11.0304 3.59125 10.6979 4.3975 10.5242 5.345C10.3554 6.26625 10.3229 7.3925 10.3154 8.745C10.3141 8.99364 10.4116 9.23262 10.5865 9.40938C10.7614 9.58613 10.9993 9.68617 11.2479 9.6875C11.4966 9.68883 11.7356 9.59132 11.9123 9.41645C12.0891 9.24157 12.1891 9.00364 12.1904 8.755C12.1979 7.38875 12.2329 6.42 12.3679 5.68375C12.4992 4.97625 12.7079 4.565 13.0117 4.26125C13.3579 3.915 13.8442 3.69 14.7617 3.56625C15.7054 3.44 16.9567 3.4375 18.7504 3.4375H20.0004C21.7954 3.4375 23.0467 3.44 23.9904 3.56625C24.9079 3.69 25.3929 3.91625 25.7404 4.26125C26.0854 4.6075 26.3104 5.0925 26.4342 6.01125C26.5617 6.95375 26.5629 8.20625 26.5629 10V20C26.5629 21.7937 26.5617 23.045 26.4342 23.99C26.3104 24.9075 26.0854 25.3925 25.7392 25.7387C25.3929 26.085 24.9079 26.31 23.9904 26.4337C23.0467 26.56 21.7954 26.5625 20.0004 26.5625H18.7504C16.9567 26.5625 15.7054 26.56 14.7604 26.4337C13.8442 26.31 13.3579 26.0837 13.0117 25.7387C12.7079 25.4337 12.4992 25.0237 12.3679 24.3162C12.2329 23.58 12.1979 22.6112 12.1904 21.245C12.1898 21.1219 12.1649 21.0001 12.1172 20.8866C12.0694 20.7731 11.9998 20.6701 11.9123 20.5835C11.8248 20.497 11.7211 20.4285 11.6071 20.3819C11.4931 20.3354 11.3711 20.3118 11.2479 20.3125C11.1248 20.3132 11.0031 20.3381 10.8896 20.3858C10.7761 20.4335 10.6731 20.5031 10.5865 20.5906C10.4999 20.6781 10.4314 20.7819 10.3849 20.8959C10.3384 21.0098 10.3148 21.1319 10.3154 21.255C10.3229 22.6075 10.3554 23.7337 10.5242 24.655C10.6992 25.6025 11.0304 26.4087 11.6867 27.065C12.4379 27.8175 13.3867 28.14 14.5117 28.2925C15.5942 28.4375 16.9729 28.4375 18.6817 28.4375H20.0692C21.7792 28.4375 23.1567 28.4375 24.2404 28.2925C25.3654 28.14 26.3129 27.8175 27.0654 27.065C27.8179 26.3125 28.1404 25.365 28.2929 24.24C28.4379 23.1562 28.4379 21.7775 28.4379 20.0687V9.93125C28.4379 8.2225 28.4379 6.84375 28.2929 5.76C28.1417 4.635 27.8179 3.6875 27.0654 2.935C26.3129 2.1825 25.3654 1.86 24.2404 1.70875C23.1567 1.5625 21.7779 1.5625 20.0692 1.5625H18.6817Z" fill="#606060"/>
<path d="M18.7497 14.0625C18.9984 14.0625 19.2368 14.1613 19.4126 14.3371C19.5884 14.5129 19.6872 14.7514 19.6872 15C19.6872 15.2486 19.5884 15.4871 19.4126 15.6629C19.2368 15.8387 18.9984 15.9375 18.7497 15.9375H5.03347L7.48472 18.0375C7.67369 18.1993 7.79065 18.4295 7.80987 18.6775C7.82909 18.9255 7.749 19.171 7.58722 19.36C7.42544 19.549 7.19521 19.6659 6.9472 19.6851C6.69918 19.7044 6.45369 19.6243 6.26472 19.4625L1.88972 15.7125C1.7868 15.6245 1.70417 15.5152 1.64752 15.3922C1.59086 15.2692 1.56152 15.1354 1.56152 15C1.56152 14.8646 1.59086 14.7308 1.64752 14.6078C1.70417 14.4848 1.7868 14.3755 1.88972 14.2875L6.26472 10.5375C6.35829 10.4574 6.46671 10.3965 6.58381 10.3583C6.70091 10.3201 6.82439 10.3053 6.9472 10.3148C7.07 10.3244 7.18973 10.358 7.29955 10.4138C7.40936 10.4696 7.50711 10.5464 7.58722 10.64C7.66733 10.7336 7.72822 10.842 7.76642 10.9591C7.80462 11.0762 7.81939 11.1997 7.80987 11.3225C7.80035 11.4453 7.76674 11.565 7.71095 11.6748C7.65516 11.7846 7.57829 11.8824 7.48472 11.9625L5.03472 14.0625H18.7497Z" fill="#606060"/>
<path d="M46.6 18.44H54.16V20.26H37.1V18.44H44.58V15.22H38.24V9.06H51.08V6.38H38.24V4.62H53.04V10.76H40.22V13.46H53.3V15.22H46.6V18.44ZM70.1783 16.44V6.46H57.3783V4.6H72.2583V16.44H70.1783ZM56.3383 20.26V18.4H73.3983V20.26H56.3383ZM93.4366 10.92V12.82H91.0366V21.08H89.0566V4H91.0366V10.92H93.4366ZM81.2166 4.4C84.1966 4.4 86.2966 6.92 86.2966 12.34C86.2966 17.76 84.1966 20.28 81.2166 20.28C78.2166 20.28 76.1166 17.76 76.1166 12.34C76.1166 6.92 78.2166 4.4 81.2166 4.4ZM81.2166 18.46C82.9766 18.46 84.3166 16.68 84.3166 12.34C84.3166 8.02 82.9766 6.22 81.2166 6.22C79.4366 6.22 78.0966 8.02 78.0966 12.34C78.0966 16.68 79.4366 18.46 81.2166 18.46ZM103.335 10.84C99.1948 10.84 95.7548 9.8 95.7548 7.36C95.7548 4.94 99.1948 3.9 103.335 3.9C107.475 3.9 110.915 4.94 110.915 7.36C110.915 9.8 107.475 10.84 103.335 10.84ZM103.335 5.48C100.355 5.48 97.8548 6.08 97.8548 7.36C97.8548 8.66 100.355 9.26 103.335 9.26C106.315 9.26 108.815 8.66 108.815 7.36C108.815 6.08 106.315 5.48 103.335 5.48ZM94.8148 12.08H111.875V13.72H104.315V15.2H102.355V13.72H94.8148V12.08ZM104.755 15.9C104.635 16.42 104.435 16.88 104.155 17.32L111.235 19.4L110.675 21.06L103.035 18.62C101.255 20.14 98.3948 20.86 95.6548 20.86V19.14C98.9148 19.14 102.175 17.86 102.775 15.58L104.755 15.9Z" fill="#606060"/>
<line x1="36" y1="25.4" x2="114" y2="25.4" stroke="#606060" stroke-width="1.2"/>
</svg>
