<svg width="40" height="40" viewBox="0 0 40 40" fill="none" xmlns="http://www.w3.org/2000/svg">
<path d="M37.0002 29.3891L23.3361 5.65937C22.9947 5.078 22.5072 4.59596 21.9221 4.26103C21.337 3.92609 20.6744 3.74989 20.0002 3.74989C19.326 3.74989 18.6635 3.92609 18.0783 4.26103C17.4932 4.59596 17.0057 5.078 16.6643 5.65937L3.00021 29.3891C2.67167 29.9514 2.49854 30.5909 2.49854 31.2422C2.49854 31.8934 2.67167 32.533 3.00021 33.0953C3.33729 33.6802 3.82391 34.1649 4.41015 34.4996C4.99639 34.8343 5.66112 35.007 6.33615 35H33.6643C34.3388 35.0065 35.0029 34.8335 35.5885 34.4988C36.1741 34.1641 36.6603 33.6797 36.9971 33.0953C37.3261 32.5333 37.4998 31.8939 37.5003 31.2426C37.5009 30.5913 37.3283 29.9517 37.0002 29.3891ZM34.833 31.8437C34.7139 32.0469 34.5429 32.2148 34.3375 32.3301C34.1321 32.4454 33.8998 32.5041 33.6643 32.5H6.33615C6.10064 32.5041 5.86829 32.4454 5.66291 32.3301C5.45754 32.2148 5.28652 32.0469 5.1674 31.8437C5.0595 31.6611 5.00258 31.4528 5.00258 31.2406C5.00258 31.0285 5.0595 30.8202 5.1674 30.6375L18.8315 6.90781C18.953 6.70558 19.1248 6.53824 19.3301 6.42206C19.5355 6.30589 19.7674 6.24483 20.0033 6.24483C20.2393 6.24483 20.4712 6.30589 20.6765 6.42206C20.8819 6.53824 21.0537 6.70558 21.1752 6.90781L34.8393 30.6375C34.9462 30.8207 35.0021 31.0293 35.001 31.2415C34.9999 31.4536 34.9419 31.6616 34.833 31.8437ZM18.7502 22.5V16.25C18.7502 15.9185 18.8819 15.6005 19.1163 15.3661C19.3507 15.1317 19.6687 15 20.0002 15C20.3317 15 20.6497 15.1317 20.8841 15.3661C21.1185 15.6005 21.2502 15.9185 21.2502 16.25V22.5C21.2502 22.8315 21.1185 23.1495 20.8841 23.3839C20.6497 23.6183 20.3317 23.75 20.0002 23.75C19.6687 23.75 19.3507 23.6183 19.1163 23.3839C18.8819 23.1495 18.7502 22.8315 18.7502 22.5ZM21.8752 28.125C21.8752 28.4958 21.7652 28.8583 21.5592 29.1667C21.3532 29.475 21.0604 29.7154 20.7177 29.8573C20.3751 29.9992 19.9981 30.0363 19.6344 29.964C19.2707 29.8916 18.9366 29.713 18.6744 29.4508C18.4122 29.1886 18.2336 28.8545 18.1612 28.4908C18.0889 28.1271 18.126 27.7501 18.2679 27.4075C18.4099 27.0649 18.6502 26.772 18.9585 26.566C19.2669 26.36 19.6294 26.25 20.0002 26.25C20.4975 26.25 20.9744 26.4475 21.326 26.7992C21.6777 27.1508 21.8752 27.6277 21.8752 28.125Z" fill="black"/>
</svg>
