<svg width="51" height="37" viewBox="0 0 51 37" fill="none" xmlns="http://www.w3.org/2000/svg">
<path d="M25.5 32.7308C20.5275 32.7308 15.7144 30.9947 11.1562 27.6077C7.42686 24.7901 4.81311 21.5454 3.60186 19.8377C3.32067 19.442 3.17136 18.983 3.17136 18.5143C3.17136 18.0456 3.32067 17.5866 3.60186 17.1908C4.81311 15.4831 7.42686 12.2101 11.1562 9.42082C20.2087 2.61851 30.7594 2.61851 39.8119 9.42082C43.5412 12.2385 46.155 15.4831 47.3662 17.1908C47.94 18.0162 47.94 19.0124 47.3662 19.8377C46.155 21.5454 43.5412 24.8185 39.8119 27.6077C35.2856 31.0231 30.4725 32.7308 25.4681 32.7308H25.5ZM6.47061 18.5001C7.64999 20.1224 9.97686 22.9685 13.2281 25.4162C21.1012 31.3362 29.8987 31.3362 37.7719 25.4162C41.0231 22.9685 43.35 20.0939 44.5294 18.5001C43.35 16.8777 41.0231 14.0316 37.7719 11.5839C29.8987 5.6639 21.1012 5.6639 13.2281 11.5839C9.97686 14.0316 7.64999 16.9062 6.47061 18.5001Z" fill="black"/>
<path d="M25.5 25.6154C23.3866 25.6154 21.3597 24.8658 19.8652 23.5314C18.3708 22.197 17.5313 20.3871 17.5312 18.5C17.5313 16.6129 18.3708 14.8031 19.8652 13.4687C21.3597 12.1343 23.3866 11.3846 25.5 11.3846C27.6134 11.3846 29.6403 12.1343 31.1348 13.4687C32.6292 14.8031 33.4688 16.6129 33.4688 18.5C33.4688 20.3871 32.6292 22.197 31.1348 23.5314C29.6403 24.8658 27.6134 25.6154 25.5 25.6154ZM25.5 14.2308C22.8544 14.2308 20.7188 16.1377 20.7188 18.5C20.7188 20.8623 22.8544 22.7693 25.5 22.7693C28.1456 22.7693 30.2812 20.8623 30.2812 18.5C30.2812 16.1377 28.1456 14.2308 25.5 14.2308Z" fill="black"/>
</svg>
