<svg width="10" height="23" viewBox="0 0 10 23" fill="none" xmlns="http://www.w3.org/2000/svg">
<path d="M4.99938 2.25C5.43036 2.25 5.84368 2.4212 6.14843 2.72595C6.45317 3.0307 6.62438 3.44402 6.62438 3.875C6.62438 4.30598 6.45317 4.7193 6.14843 5.02405C5.84368 5.3288 5.43036 5.5 4.99938 5.5C4.5684 5.5 4.15508 5.3288 3.85033 5.02405C3.54558 4.7193 3.37438 4.30598 3.37438 3.875C3.37438 3.44402 3.54558 3.0307 3.85033 2.72595C4.15508 2.4212 4.5684 2.25 4.99938 2.25ZM4.99938 0.625C4.13742 0.625 3.31077 0.96741 2.70128 1.5769C2.09179 2.1864 1.74938 3.01305 1.74938 3.875C1.74938 4.73695 2.09179 5.5636 2.70128 6.1731C3.31077 6.78259 4.13742 7.125 4.99938 7.125C5.86133 7.125 6.68798 6.78259 7.29748 6.1731C7.90697 5.5636 8.24938 4.73695 8.24938 3.875C8.24938 3.01305 7.90697 2.1864 7.29748 1.5769C6.68798 0.96741 5.86133 0.625 4.99938 0.625ZM6.99813 7.92125H3.00063C2.2378 7.92125 1.50621 8.22428 0.966813 8.76368C0.427412 9.30309 0.124379 10.0347 0.124379 10.7975V15.0875C0.106621 15.539 0.267023 15.9795 0.571001 16.3139C0.87498 16.6482 1.29819 16.8498 1.74938 16.875V20.6612C1.74938 21.1784 1.95482 21.6744 2.32052 22.0401C2.68622 22.4058 3.18221 22.6112 3.69938 22.6112H6.29938C6.56102 22.6114 6.82001 22.5589 7.06094 22.4569C7.30186 22.3548 7.51979 22.2053 7.70174 22.0173C7.88369 21.8293 8.02594 21.6066 8.12002 21.3625C8.21411 21.1183 8.2581 20.8577 8.24938 20.5963V16.875C8.70057 16.8498 9.12378 16.6482 9.42776 16.3139C9.73174 15.9795 9.89214 15.539 9.87438 15.0875V10.7975C9.87438 10.0347 9.57135 9.30309 9.03195 8.76368C8.49254 8.22428 7.76096 7.92125 6.99813 7.92125ZM1.74938 15.25V10.7975C1.74719 10.6326 1.77807 10.4689 1.84017 10.3161C1.90228 10.1633 1.99437 10.0245 2.11099 9.90786C2.22762 9.79124 2.36643 9.69915 2.51922 9.63705C2.67202 9.57494 2.83571 9.54406 3.00063 9.54625H6.99813C7.16305 9.54406 7.32674 9.57494 7.47953 9.63705C7.63233 9.69915 7.77114 9.79124 7.88776 9.90786C8.00439 10.0245 8.09648 10.1633 8.15858 10.3161C8.22069 10.4689 8.25156 10.6326 8.24938 10.7975V15.25H6.62438V20.6287C6.62438 20.7149 6.59014 20.7976 6.52919 20.8586C6.46824 20.9195 6.38557 20.9538 6.29938 20.9538H3.69938C3.61318 20.9538 3.53052 20.9195 3.46957 20.8586C3.40862 20.7976 3.37438 20.7149 3.37438 20.6287V15.25H1.74938Z" fill="black"/>
</svg>
