<svg width="43" height="43" viewBox="0 0 43 43" fill="none" xmlns="http://www.w3.org/2000/svg">
<path fill-rule="evenodd" clip-rule="evenodd" d="M25.6925 14.5125C25.6925 14.2274 25.8058 13.954 26.0074 13.7524C26.209 13.5508 26.4824 13.4375 26.7675 13.4375H38.055C38.3401 13.4375 38.6135 13.5508 38.8151 13.7524C39.0167 13.954 39.13 14.2274 39.13 14.5125C39.13 14.7976 39.0167 15.071 38.8151 15.2726C38.6135 15.4742 38.3401 15.5875 38.055 15.5875H26.7675C26.4824 15.5875 26.209 15.4742 26.0074 15.2726C25.8058 15.071 25.6925 14.7976 25.6925 14.5125Z" fill="white"/>
<path fill-rule="evenodd" clip-rule="evenodd" d="M32.25 21.5C31.9649 21.5 31.6915 21.3867 31.4899 21.1851C31.2883 20.9835 31.175 20.7101 31.175 20.425V9.13749C31.175 8.85238 31.2883 8.57895 31.4899 8.37735C31.6915 8.17575 31.9649 8.06249 32.25 8.06249C32.5351 8.06249 32.8085 8.17575 33.0101 8.37735C33.2117 8.57895 33.325 8.85238 33.325 9.13749V20.425C33.325 20.7101 33.2117 20.9835 33.0101 21.1851C32.8085 21.3867 32.5351 21.5 32.25 21.5ZM14.62 6.44999C13.1945 6.44999 11.8273 7.01628 10.8193 8.02429C9.81129 9.0323 9.245 10.3994 9.245 11.825C9.245 13.2505 9.81129 14.6177 10.8193 15.6257C11.8273 16.6337 13.1945 17.2 14.62 17.2C16.0455 17.2 17.4127 16.6337 18.4207 15.6257C19.4287 14.6177 19.995 13.2505 19.995 11.825C19.995 10.3994 19.4287 9.0323 18.4207 8.02429C17.4127 7.01628 16.0455 6.44999 14.62 6.44999ZM7.095 11.825C7.095 10.8368 7.28964 9.85827 7.66781 8.94529C8.04597 8.03232 8.60026 7.20277 9.29902 6.50401C9.99778 5.80525 10.8273 5.25096 11.7403 4.87279C12.6533 4.49463 13.6318 4.29999 14.62 4.29999C15.6082 4.29999 16.5867 4.49463 17.4997 4.87279C18.4127 5.25096 19.2422 5.80525 19.941 6.50401C20.6397 7.20277 21.194 8.03232 21.5722 8.94529C21.9504 9.85827 22.145 10.8368 22.145 11.825C22.145 13.8207 21.3522 15.7348 19.941 17.146C18.5298 18.5572 16.6158 19.35 14.62 19.35C12.6242 19.35 10.7102 18.5572 9.29902 17.146C7.88781 15.7348 7.095 13.8207 7.095 11.825Z" fill="white"/>
<path fill-rule="evenodd" clip-rule="evenodd" d="M1.72 31.175C1.72 24.0327 7.4605 17.2 14.62 17.2C21.7795 17.2 27.52 24.0327 27.52 31.175V35.475C27.52 35.7601 27.4067 36.0335 27.2051 36.2351C27.0035 36.4367 26.7301 36.55 26.445 36.55C26.1599 36.55 25.8865 36.4367 25.6849 36.2351C25.4833 36.0335 25.37 35.7601 25.37 35.475V31.175C25.37 24.998 20.382 19.35 14.62 19.35C8.858 19.35 3.87 24.998 3.87 31.175V35.475C3.87 35.7601 3.75674 36.0335 3.55514 36.2351C3.35354 36.4367 3.08011 36.55 2.795 36.55C2.50989 36.55 2.23646 36.4367 2.03486 36.2351C1.83326 36.0335 1.72 35.7601 1.72 35.475V31.175Z" fill="white"/>
</svg>
