<svg width="15" height="15" viewBox="0 0 15 15" fill="none" xmlns="http://www.w3.org/2000/svg">
<path d="M2.34272 10.099H4.25763L3.68629 12.9367C3.67381 13.003 3.66754 13.0702 3.66754 13.1376C3.66754 13.4451 3.88075 13.6147 4.17593 13.6147C4.47727 13.6147 4.69692 13.4513 4.75986 13.1438L5.37486 10.099H8.34433L7.77325 12.9367C7.75451 12.9994 7.74834 13.0749 7.74834 13.1376C7.74834 13.4451 7.96183 13.6147 8.26317 13.6147C8.5645 13.6147 8.78415 13.4513 8.84709 13.1438L9.4554 10.099H11.6966C12.0418 10.099 12.2805 9.84805 12.2805 9.50895C12.2805 9.23279 12.0922 9.00671 11.8096 9.00671H9.6812L10.3474 5.69198H12.5446C12.8901 5.69198 13.1285 5.441 13.1285 5.10189C13.1285 4.82573 12.9402 4.59966 12.6576 4.59966H10.567L11.0818 2.06975C11.088 2.03198 11.1006 1.95029 11.1006 1.86886C11.1006 1.56109 10.8809 1.38538 10.5796 1.38538C10.2282 1.38538 10.0712 1.57984 10.0083 1.87502L9.45593 4.59966H6.4862L7.00102 2.06975C7.00718 2.03198 7.01977 1.95029 7.01977 1.86886C7.01977 1.56109 6.7937 1.38538 6.49879 1.38538C6.14093 1.38538 5.97754 1.57984 5.92102 1.87502L5.3687 4.59966H3.30968C2.96415 4.59966 2.72575 4.86323 2.72575 5.2085C2.72575 5.49109 2.91406 5.69198 3.19665 5.69198H5.14906L4.48343 9.00671H2.45575C2.11022 9.00671 1.87183 9.27029 1.87183 9.61555C1.87183 9.89814 2.06013 10.099 2.34272 10.099ZM5.5945 9.00671L6.26656 5.69198H9.23575L8.56397 9.00671H5.5945Z" fill="#95D1D9"/>
</svg>
