<svg width="50" height="51" viewBox="0 0 50 51" fill="none" xmlns="http://www.w3.org/2000/svg">
<path d="M22.9167 25.5C20.625 25.5 18.6632 24.6677 17.0312 23.0031C15.3993 21.3385 14.5833 19.3375 14.5833 17C14.5833 14.6625 15.3993 12.6615 17.0312 10.9969C18.6632 9.33229 20.625 8.5 22.9167 8.5C25.2083 8.5 27.1701 9.33229 28.8021 10.9969C30.434 12.6615 31.25 14.6625 31.25 17C31.25 19.3375 30.434 21.3385 28.8021 23.0031C27.1701 24.6677 25.2083 25.5 22.9167 25.5ZM46.0417 49.9375L39.375 43.1375C38.6458 43.5625 37.8646 43.9167 37.0312 44.2C36.1979 44.4833 35.3125 44.625 34.375 44.625C31.7708 44.625 29.5576 43.6957 27.7354 41.837C25.9132 39.9783 25.0014 37.7202 25 35.0625C25 32.4062 25.9118 30.1488 27.7354 28.2901C29.559 26.4315 31.7722 25.5014 34.375 25.5C36.9792 25.5 39.1931 26.43 41.0167 28.2901C42.8403 30.1502 43.7514 32.4077 43.75 35.0625C43.75 36.0187 43.6111 36.9219 43.3333 37.7719C43.0556 38.6219 42.7083 39.4187 42.2917 40.1625L48.9583 46.9625L46.0417 49.9375ZM34.375 40.375C35.8333 40.375 37.066 39.8615 38.0729 38.8344C39.0799 37.8073 39.5833 36.55 39.5833 35.0625C39.5833 33.575 39.0799 32.3177 38.0729 31.2906C37.066 30.2635 35.8333 29.75 34.375 29.75C32.9167 29.75 31.684 30.2635 30.6771 31.2906C29.6701 32.3177 29.1667 33.575 29.1667 35.0625C29.1667 36.55 29.6701 37.8073 30.6771 38.8344C31.684 39.8615 32.9167 40.375 34.375 40.375ZM22.9687 27.625C21.5104 29.8208 20.7812 32.3 20.7812 35.0625C20.7812 37.825 21.5104 40.3042 22.9687 42.5H6.25V36.6031C6.25 35.399 6.54514 34.2833 7.13542 33.2562C7.72569 32.2292 8.54167 31.45 9.58333 30.9188C11.3542 29.9979 13.3507 29.2188 15.5729 28.5812C17.7951 27.9438 20.2604 27.625 22.9687 27.625Z" fill="#AED391"/>
</svg>
