<svg width="42" height="42" viewBox="0 0 42 42" fill="none" xmlns="http://www.w3.org/2000/svg">
<path fill-rule="evenodd" clip-rule="evenodd" d="M23.6248 5.25H18.3748C18.0267 5.25 17.6929 5.38828 17.4467 5.63442C17.2006 5.88056 17.0623 6.2144 17.0623 6.5625V7.875H24.9373V6.5625C24.9373 6.2144 24.799 5.88056 24.5529 5.63442C24.3068 5.38828 23.9729 5.25 23.6248 5.25ZM28.8748 7.875V6.5625C28.8748 5.17011 28.3217 3.83476 27.3371 2.85019C26.3526 1.86562 25.0172 1.3125 23.6248 1.3125H18.3748C16.9824 1.3125 15.6471 1.86562 14.6625 2.85019C13.6779 3.83476 13.1248 5.17011 13.1248 6.5625V7.875H5.90869C5.38655 7.875 4.88579 8.08242 4.51657 8.45163C4.14736 8.82085 3.93994 9.3216 3.93994 9.84375C3.93994 10.3659 4.14736 10.8667 4.51657 11.2359C4.88579 11.6051 5.38655 11.8125 5.90869 11.8125H6.72769L7.55982 31.8281C7.64448 33.8584 8.51068 35.7774 9.97733 37.1838C11.444 38.5903 13.3975 39.3754 15.4296 39.375H26.5727C28.6043 39.3747 30.5572 38.5893 32.0232 37.1829C33.4893 35.7765 34.3552 33.858 34.4398 31.8281L35.2746 11.8125H36.0936C36.6157 11.8125 37.1165 11.6051 37.4857 11.2359C37.8549 10.8667 38.0623 10.3659 38.0623 9.84375C38.0623 9.3216 37.8549 8.82085 37.4857 8.45163C37.1165 8.08242 36.6157 7.875 36.0936 7.875H28.8748ZM31.3318 11.8125H10.6678L11.4947 31.6628C11.5367 32.6781 11.9697 33.6379 12.703 34.3414C13.4364 35.045 14.4133 35.4377 15.4296 35.4375H26.5727C27.5885 35.437 28.5648 35.044 29.2976 34.3405C30.0304 33.6371 30.463 32.6777 30.5049 31.6628L31.3318 11.8125ZM15.0936 17.0625V30.1875C15.0936 30.7096 15.301 31.2104 15.6702 31.5796C16.0394 31.9488 16.5402 32.1562 17.0623 32.1562C17.5845 32.1562 18.0852 31.9488 18.4544 31.5796C18.8236 31.2104 19.0311 30.7096 19.0311 30.1875V17.0625C19.0311 16.5404 18.8236 16.0396 18.4544 15.6704C18.0852 15.3012 17.5845 15.0938 17.0623 15.0938C16.5402 15.0938 16.0394 15.3012 15.6702 15.6704C15.301 16.0396 15.0936 16.5404 15.0936 17.0625ZM24.9373 15.0938C25.4595 15.0938 25.9602 15.3012 26.3294 15.6704C26.6986 16.0396 26.9061 16.5404 26.9061 17.0625V30.1875C26.9061 30.7096 26.6986 31.2104 26.3294 31.5796C25.9602 31.9488 25.4595 32.1562 24.9373 32.1562C24.4152 32.1562 23.9144 31.9488 23.5452 31.5796C23.176 31.2104 22.9686 30.7096 22.9686 30.1875V17.0625C22.9686 16.5404 23.176 16.0396 23.5452 15.6704C23.9144 15.3012 24.4152 15.0938 24.9373 15.0938Z" fill="#707070"/>
</svg>
