<svg width="9" height="9" viewBox="0 0 9 9" fill="none" xmlns="http://www.w3.org/2000/svg">
<path id="Vector" d="M4.2303 7.27206L7.55838 3.94398C6.99844 3.71021 6.48992 3.36864 6.06173 2.93872C5.63161 2.51043 5.28989 2.00175 5.05602 1.44162L1.72794 4.7697C1.4683 5.02934 1.33825 5.15939 1.22665 5.30248C1.09486 5.47135 0.981845 5.65407 0.889616 5.84741C0.811769 6.01121 0.753721 6.1858 0.637625 6.53409L0.0247471 8.37137C-0.00346072 8.4555 -0.00764576 8.54582 0.0126622 8.63219C0.0329703 8.71856 0.0769663 8.79756 0.139705 8.8603C0.202444 8.92303 0.281438 8.96703 0.367809 8.98734C0.45418 9.00765 0.544503 9.00346 0.628625 8.97525L2.46591 8.36237C2.81465 8.24628 2.98879 8.18823 3.15259 8.11038C3.34608 8.01814 3.52877 7.90519 3.69752 7.77335C3.84061 7.66175 3.97066 7.5317 4.2303 7.27206ZM8.48174 3.02062C8.81358 2.68878 9 2.23872 9 1.76944C9 1.30015 8.81358 0.850089 8.48174 0.518256C8.14991 0.186422 7.69985 3.49644e-09 7.23056 0C6.76128 -3.49643e-09 6.31122 0.186422 5.97938 0.518256L5.58025 0.917391L5.59735 0.96734C5.79404 1.53014 6.11592 2.04096 6.53871 2.46129C6.97161 2.89674 7.50031 3.22496 8.08261 3.41975L8.48174 3.02062Z" fill="#595959"/>
</svg>
