<svg width="15" height="15" viewBox="0 0 15 15" fill="none" xmlns="http://www.w3.org/2000/svg">
<path d="M3.75 1.875C3.75 1.37772 3.94754 0.900805 4.29918 0.549175C4.65081 0.197544 5.12772 0 5.625 0H9.375C9.87228 0 10.3492 0.197544 10.7008 0.549175C11.0525 0.900805 11.25 1.37772 11.25 1.875V3.75H13.125C13.6223 3.75 14.0992 3.94754 14.4508 4.29918C14.8025 4.65081 15 5.12772 15 5.625V9.375C15 9.87228 14.8025 10.3492 14.4508 10.7008C14.0992 11.0525 13.6223 11.25 13.125 11.25H11.25V13.125C11.25 13.6223 11.0525 14.0992 10.7008 14.4508C10.3492 14.8025 9.87228 15 9.375 15H5.625C5.12772 15 4.65081 14.8025 4.29918 14.4508C3.94754 14.0992 3.75 13.6223 3.75 13.125V11.25H1.875C1.37772 11.25 0.900805 11.0525 0.549175 10.7008C0.197544 10.3492 0 9.87228 0 9.375V5.625C0 5.12772 0.197544 4.65081 0.549175 4.29918C0.900805 3.94754 1.37772 3.75 1.875 3.75H3.75V1.875ZM9.375 1.875H5.625V4.6875C5.625 4.93614 5.52623 5.1746 5.35041 5.35041C5.1746 5.52623 4.93614 5.625 4.6875 5.625H1.875V9.375H4.6875C4.93614 9.375 5.1746 9.47377 5.35041 9.64959C5.52623 9.8254 5.625 10.0639 5.625 10.3125V13.125H9.375V10.3125C9.375 10.0639 9.47377 9.8254 9.64959 9.64959C9.8254 9.47377 10.0639 9.375 10.3125 9.375H13.125V5.625H10.3125C10.0639 5.625 9.8254 5.52623 9.64959 5.35041C9.47377 5.1746 9.375 4.93614 9.375 4.6875V1.875Z" fill="#95D1D9"/>
</svg>
