<svg width="13" height="11" viewBox="0 0 13 11" fill="none" xmlns="http://www.w3.org/2000/svg">
<path d="M6.875 8.4375L8.3125 7.34375L9.75 8.4375L9.21875 6.65625L10.6562 5.5H8.875L8.3125 3.75L7.75 5.5H5.96875L7.40625 6.65625L6.875 8.4375ZM1.5 10.5C1.15625 10.5 0.862083 10.3777 0.6175 10.1331C0.372917 9.88854 0.250417 9.59417 0.25 9.25V1.75C0.25 1.40625 0.3725 1.11208 0.6175 0.8675C0.8625 0.622917 1.15667 0.500417 1.5 0.5H5.25L6.5 1.75H11.5C11.8438 1.75 12.1381 1.8725 12.3831 2.1175C12.6281 2.3625 12.7504 2.65667 12.75 3V9.25C12.75 9.59375 12.6277 9.88813 12.3831 10.1331C12.1385 10.3781 11.8442 10.5004 11.5 10.5H1.5ZM1.5 9.25H11.5V3H5.98438L4.73438 1.75H1.5V9.25Z" fill="#95D1D9"/>
</svg>
