<svg width="15" height="15" viewBox="0 0 15 15" fill="none" xmlns="http://www.w3.org/2000/svg">
<path d="M6.27201 0C5.38462 0.0154228 4.58311 0.561457 4.22053 1.40578L8.56204 2.75872C8.75287 1.58429 8.06905 0.445622 6.96856 0.100084C6.77136 0.038393 6.56462 0.00459404 6.35789 0H6.27201ZM4.05514 1.9715C3.86112 3.14921 4.54495 4.29116 5.64861 4.63571C6.75546 4.98027 7.93546 4.41586 8.39983 3.32313L4.05514 1.9715ZM12.4996 3.42486C11.6949 3.42814 10.8393 3.82848 10.1937 4.77025L6.2243 10.5752C5.1588 12.1306 5.62317 13.7582 6.67276 14.526C7.72554 15.2972 9.36355 15.2086 10.429 13.6532L14.3952 7.85154C15.4607 6.29285 14.9964 4.66853 13.9468 3.89739C13.5524 3.60862 13.0785 3.44126 12.5791 3.42486H12.4996ZM12.4424 3.99255C12.4837 3.99255 12.5251 3.99255 12.5632 3.99583C12.9481 4.01224 13.3107 4.15334 13.616 4.37976C14.4334 4.97699 14.8437 6.16816 13.9245 7.51027L11.873 10.5128C10.7344 10.1978 9.27131 9.12475 8.60656 8.11734L10.6644 5.11153C11.2019 4.32726 11.8412 4.00568 12.4424 3.99255ZM2.25969 6.49302C1.95372 6.4963 1.65188 6.56193 1.37135 6.68991C0.318256 7.16572 -0.22976 8.37986 0.0914798 9.52181L4.24915 7.64809C3.83249 6.92289 3.07551 6.48318 2.25969 6.49302ZM4.47497 8.18625L0.317938 10.0632C0.904758 11.0936 2.14042 11.5071 3.19956 11.0313C4.25551 10.5522 4.80258 9.33148 4.47497 8.18625Z" fill="#95D1D9"/>
</svg>
