<svg width="11" height="13" viewBox="0 0 11 13" fill="none" xmlns="http://www.w3.org/2000/svg">
<path d="M4.33373 5.58356L5.33967 4.66106C5.61495 4.40851 5.80852 4.07948 5.89555 3.71618C5.98257 3.35288 5.95909 2.97186 5.82811 2.62199L5.39826 1.47449C5.23784 1.04634 4.92019 0.69548 4.51005 0.493414C4.09991 0.291348 3.62815 0.253289 3.19092 0.386995C1.58217 0.879182 0.345605 2.37449 0.72623 4.15059C0.976542 5.31871 1.45514 6.78496 2.3631 8.34543C3.12392 9.65968 4.08105 10.85 5.20139 11.8751C6.5467 13.0995 8.46857 12.7934 9.70514 11.6407C10.0366 11.3317 10.2377 10.9079 10.2675 10.4556C10.2973 10.0034 10.1535 9.55686 9.86545 9.20699L9.07748 8.24981C8.83999 7.96116 8.52166 7.75008 8.16334 7.64367C7.80502 7.53727 7.42308 7.54038 7.06654 7.65262L5.76529 8.06278C5.71514 8.01121 5.65748 7.94981 5.59373 7.87902C5.3262 7.58306 5.08951 7.26061 4.88732 6.91668C4.69062 6.56955 4.52979 6.20329 4.40732 5.82356C4.38115 5.74407 4.35661 5.66405 4.33373 5.58356Z" fill="#95D1D9"/>
</svg>
