<svg width="10" height="10" viewBox="0 0 10 10" fill="none" xmlns="http://www.w3.org/2000/svg">
<path d="M0.111328 4.96859C0.111328 5.16948 0.270257 5.29091 0.467042 5.29091C0.588471 5.29091 0.684721 5.23234 0.768471 5.14859L4.85329 1.42788C4.89919 1.3818 4.94954 1.36502 5.00383 1.36502C5.05419 1.36502 5.10026 1.3818 5.15026 1.42788L9.23097 5.14859C9.31883 5.23234 9.41508 5.29091 9.5324 5.29091C9.72901 5.29091 9.88811 5.16948 9.88811 4.96859C9.88811 4.84305 9.84204 4.76359 9.76258 4.69234L8.31436 3.37413V0.900554C8.31436 0.716447 8.19722 0.599304 8.01311 0.599304H7.4649C7.2849 0.599304 7.15936 0.716447 7.15936 0.900554V2.32359L5.50186 0.808411C5.35544 0.670376 5.17544 0.60359 4.99972 0.60359C4.82383 0.60359 4.64811 0.670554 4.4974 0.80859L0.236864 4.69234C0.161507 4.76359 0.111328 4.84305 0.111328 4.96859ZM1.30829 8.48002C1.30829 9.0618 1.6599 9.40091 2.2499 9.40091H3.94508V6.42502C3.94508 6.23252 4.07472 6.10716 4.26722 6.10716H5.74472C5.93722 6.10716 6.06276 6.23252 6.06276 6.42502V9.40091H7.75365C8.34365 9.40091 8.69115 9.0618 8.69115 8.48002V5.41645L5.13776 2.21466C5.09169 2.17288 5.04151 2.15198 4.99133 2.15198C4.94526 2.15198 4.89919 2.17288 4.84901 2.21895L1.30829 5.43734V8.48002Z" fill="white"/>
</svg>
