<svg width="5" height="7" viewBox="0 0 5 7" fill="none" xmlns="http://www.w3.org/2000/svg">
<path d="M2.5 3.325C2.2632 3.325 2.0361 3.23281 1.86865 3.06872C1.70121 2.90462 1.60714 2.68206 1.60714 2.45C1.60714 2.21794 1.70121 1.99538 1.86865 1.83128C2.0361 1.66719 2.2632 1.575 2.5 1.575C2.7368 1.575 2.9639 1.66719 3.13135 1.83128C3.29879 1.99538 3.39286 2.21794 3.39286 2.45C3.39286 2.56491 3.36976 2.67869 3.32489 2.78485C3.28002 2.89101 3.21425 2.98747 3.13135 3.06872C3.04844 3.14997 2.95001 3.21442 2.84168 3.25839C2.73336 3.30237 2.61725 3.325 2.5 3.325ZM2.5 0C1.83696 0 1.20107 0.258124 0.732233 0.717588C0.263392 1.17705 0 1.80022 0 2.45C0 4.2875 2.5 7 2.5 7C2.5 7 5 4.2875 5 2.45C5 1.80022 4.73661 1.17705 4.26777 0.717588C3.79893 0.258124 3.16304 0 2.5 0Z" fill="black"/>
</svg>
