<svg width="12" height="12" viewBox="0 0 12 12" fill="none" xmlns="http://www.w3.org/2000/svg">
<g clip-path="url(#clip0_2170_665)">
<path d="M9.7314 1.16645C10.1232 1.47365 10.3932 1.96985 10.5036 2.48945L10.5426 2.50505L11.7696 3.07265C11.8381 3.1042 11.8962 3.15468 11.9371 3.21814C11.9779 3.2816 11.9997 3.3554 12 3.43085V10.851C11.9996 10.9127 11.9848 10.9734 11.957 11.0284C11.9292 11.0834 11.889 11.1312 11.8396 11.168C11.7902 11.2049 11.7329 11.2298 11.6722 11.2408C11.6116 11.2518 11.5492 11.2486 11.49 11.2315L8.0886 10.2715L4.0446 11.3862C3.97165 11.4064 3.89449 11.4056 3.822 11.3839L0.2844 10.3308C0.202632 10.3068 0.130794 10.2571 0.0795572 10.189C0.0283206 10.1209 0.000419796 10.0381 0 9.95285L0 2.39945C0 2.13545 0.2568 1.94585 0.513 2.02025L3.9342 3.01685L5.673 2.48465C5.697 2.47745 5.7214 2.47245 5.7462 2.46965C5.8134 2.07605 6.0012 1.69805 6.3162 1.32965C6.69 0.891649 7.3458 0.634849 7.9848 0.604249C8.6478 0.572449 9.1542 0.714049 9.7308 1.16585M0.7998 2.92925V9.65825L3.7218 10.5276V3.77945L0.7998 2.92925ZM5.7252 3.29765L4.5216 3.66545V10.4328L7.5606 9.59645V7.61945C7.5606 7.40105 7.74 7.22405 7.9608 7.22405C8.1816 7.22405 8.3604 7.40105 8.3604 7.62005V9.52625L11.2002 10.3273V3.68225L10.5282 3.37025C10.517 3.43625 10.5024 3.50085 10.4844 3.56405C10.3544 4.0243 10.1355 4.45461 9.84 4.83065L8.3538 6.68645C8.31467 6.73524 8.26469 6.77423 8.20784 6.80032C8.151 6.82641 8.08885 6.83887 8.02634 6.83671C7.96383 6.83455 7.90268 6.81784 7.84777 6.7879C7.79285 6.75796 7.74568 6.71562 7.71 6.66425L6.321 4.65245C6.0914 4.33285 5.9312 4.04565 5.8404 3.79085C5.78331 3.63138 5.74466 3.46591 5.7252 3.29765ZM8.0232 1.39505C7.5876 1.41605 7.14 1.59125 6.927 1.84025C6.6708 2.14025 6.5448 2.42105 6.5196 2.70545C6.4896 3.04805 6.51 3.28985 6.5952 3.52925C6.6582 3.70625 6.7836 3.93065 6.9774 4.20125L8.064 5.77445L9.21 4.34345C9.44135 4.04808 9.61277 3.71035 9.7146 3.34925C9.8586 2.84525 9.6414 2.10485 9.2346 1.78685C8.8176 1.45985 8.5026 1.37165 8.0238 1.39505M8.1066 1.81325C8.769 1.81325 9.3066 2.34425 9.3066 2.99945C9.30454 3.31581 9.17701 3.61841 8.95201 3.84082C8.72702 4.06322 8.42296 4.18725 8.1066 4.18565C7.4442 4.18565 6.9066 3.65465 6.9066 2.99945C6.9066 2.34425 7.4442 1.81325 8.1066 1.81325ZM8.1066 2.60405C8.05436 2.60373 8.00257 2.61371 7.95419 2.63341C7.9058 2.65311 7.86177 2.68215 7.82461 2.71886C7.78745 2.75558 7.75788 2.79926 7.7376 2.8474C7.71732 2.89554 7.70671 2.94721 7.7064 2.99945C7.7064 3.21785 7.8858 3.39485 8.1066 3.39485C8.15884 3.39509 8.21062 3.38503 8.25897 3.36526C8.30732 3.34549 8.35131 3.31638 8.38842 3.27961C8.42552 3.24284 8.45502 3.19912 8.47523 3.15094C8.49544 3.10277 8.50596 3.05109 8.5062 2.99885C8.50541 2.89355 8.4629 2.79287 8.38799 2.71886C8.31309 2.64486 8.2119 2.60357 8.1066 2.60405Z" fill="white"/>
</g>
<defs>
<clipPath id="clip0_2170_665">
<rect width="12" height="12" fill="white"/>
</clipPath>
</defs>
</svg>
