<svg width="29" height="29" viewBox="0 0 29 29" fill="none" xmlns="http://www.w3.org/2000/svg">
<path d="M16.944 3.256C16.944 4.804 15.576 6.172 13.956 6.172C12.372 6.172 10.932 4.768 10.932 3.256C10.932 1.672 12.3 0.339998 13.92 0.339998C15.576 0.339998 16.944 1.672 16.944 3.256ZM25.692 27.628L14.028 16.108C10.176 19.96 6.252 23.776 2.4 27.628L0.204 25.504C4.128 21.724 8.124 17.944 12.048 14.128L0.276 2.716L2.328 0.52L13.992 12.148L25.764 0.52L27.816 2.68L16.044 14.128L27.924 25.468L25.692 27.628ZM6.144 14.164C6.144 15.64 4.776 17.044 3.12 17.044C1.572 17.044 0.0960001 15.676 0.0960001 14.164C0.0960001 12.544 1.536 11.212 3.084 11.212C4.668 11.212 6.144 12.544 6.144 14.164ZM28.5 14.164C28.5 15.712 27.132 17.008 25.512 17.008C23.928 17.008 22.524 15.712 22.524 14.164C22.524 12.508 23.892 11.212 25.44 11.212C27.096 11.212 28.5 12.508 28.5 14.164ZM16.944 25.36C16.944 26.908 15.648 28.204 13.956 28.204C12.372 28.204 10.968 26.908 10.968 25.36C10.968 23.776 12.3 22.48 13.92 22.48C15.576 22.48 16.944 23.776 16.944 25.36Z" fill="#FF4949"/>
</svg>
