<svg width="39" height="47" viewBox="0 0 39 47" fill="none" xmlns="http://www.w3.org/2000/svg">
<g filter="url(#filter0_d_2034_413)">
<path d="M30.4393 26.7935C31.1788 26.7673 31.8941 26.5104 32.4941 26.0555V28.2797C32.4941 30.413 31.2851 32.3144 29.4473 33.1024C29.843 32.2098 30.108 31.2595 30.2334 30.2836L30.4393 26.7935Z" fill="url(#paint0_radial_2034_413)"/>
<path d="M30.4393 26.7935C31.1788 26.7673 31.8941 26.5104 32.4941 26.0555V28.2797C32.4941 30.413 31.2851 32.3144 29.4473 33.1024C29.843 32.2098 30.108 31.2595 30.2334 30.2836L30.4393 26.7935Z" fill="url(#paint1_radial_2034_413)"/>
<path d="M8.34705 26.7935C7.60721 26.7675 6.89147 26.5106 6.29102 26.0555V28.2797C6.29102 30.413 7.50002 32.3144 9.33789 33.1024C8.94256 32.2098 8.67794 31.2594 8.55302 30.2836L8.34705 26.7935Z" fill="url(#paint2_radial_2034_413)"/>
<g filter="url(#filter1_ii_2034_413)">
<path d="M8.43004 30.4117C8.71118 32.6635 9.76207 34.7309 11.3866 36.2279C13.0111 37.725 15.0983 38.5496 17.2587 38.5477H21.5462C23.7066 38.5496 25.7937 37.725 27.4183 36.2279C29.0428 34.7309 30.0937 32.6635 30.3749 30.4117C30.643 25.912 30.9123 21.4302 31.1122 16.933C31.0878 15.1008 29.7131 13.5889 27.9776 13.512H24.7966C23.7317 13.5102 22.6901 13.1836 21.7982 12.5719C20.9063 11.9601 20.2023 11.0894 19.7717 10.0655C19.6602 9.771 19.4673 9.51841 19.2179 9.34029C18.9685 9.16216 18.6741 9.06666 18.3726 9.0661H15.4805C11.2868 9.0661 7.8877 12.6792 7.8877 17.138C7.8877 21.5839 8.15216 25.9568 8.43004 30.4117Z" fill="url(#paint3_radial_2034_413)"/>
</g>
<path d="M8.43004 30.4117C8.71118 32.6635 9.76207 34.7309 11.3866 36.2279C13.0111 37.725 15.0983 38.5496 17.2587 38.5477H21.5462C23.7066 38.5496 25.7937 37.725 27.4183 36.2279C29.0428 34.7309 30.0937 32.6635 30.3749 30.4117C30.643 25.912 30.9123 21.4302 31.1122 16.933C31.0878 15.1008 29.7131 13.5889 27.9776 13.512H24.7966C23.7317 13.5102 22.6901 13.1836 21.7982 12.5719C20.9063 11.9601 20.2023 11.0894 19.7717 10.0655C19.6602 9.771 19.4673 9.51841 19.2179 9.34029C18.9685 9.16216 18.6741 9.06666 18.3726 9.0661H15.4805C11.2868 9.0661 7.8877 12.6792 7.8877 17.138C7.8877 21.5839 8.15216 25.9568 8.43004 30.4117Z" fill="url(#paint4_linear_2034_413)"/>
<path d="M8.43004 30.4117C8.71118 32.6635 9.76207 34.7309 11.3866 36.2279C13.0111 37.725 15.0983 38.5496 17.2587 38.5477H21.5462C23.7066 38.5496 25.7937 37.725 27.4183 36.2279C29.0428 34.7309 30.0937 32.6635 30.3749 30.4117C30.643 25.912 30.9123 21.4302 31.1122 16.933C31.0878 15.1008 29.7131 13.5889 27.9776 13.512H24.7966C23.7317 13.5102 22.6901 13.1836 21.7982 12.5719C20.9063 11.9601 20.2023 11.0894 19.7717 10.0655C19.6602 9.771 19.4673 9.51841 19.2179 9.34029C18.9685 9.16216 18.6741 9.06666 18.3726 9.0661H15.4805C11.2868 9.0661 7.8877 12.6792 7.8877 17.138C7.8877 21.5839 8.15216 25.9568 8.43004 30.4117Z" fill="url(#paint5_radial_2034_413)"/>
<path d="M8.43004 30.4117C8.71118 32.6635 9.76207 34.7309 11.3866 36.2279C13.0111 37.725 15.0983 38.5496 17.2587 38.5477H21.5462C23.7066 38.5496 25.7937 37.725 27.4183 36.2279C29.0428 34.7309 30.0937 32.6635 30.3749 30.4117C30.643 25.912 30.9123 21.4302 31.1122 16.933C31.0878 15.1008 29.7131 13.5889 27.9776 13.512H24.7966C23.7317 13.5102 22.6901 13.1836 21.7982 12.5719C20.9063 11.9601 20.2023 11.0894 19.7717 10.0655C19.6602 9.771 19.4673 9.51841 19.2179 9.34029C18.9685 9.16216 18.6741 9.06666 18.3726 9.0661H15.4805C11.2868 9.0661 7.8877 12.6792 7.8877 17.138C7.8877 21.5839 8.15216 25.9568 8.43004 30.4117Z" fill="url(#paint6_radial_2034_413)"/>
<path d="M8.43004 30.4117C8.71118 32.6635 9.76207 34.7309 11.3866 36.2279C13.0111 37.725 15.0983 38.5496 17.2587 38.5477H21.5462C23.7066 38.5496 25.7937 37.725 27.4183 36.2279C29.0428 34.7309 30.0937 32.6635 30.3749 30.4117C30.643 25.912 30.9123 21.4302 31.1122 16.933C31.0878 15.1008 29.7131 13.5889 27.9776 13.512H24.7966C23.7317 13.5102 22.6901 13.1836 21.7982 12.5719C20.9063 11.9601 20.2023 11.0894 19.7717 10.0655C19.6602 9.771 19.4673 9.51841 19.2179 9.34029C18.9685 9.16216 18.6741 9.06666 18.3726 9.0661H15.4805C11.2868 9.0661 7.8877 12.6792 7.8877 17.138C7.8877 21.5839 8.15216 25.9568 8.43004 30.4117Z" fill="url(#paint7_radial_2034_413)"/>
<path d="M8.43004 30.4117C8.71118 32.6635 9.76207 34.7309 11.3866 36.2279C13.0111 37.725 15.0983 38.5496 17.2587 38.5477H21.5462C23.7066 38.5496 25.7937 37.725 27.4183 36.2279C29.0428 34.7309 30.0937 32.6635 30.3749 30.4117C30.643 25.912 30.9123 21.4302 31.1122 16.933C31.0878 15.1008 29.7131 13.5889 27.9776 13.512H24.7966C23.7317 13.5102 22.6901 13.1836 21.7982 12.5719C20.9063 11.9601 20.2023 11.0894 19.7717 10.0655C19.6602 9.771 19.4673 9.51841 19.2179 9.34029C18.9685 9.16216 18.6741 9.06666 18.3726 9.0661H15.4805C11.2868 9.0661 7.8877 12.6792 7.8877 17.138C7.8877 21.5839 8.15216 25.9568 8.43004 30.4117Z" fill="url(#paint8_radial_2034_413)"/>
<path d="M8.43004 30.4117C8.71118 32.6635 9.76207 34.7309 11.3866 36.2279C13.0111 37.725 15.0983 38.5496 17.2587 38.5477H21.5462C23.7066 38.5496 25.7937 37.725 27.4183 36.2279C29.0428 34.7309 30.0937 32.6635 30.3749 30.4117C30.643 25.912 30.9123 21.4302 31.1122 16.933C31.0878 15.1008 29.7131 13.5889 27.9776 13.512H24.7966C23.7317 13.5102 22.6901 13.1836 21.7982 12.5719C20.9063 11.9601 20.2023 11.0894 19.7717 10.0655C19.6602 9.771 19.4673 9.51841 19.2179 9.34029C18.9685 9.16216 18.6741 9.06666 18.3726 9.0661H15.4805C11.2868 9.0661 7.8877 12.6792 7.8877 17.138C7.8877 21.5839 8.15216 25.9568 8.43004 30.4117Z" fill="url(#paint9_radial_2034_413)"/>
<path d="M8.43004 30.4117C8.71118 32.6635 9.76207 34.7309 11.3866 36.2279C13.0111 37.725 15.0983 38.5496 17.2587 38.5477H21.5462C23.7066 38.5496 25.7937 37.725 27.4183 36.2279C29.0428 34.7309 30.0937 32.6635 30.3749 30.4117C30.643 25.912 30.9123 21.4302 31.1122 16.933C31.0878 15.1008 29.7131 13.5889 27.9776 13.512H24.7966C23.7317 13.5102 22.6901 13.1836 21.7982 12.5719C20.9063 11.9601 20.2023 11.0894 19.7717 10.0655C19.6602 9.771 19.4673 9.51841 19.2179 9.34029C18.9685 9.16216 18.6741 9.06666 18.3726 9.0661H15.4805C11.2868 9.0661 7.8877 12.6792 7.8877 17.138C7.8877 21.5839 8.15216 25.9568 8.43004 30.4117Z" fill="url(#paint10_radial_2034_413)"/>
<path d="M24.4421 13.3942H15.0065C14.7279 13.3942 14.502 13.6316 14.502 13.9246C14.502 14.2176 14.7279 14.455 15.0065 14.455H24.4421C24.7207 14.455 24.9466 14.2176 24.9466 13.9246C24.9466 13.6316 24.7207 13.3942 24.4421 13.3942Z" fill="url(#paint11_linear_2034_413)"/>
<path d="M24.4421 13.3942H15.0065C14.7279 13.3942 14.502 13.6316 14.502 13.9246C14.502 14.2176 14.7279 14.455 15.0065 14.455H24.4421C24.7207 14.455 24.9466 14.2176 24.9466 13.9246C24.9466 13.6316 24.7207 13.3942 24.4421 13.3942Z" fill="url(#paint12_radial_2034_413)"/>
<path d="M22.6806 10.2103H16.7673C16.4886 10.2103 16.2627 10.4478 16.2627 10.7407C16.2627 11.0337 16.4886 11.2711 16.7673 11.2711H22.6806C22.9593 11.2711 23.1852 11.0337 23.1852 10.7407C23.1852 10.4478 22.9593 10.2103 22.6806 10.2103Z" fill="url(#paint13_linear_2034_413)"/>
<path fill-rule="evenodd" clip-rule="evenodd" d="M16.2947 24.2259C16.3952 24.3363 16.4498 24.4842 16.4467 24.637C16.4435 24.7898 16.3827 24.935 16.2777 25.0408C15.193 26.1337 13.8645 26.1811 13.3746 26.1811C13.2292 26.1811 13.0897 26.1203 12.9868 26.0122C12.884 25.9041 12.8262 25.7574 12.8262 25.6045C12.8262 25.4516 12.884 25.3049 12.9868 25.1968C13.0897 25.0887 13.2292 25.0279 13.3746 25.0279C13.8 25.0279 14.7555 24.9767 15.5196 24.2079C15.6247 24.1023 15.7654 24.0449 15.9107 24.0482C16.0561 24.0516 16.1942 24.1155 16.2947 24.2259Z" fill="#E29C93"/>
<path fill-rule="evenodd" clip-rule="evenodd" d="M22.2727 24.2259C22.1721 24.3362 22.1173 24.4839 22.1202 24.6367C22.1232 24.7895 22.1838 24.9348 22.2886 25.0407C23.3733 26.1336 24.7017 26.181 25.1917 26.181C25.3371 26.181 25.4766 26.1203 25.5795 26.0122C25.6823 25.904 25.7401 25.7574 25.7401 25.6045C25.7401 25.4516 25.6823 25.3049 25.5795 25.1968C25.4766 25.0887 25.3371 25.0279 25.1917 25.0279C24.7663 25.0279 23.8108 24.9767 23.0467 24.2079C22.9416 24.1027 22.8012 24.0455 22.6562 24.0488C22.5111 24.0522 22.3733 24.1159 22.2727 24.2259Z" fill="#FFBCAE"/>
<g filter="url(#filter2_f_2034_413)">
<path d="M18.4806 22.5564L17.1388 26.9472C16.9085 27.8505 17.4593 28.7538 18.2393 28.7538H19.9017C20.6817 28.7538 21.2314 27.8364 21.0022 26.9472L19.8786 22.5564C19.6372 21.5826 18.7329 21.5826 18.4806 22.5564Z" fill="#D69790"/>
</g>
<g filter="url(#filter3_f_2034_413)">
<path d="M18.5249 22.1015L17.3171 26.4924C17.0709 27.3957 17.662 28.2989 18.4993 28.2989H20.2859C21.1244 28.2989 21.7155 27.3816 21.4694 26.4924L20.2628 22.1002C20.0032 21.1265 18.7954 21.1278 18.5249 22.1015Z" fill="#F6BFAB"/>
<path d="M18.5249 22.1015L17.3171 26.4924C17.0709 27.3957 17.662 28.2989 18.4993 28.2989H20.2859C21.1244 28.2989 21.7155 27.3816 21.4694 26.4924L20.2628 22.1002C20.0032 21.1265 18.7954 21.1278 18.5249 22.1015Z" fill="url(#paint14_linear_2034_413)"/>
<path d="M18.5249 22.1015L17.3171 26.4924C17.0709 27.3957 17.662 28.2989 18.4993 28.2989H20.2859C21.1244 28.2989 21.7155 27.3816 21.4694 26.4924L20.2628 22.1002C20.0032 21.1265 18.7954 21.1278 18.5249 22.1015Z" fill="url(#paint15_radial_2034_413)"/>
<path d="M18.5249 22.1015L17.3171 26.4924C17.0709 27.3957 17.662 28.2989 18.4993 28.2989H20.2859C21.1244 28.2989 21.7155 27.3816 21.4694 26.4924L20.2628 22.1002C20.0032 21.1265 18.7954 21.1278 18.5249 22.1015Z" fill="url(#paint16_linear_2034_413)"/>
<path d="M18.5249 22.1015L17.3171 26.4924C17.0709 27.3957 17.662 28.2989 18.4993 28.2989H20.2859C21.1244 28.2989 21.7155 27.3816 21.4694 26.4924L20.2628 22.1002C20.0032 21.1265 18.7954 21.1278 18.5249 22.1015Z" fill="url(#paint17_radial_2034_413)"/>
<path d="M18.5249 22.1015L17.3171 26.4924C17.0709 27.3957 17.662 28.2989 18.4993 28.2989H20.2859C21.1244 28.2989 21.7155 27.3816 21.4694 26.4924L20.2628 22.1002C20.0032 21.1265 18.7954 21.1278 18.5249 22.1015Z" fill="url(#paint18_linear_2034_413)"/>
</g>
<g filter="url(#filter4_f_2034_413)">
<path d="M16.2874 29.8569C16.2022 29.8103 16.1048 29.7942 16.0101 29.8114C15.9154 29.8285 15.8287 29.8778 15.7633 29.9518C15.6962 30.0223 15.655 30.1155 15.647 30.215C15.6389 30.3144 15.6646 30.4136 15.7194 30.495C16.1216 31.1314 16.6678 31.653 17.3088 32.013C17.9499 32.373 18.6659 32.5602 19.3927 32.5578C20.1198 32.5604 20.836 32.3733 21.4773 32.0133C22.1186 31.6533 22.6649 31.1316 23.0673 30.495C23.1223 30.4126 23.148 30.3125 23.1397 30.2122C23.1315 30.1119 23.0898 30.0179 23.0222 29.9466C22.9562 29.8743 22.8697 29.8264 22.7756 29.8103C22.6815 29.7941 22.585 29.8105 22.5006 29.8569C21.5394 30.3742 20.4724 30.6397 19.3927 30.6308C18.2544 30.6308 17.1844 30.3489 16.2874 29.8569Z" stroke="url(#paint19_linear_2034_413)" stroke-width="0.15"/>
</g>
<path d="M19.3926 30.7269C18.2985 30.7341 17.2188 30.4647 16.2445 29.9415C15.9337 29.775 15.5986 30.144 15.7948 30.4412C16.1887 31.0647 16.7235 31.5756 17.3514 31.9282C17.9793 32.2809 18.6807 32.4642 19.3926 32.4618C20.1044 32.4642 20.8058 32.2809 21.4337 31.9282C22.0616 31.5756 22.5964 31.0647 22.9903 30.4412C23.1865 30.1324 22.8526 29.775 22.5406 29.9415C21.5667 30.4661 20.4868 30.7356 19.3926 30.7269Z" fill="url(#paint20_radial_2034_413)"/>
<g filter="url(#filter5_i_2034_413)">
<path d="M30.4251 7.93861C31.5938 8.36142 32.6432 9.21986 33.305 10.4499C33.8105 11.3772 34.0562 12.436 34.0135 13.5038C33.9708 14.5717 33.6415 15.6051 33.0637 16.4845C32.6648 17.1004 32.4509 17.8279 32.4494 18.573V21.4109C31.9918 21.0891 31.4755 20.8709 30.9333 20.7703L31.1112 16.933C31.0868 15.1008 29.7133 13.5889 27.979 13.512H24.7969C23.7319 13.5102 22.6903 13.1836 21.7984 12.5719C20.9065 11.9601 20.2026 11.0895 19.772 10.0655C19.6604 9.77101 19.4675 9.51842 19.2181 9.34029C18.9688 9.16216 18.6743 9.06666 18.3728 9.06611H15.4808C11.287 9.06611 7.88794 12.6792 7.88794 17.138L7.95863 20.8113C7.38094 20.901 6.77766 21.1034 6.32184 21.4404V18.573C6.32184 17.8299 6.10491 17.0995 5.70759 16.4845C5.15704 15.6321 4.83611 14.639 4.77882 13.6104C4.72153 12.5819 4.93002 11.5562 5.38219 10.642C6.0064 9.38446 7.06138 8.42282 8.334 7.95142C9.63849 7.46833 10.7478 6.53302 11.4796 5.29923C11.9531 4.49696 12.6132 3.83478 13.3978 3.37521C14.1823 2.91564 15.0653 2.67385 15.9634 2.67267C16.6983 2.67267 17.3966 2.83923 18.0474 3.12111C18.9152 3.51829 19.8914 3.51829 20.7592 3.12111C21.4149 2.82786 22.1197 2.67539 22.8323 2.67267C24.7481 2.67267 26.4239 3.76173 27.3514 5.37611C28.0509 6.59329 29.1478 7.47736 30.4251 7.93861Z" fill="url(#paint21_linear_2034_413)"/>
<path d="M30.4251 7.93861C31.5938 8.36142 32.6432 9.21986 33.305 10.4499C33.8105 11.3772 34.0562 12.436 34.0135 13.5038C33.9708 14.5717 33.6415 15.6051 33.0637 16.4845C32.6648 17.1004 32.4509 17.8279 32.4494 18.573V21.4109C31.9918 21.0891 31.4755 20.8709 30.9333 20.7703L31.1112 16.933C31.0868 15.1008 29.7133 13.5889 27.979 13.512H24.7969C23.7319 13.5102 22.6903 13.1836 21.7984 12.5719C20.9065 11.9601 20.2026 11.0895 19.772 10.0655C19.6604 9.77101 19.4675 9.51842 19.2181 9.34029C18.9688 9.16216 18.6743 9.06666 18.3728 9.06611H15.4808C11.287 9.06611 7.88794 12.6792 7.88794 17.138L7.95863 20.8113C7.38094 20.901 6.77766 21.1034 6.32184 21.4404V18.573C6.32184 17.8299 6.10491 17.0995 5.70759 16.4845C5.15704 15.6321 4.83611 14.639 4.77882 13.6104C4.72153 12.5819 4.93002 11.5562 5.38219 10.642C6.0064 9.38446 7.06138 8.42282 8.334 7.95142C9.63849 7.46833 10.7478 6.53302 11.4796 5.29923C11.9531 4.49696 12.6132 3.83478 13.3978 3.37521C14.1823 2.91564 15.0653 2.67385 15.9634 2.67267C16.6983 2.67267 17.3966 2.83923 18.0474 3.12111C18.9152 3.51829 19.8914 3.51829 20.7592 3.12111C21.4149 2.82786 22.1197 2.67539 22.8323 2.67267C24.7481 2.67267 26.4239 3.76173 27.3514 5.37611C28.0509 6.59329 29.1478 7.47736 30.4251 7.93861Z" fill="url(#paint22_radial_2034_413)"/>
<path d="M30.4251 7.93861C31.5938 8.36142 32.6432 9.21986 33.305 10.4499C33.8105 11.3772 34.0562 12.436 34.0135 13.5038C33.9708 14.5717 33.6415 15.6051 33.0637 16.4845C32.6648 17.1004 32.4509 17.8279 32.4494 18.573V21.4109C31.9918 21.0891 31.4755 20.8709 30.9333 20.7703L31.1112 16.933C31.0868 15.1008 29.7133 13.5889 27.979 13.512H24.7969C23.7319 13.5102 22.6903 13.1836 21.7984 12.5719C20.9065 11.9601 20.2026 11.0895 19.772 10.0655C19.6604 9.77101 19.4675 9.51842 19.2181 9.34029C18.9688 9.16216 18.6743 9.06666 18.3728 9.06611H15.4808C11.287 9.06611 7.88794 12.6792 7.88794 17.138L7.95863 20.8113C7.38094 20.901 6.77766 21.1034 6.32184 21.4404V18.573C6.32184 17.8299 6.10491 17.0995 5.70759 16.4845C5.15704 15.6321 4.83611 14.639 4.77882 13.6104C4.72153 12.5819 4.93002 11.5562 5.38219 10.642C6.0064 9.38446 7.06138 8.42282 8.334 7.95142C9.63849 7.46833 10.7478 6.53302 11.4796 5.29923C11.9531 4.49696 12.6132 3.83478 13.3978 3.37521C14.1823 2.91564 15.0653 2.67385 15.9634 2.67267C16.6983 2.67267 17.3966 2.83923 18.0474 3.12111C18.9152 3.51829 19.8914 3.51829 20.7592 3.12111C21.4149 2.82786 22.1197 2.67539 22.8323 2.67267C24.7481 2.67267 26.4239 3.76173 27.3514 5.37611C28.0509 6.59329 29.1478 7.47736 30.4251 7.93861Z" fill="url(#paint23_radial_2034_413)"/>
<path d="M30.4251 7.93861C31.5938 8.36142 32.6432 9.21986 33.305 10.4499C33.8105 11.3772 34.0562 12.436 34.0135 13.5038C33.9708 14.5717 33.6415 15.6051 33.0637 16.4845C32.6648 17.1004 32.4509 17.8279 32.4494 18.573V21.4109C31.9918 21.0891 31.4755 20.8709 30.9333 20.7703L31.1112 16.933C31.0868 15.1008 29.7133 13.5889 27.979 13.512H24.7969C23.7319 13.5102 22.6903 13.1836 21.7984 12.5719C20.9065 11.9601 20.2026 11.0895 19.772 10.0655C19.6604 9.77101 19.4675 9.51842 19.2181 9.34029C18.9688 9.16216 18.6743 9.06666 18.3728 9.06611H15.4808C11.287 9.06611 7.88794 12.6792 7.88794 17.138L7.95863 20.8113C7.38094 20.901 6.77766 21.1034 6.32184 21.4404V18.573C6.32184 17.8299 6.10491 17.0995 5.70759 16.4845C5.15704 15.6321 4.83611 14.639 4.77882 13.6104C4.72153 12.5819 4.93002 11.5562 5.38219 10.642C6.0064 9.38446 7.06138 8.42282 8.334 7.95142C9.63849 7.46833 10.7478 6.53302 11.4796 5.29923C11.9531 4.49696 12.6132 3.83478 13.3978 3.37521C14.1823 2.91564 15.0653 2.67385 15.9634 2.67267C16.6983 2.67267 17.3966 2.83923 18.0474 3.12111C18.9152 3.51829 19.8914 3.51829 20.7592 3.12111C21.4149 2.82786 22.1197 2.67539 22.8323 2.67267C24.7481 2.67267 26.4239 3.76173 27.3514 5.37611C28.0509 6.59329 29.1478 7.47736 30.4251 7.93861Z" fill="url(#paint24_radial_2034_413)"/>
<path d="M30.4251 7.93861C31.5938 8.36142 32.6432 9.21986 33.305 10.4499C33.8105 11.3772 34.0562 12.436 34.0135 13.5038C33.9708 14.5717 33.6415 15.6051 33.0637 16.4845C32.6648 17.1004 32.4509 17.8279 32.4494 18.573V21.4109C31.9918 21.0891 31.4755 20.8709 30.9333 20.7703L31.1112 16.933C31.0868 15.1008 29.7133 13.5889 27.979 13.512H24.7969C23.7319 13.5102 22.6903 13.1836 21.7984 12.5719C20.9065 11.9601 20.2026 11.0895 19.772 10.0655C19.6604 9.77101 19.4675 9.51842 19.2181 9.34029C18.9688 9.16216 18.6743 9.06666 18.3728 9.06611H15.4808C11.287 9.06611 7.88794 12.6792 7.88794 17.138L7.95863 20.8113C7.38094 20.901 6.77766 21.1034 6.32184 21.4404V18.573C6.32184 17.8299 6.10491 17.0995 5.70759 16.4845C5.15704 15.6321 4.83611 14.639 4.77882 13.6104C4.72153 12.5819 4.93002 11.5562 5.38219 10.642C6.0064 9.38446 7.06138 8.42282 8.334 7.95142C9.63849 7.46833 10.7478 6.53302 11.4796 5.29923C11.9531 4.49696 12.6132 3.83478 13.3978 3.37521C14.1823 2.91564 15.0653 2.67385 15.9634 2.67267C16.6983 2.67267 17.3966 2.83923 18.0474 3.12111C18.9152 3.51829 19.8914 3.51829 20.7592 3.12111C21.4149 2.82786 22.1197 2.67539 22.8323 2.67267C24.7481 2.67267 26.4239 3.76173 27.3514 5.37611C28.0509 6.59329 29.1478 7.47736 30.4251 7.93861Z" fill="url(#paint25_radial_2034_413)"/>
<path d="M30.4251 7.93861C31.5938 8.36142 32.6432 9.21986 33.305 10.4499C33.8105 11.3772 34.0562 12.436 34.0135 13.5038C33.9708 14.5717 33.6415 15.6051 33.0637 16.4845C32.6648 17.1004 32.4509 17.8279 32.4494 18.573V21.4109C31.9918 21.0891 31.4755 20.8709 30.9333 20.7703L31.1112 16.933C31.0868 15.1008 29.7133 13.5889 27.979 13.512H24.7969C23.7319 13.5102 22.6903 13.1836 21.7984 12.5719C20.9065 11.9601 20.2026 11.0895 19.772 10.0655C19.6604 9.77101 19.4675 9.51842 19.2181 9.34029C18.9688 9.16216 18.6743 9.06666 18.3728 9.06611H15.4808C11.287 9.06611 7.88794 12.6792 7.88794 17.138L7.95863 20.8113C7.38094 20.901 6.77766 21.1034 6.32184 21.4404V18.573C6.32184 17.8299 6.10491 17.0995 5.70759 16.4845C5.15704 15.6321 4.83611 14.639 4.77882 13.6104C4.72153 12.5819 4.93002 11.5562 5.38219 10.642C6.0064 9.38446 7.06138 8.42282 8.334 7.95142C9.63849 7.46833 10.7478 6.53302 11.4796 5.29923C11.9531 4.49696 12.6132 3.83478 13.3978 3.37521C14.1823 2.91564 15.0653 2.67385 15.9634 2.67267C16.6983 2.67267 17.3966 2.83923 18.0474 3.12111C18.9152 3.51829 19.8914 3.51829 20.7592 3.12111C21.4149 2.82786 22.1197 2.67539 22.8323 2.67267C24.7481 2.67267 26.4239 3.76173 27.3514 5.37611C28.0509 6.59329 29.1478 7.47736 30.4251 7.93861Z" fill="url(#paint26_radial_2034_413)"/>
</g>
<g filter="url(#filter6_i_2034_413)">
<path d="M27.8755 16.6896C27.477 16.3257 27.0151 15.9387 26.3131 15.7068C25.622 15.4775 24.7567 15.4173 23.5587 15.571C23.3965 15.5967 23.2502 15.6879 23.151 15.8252C23.0517 15.9624 23.0073 16.135 23.0271 16.3062C23.0469 16.4773 23.1295 16.6336 23.2572 16.7418C23.3849 16.85 23.5477 16.9016 23.711 16.8856C24.8043 16.7447 25.4746 16.8177 25.9353 16.9702C26.3862 17.1201 26.6909 17.3609 27.048 17.6877C27.1098 17.7484 27.1826 17.7954 27.262 17.8259C27.3415 17.8563 27.4259 17.8697 27.5104 17.8652C27.5949 17.8606 27.6776 17.8382 27.7537 17.7994C27.8297 17.7605 27.8976 17.7059 27.9531 17.6389C28.0087 17.5718 28.0509 17.4937 28.0771 17.4092C28.1034 17.3247 28.1132 17.2355 28.1059 17.1469C28.0987 17.0583 28.0745 16.9722 28.035 16.8936C27.9954 16.815 27.9411 16.7456 27.8755 16.6896Z" fill="#7F7C7D"/>
</g>
<g filter="url(#filter7_i_2034_413)">
<path d="M11.6429 16.4295C12.835 15.696 14.2232 15.3944 15.5941 15.571C15.678 15.5793 15.7595 15.6051 15.8337 15.647C15.9079 15.6889 15.9734 15.746 16.0263 15.8149C16.0791 15.8839 16.1183 15.9633 16.1415 16.0485C16.1646 16.1336 16.1713 16.2228 16.1611 16.3107C16.1509 16.3986 16.1241 16.4835 16.0821 16.5603C16.0402 16.6371 15.984 16.7043 15.917 16.7579C15.8499 16.8115 15.7733 16.8504 15.6917 16.8724C15.6101 16.8943 15.5251 16.8988 15.4418 16.8856C14.3487 16.7444 13.2418 16.9834 12.2901 17.5659C12.2193 17.6109 12.1501 17.6588 12.0829 17.7094L12.0756 17.7146C11.9434 17.8221 11.776 17.8701 11.6101 17.8478C11.4443 17.8256 11.2937 17.735 11.1914 17.5961C11.0891 17.4571 11.0435 17.2811 11.0646 17.1067C11.0858 16.9324 11.1719 16.7741 11.3041 16.6665L11.6429 16.4295Z" fill="#7F7C7D"/>
</g>
<g filter="url(#filter8_f_2034_413)">
<path d="M19.9213 10.3922C19.8682 10.2849 19.8182 10.176 19.7714 10.0655C19.6598 9.77102 19.4669 9.51843 19.2176 9.3403C18.9682 9.16217 18.6737 9.06667 18.3722 9.06612H15.4802C11.2864 9.06612 7.88734 12.6792 7.88734 17.138V17.7953C7.11588 17.1777 6.14453 15.8734 6.14453 13.7645C6.14453 11.2032 7.92025 9.90918 9.05247 9.08406C9.373 8.85087 9.64113 8.65484 9.80444 8.47931L10.0311 8.22818C10.8258 7.34412 12.2407 5.76562 14.7111 5.07631C16.2943 4.63427 17.9043 4.62915 18.9902 4.73037C19.5642 4.78546 19.9688 5.30949 19.9688 5.91424V10.3602L19.9213 10.3922Z" fill="url(#paint27_radial_2034_413)"/>
<path d="M19.9213 10.3922C19.8682 10.2849 19.8182 10.176 19.7714 10.0655C19.6598 9.77102 19.4669 9.51843 19.2176 9.3403C18.9682 9.16217 18.6737 9.06667 18.3722 9.06612H15.4802C11.2864 9.06612 7.88734 12.6792 7.88734 17.138V17.7953C7.11588 17.1777 6.14453 15.8734 6.14453 13.7645C6.14453 11.2032 7.92025 9.90918 9.05247 9.08406C9.373 8.85087 9.64113 8.65484 9.80444 8.47931L10.0311 8.22818C10.8258 7.34412 12.2407 5.76562 14.7111 5.07631C16.2943 4.63427 17.9043 4.62915 18.9902 4.73037C19.5642 4.78546 19.9688 5.30949 19.9688 5.91424V10.3602L19.9213 10.3922Z" fill="url(#paint28_radial_2034_413)"/>
</g>
<g filter="url(#filter9_f_2034_413)">
<path d="M31.2365 18.1963L31.1719 16.6883C31.1476 14.865 29.7131 13.3596 27.9788 13.284H24.7966C23.8093 13.2836 22.8403 13.004 21.9912 12.4745C21.142 11.945 20.444 11.185 19.9704 10.2743C19.9704 10.2743 19.5048 9.14041 19.4025 7.48119C19.3232 6.19994 20.4262 5.28 21.6389 5.44913C24.1568 5.79891 27.6522 6.62532 30.0543 8.27301C34.0177 10.9905 33.3242 15.89 31.2365 18.1963Z" fill="url(#paint29_radial_2034_413)"/>
<path d="M31.2365 18.1963L31.1719 16.6883C31.1476 14.865 29.7131 13.3596 27.9788 13.284H24.7966C23.8093 13.2836 22.8403 13.004 21.9912 12.4745C21.142 11.945 20.444 11.185 19.9704 10.2743C19.9704 10.2743 19.5048 9.14041 19.4025 7.48119C19.3232 6.19994 20.4262 5.28 21.6389 5.44913C24.1568 5.79891 27.6522 6.62532 30.0543 8.27301C34.0177 10.9905 33.3242 15.89 31.2365 18.1963Z" fill="url(#paint30_radial_2034_413)"/>
<path d="M31.2365 18.1963L31.1719 16.6883C31.1476 14.865 29.7131 13.3596 27.9788 13.284H24.7966C23.8093 13.2836 22.8403 13.004 21.9912 12.4745C21.142 11.945 20.444 11.185 19.9704 10.2743C19.9704 10.2743 19.5048 9.14041 19.4025 7.48119C19.3232 6.19994 20.4262 5.28 21.6389 5.44913C24.1568 5.79891 27.6522 6.62532 30.0543 8.27301C34.0177 10.9905 33.3242 15.89 31.2365 18.1963Z" fill="url(#paint31_radial_2034_413)"/>
<path d="M31.2365 18.1963L31.1719 16.6883C31.1476 14.865 29.7131 13.3596 27.9788 13.284H24.7966C23.8093 13.2836 22.8403 13.004 21.9912 12.4745C21.142 11.945 20.444 11.185 19.9704 10.2743C19.9704 10.2743 19.5048 9.14041 19.4025 7.48119C19.3232 6.19994 20.4262 5.28 21.6389 5.44913C24.1568 5.79891 27.6522 6.62532 30.0543 8.27301C34.0177 10.9905 33.3242 15.89 31.2365 18.1963Z" fill="url(#paint32_radial_2034_413)"/>
<path d="M31.2365 18.1963L31.1719 16.6883C31.1476 14.865 29.7131 13.3596 27.9788 13.284H24.7966C23.8093 13.2836 22.8403 13.004 21.9912 12.4745C21.142 11.945 20.444 11.185 19.9704 10.2743C19.9704 10.2743 19.5048 9.14041 19.4025 7.48119C19.3232 6.19994 20.4262 5.28 21.6389 5.44913C24.1568 5.79891 27.6522 6.62532 30.0543 8.27301C34.0177 10.9905 33.3242 15.89 31.2365 18.1963Z" fill="url(#paint33_radial_2034_413)"/>
</g>
<path d="M24.8257 19.8299C26.3102 19.8299 27.5631 20.9061 27.9043 22.3591C27.9276 22.456 27.9294 22.5573 27.9097 22.6551C27.8899 22.753 27.8491 22.8447 27.7904 22.9234C27.7317 23.0021 27.6566 23.0656 27.571 23.109C27.4853 23.1524 27.3913 23.1746 27.2962 23.174H22.2262C22.1494 23.1739 22.0736 23.1562 22.004 23.122C21.9345 23.0878 21.873 23.0379 21.8238 22.976C21.7746 22.914 21.739 22.8414 21.7194 22.7634C21.6999 22.6854 21.6969 22.6038 21.7106 22.5244C21.8526 21.7654 22.2409 21.0819 22.809 20.5904C23.3772 20.099 24.09 19.8302 24.8257 19.8299Z" fill="white"/>
<path d="M24.3561 20.4795C24.6677 20.48 24.975 20.5559 25.2542 20.7014C25.5334 20.847 25.7769 21.0582 25.9659 21.3187C26.1548 21.5791 26.2842 21.8819 26.3438 22.2034C26.4034 22.525 26.3918 22.8566 26.3098 23.1727H22.3915C22.3441 22.9897 22.3195 22.8011 22.3184 22.6115C22.3203 22.0449 22.5359 21.5023 22.9179 21.1026C23.2999 20.7029 23.8172 20.4788 24.3561 20.4795Z" fill="url(#paint34_radial_2034_413)"/>
<path d="M23.1954 22.6115C23.1954 21.9324 23.7109 21.3904 24.3569 21.3904C25.0016 21.3904 25.5171 21.9324 25.5171 22.6115C25.5171 22.8152 25.472 23.0087 25.3879 23.1727H23.3331C23.2405 23.0018 23.193 22.8081 23.1954 22.6115Z" fill="black"/>
<g filter="url(#filter10_f_2034_413)">
<path d="M24.2065 20.9305C24.3515 21.1329 24.048 21.3802 23.7068 21.6505C23.3619 21.9196 23.1071 22.1105 22.9633 21.9068C22.8183 21.7044 22.9804 21.3213 23.3229 21.0509C23.6665 20.7819 24.0626 20.7268 24.2065 20.9292" fill="#C7A7A3"/>
<path d="M24.2065 20.9305C24.3515 21.1329 24.048 21.3802 23.7068 21.6505C23.3619 21.9196 23.1071 22.1105 22.9633 21.9068C22.8183 21.7044 22.9804 21.3213 23.3229 21.0509C23.6665 20.7819 24.0626 20.7268 24.2065 20.9292" fill="url(#paint35_radial_2034_413)"/>
</g>
<g filter="url(#filter11_f_2034_413)">
<path d="M26.1623 22.3309C26.1019 21.9132 25.9176 21.5263 25.6358 21.2252L25.0459 21.9068L25.3116 22.4513L26.1623 22.3309Z" fill="url(#paint36_linear_2034_413)"/>
</g>
<path d="M13.9608 19.8299C12.4763 19.8299 11.2222 20.9061 10.8822 22.3591C10.8589 22.456 10.8571 22.5573 10.8768 22.6551C10.8966 22.753 10.9374 22.8447 10.9961 22.9234C11.0548 23.0021 11.1299 23.0656 11.2156 23.109C11.3012 23.1524 11.3952 23.1746 11.4904 23.174H16.5604C16.6371 23.1739 16.713 23.1562 16.7825 23.122C16.852 23.0878 16.9135 23.0379 16.9627 22.976C17.0119 22.914 17.0475 22.8414 17.0671 22.7634C17.0866 22.6854 17.0896 22.6038 17.0759 22.5244C16.9326 21.7661 16.544 21.0834 15.9761 20.5922C15.4083 20.101 14.6961 19.8316 13.9608 19.8299Z" fill="white"/>
<path d="M14.4298 20.4795C14.1181 20.4799 13.8106 20.5558 13.5313 20.7015C13.252 20.8471 13.0084 21.0584 12.8194 21.319C12.6304 21.5797 12.5012 21.8826 12.4416 22.2043C12.3821 22.526 12.3939 22.8578 12.4761 23.174H16.3932C16.4395 22.9895 16.4676 22.805 16.4676 22.6102C16.4637 22.0446 16.2476 21.5034 15.8662 21.1044C15.4849 20.7054 14.9678 20.4808 14.4298 20.4795Z" fill="url(#paint37_radial_2034_413)"/>
<path d="M15.5925 22.6115C15.5931 22.4509 15.5635 22.2919 15.5054 22.1434C15.4472 21.995 15.3617 21.8601 15.2537 21.7466C15.1457 21.6331 15.0175 21.5431 14.8762 21.482C14.735 21.4209 14.5837 21.3898 14.431 21.3905C14.2783 21.3899 14.1271 21.4212 13.986 21.4824C13.8448 21.5435 13.7166 21.6335 13.6086 21.747C13.5007 21.8604 13.4152 21.9952 13.357 22.1436C13.2988 22.292 13.2691 22.451 13.2695 22.6115C13.2695 22.8152 13.3146 23.0087 13.3975 23.174H15.4535C15.5427 23.0007 15.5904 22.8072 15.5925 22.6102" fill="black"/>
<g filter="url(#filter12_f_2034_413)">
<path d="M16.282 22.3603C16.282 21.6723 15.7495 21.2123 15.6056 21.074L14.9512 21.7402L15.3534 22.6025L16.282 22.3603Z" fill="url(#paint38_linear_2034_413)"/>
</g>
<g filter="url(#filter13_f_2034_413)">
<path d="M14.028 21.8071C14.4598 21.5666 14.7158 21.1851 14.5999 20.955C14.4839 20.7249 14.0398 20.7333 13.608 20.9738C13.1762 21.2143 12.9202 21.5958 13.0361 21.8259C13.1521 22.056 13.5962 22.0476 14.028 21.8071Z" fill="#C7A7A3" fill-opacity="0.9"/>
<path d="M14.028 21.8071C14.4598 21.5666 14.7158 21.1851 14.5999 20.955C14.4839 20.7249 14.0398 20.7333 13.608 20.9738C13.1762 21.2143 12.9202 21.5958 13.0361 21.8259C13.1521 22.056 13.5962 22.0476 14.028 21.8071Z" fill="url(#paint39_radial_2034_413)"/>
</g>
<path d="M30.5771 27.0113C30.7271 24.468 30.8696 21.9299 30.9964 19.3879C31.8796 19.5505 32.6752 20.0486 33.2319 20.7876C33.7886 21.5265 34.0676 22.4548 34.0158 23.3959C33.9641 24.3369 33.5852 25.2252 32.9512 25.8918C32.3172 26.5584 31.4723 26.9568 30.5771 27.0113Z" fill="url(#paint40_linear_2034_413)"/>
<path d="M30.5771 27.0113C30.7271 24.468 30.8696 21.9299 30.9964 19.3879C31.8796 19.5505 32.6752 20.0486 33.2319 20.7876C33.7886 21.5265 34.0676 22.4548 34.0158 23.3959C33.9641 24.3369 33.5852 25.2252 32.9512 25.8918C32.3172 26.5584 31.4723 26.9568 30.5771 27.0113Z" fill="url(#paint41_radial_2034_413)"/>
<path d="M30.5771 27.0113C30.7271 24.468 30.8696 21.9299 30.9964 19.3879C31.8796 19.5505 32.6752 20.0486 33.2319 20.7876C33.7886 21.5265 34.0676 22.4548 34.0158 23.3959C33.9641 24.3369 33.5852 25.2252 32.9512 25.8918C32.3172 26.5584 31.4723 26.9568 30.5771 27.0113Z" fill="url(#paint42_radial_2034_413)"/>
<path d="M30.5771 27.0113C30.7271 24.468 30.8696 21.9299 30.9964 19.3879C31.8796 19.5505 32.6752 20.0486 33.2319 20.7876C33.7886 21.5265 34.0676 22.4548 34.0158 23.3959C33.9641 24.3369 33.5852 25.2252 32.9512 25.8918C32.3172 26.5584 31.4723 26.9568 30.5771 27.0113Z" fill="url(#paint43_radial_2034_413)"/>
<path d="M7.93145 19.3661C6.15573 19.6287 4.76758 21.2342 4.76758 23.174C4.76774 24.1569 5.12609 25.1024 5.76896 25.8162C6.41183 26.5299 7.29036 26.9576 8.22395 27.0113C8.0777 24.4591 7.97777 21.9196 7.93145 19.3661Z" fill="url(#paint44_linear_2034_413)"/>
<path d="M7.93145 19.3661C6.15573 19.6287 4.76758 21.2342 4.76758 23.174C4.76774 24.1569 5.12609 25.1024 5.76896 25.8162C6.41183 26.5299 7.29036 26.9576 8.22395 27.0113C8.0777 24.4591 7.97777 21.9196 7.93145 19.3661Z" fill="url(#paint45_radial_2034_413)"/>
<g filter="url(#filter14_f_2034_413)">
<path d="M7.83736 20.9446C7.34077 21.0629 6.89951 21.3608 6.59066 21.7864C6.28181 22.212 6.12501 22.7381 6.14766 23.2729C6.1703 23.8076 6.37096 24.317 6.71456 24.712C7.05816 25.1071 7.52286 25.3626 8.02749 25.4341C7.94827 23.9363 7.88124 22.4424 7.83736 20.9446Z" fill="url(#paint46_radial_2034_413)"/>
</g>
<g filter="url(#filter15_f_2034_413)">
<path d="M30.7676 25.4712C30.8553 23.9568 30.9406 22.4411 31.0199 20.9254C31.5646 20.9998 32.0623 21.2885 32.4127 21.7333C32.7631 22.178 32.9401 22.7459 32.9081 23.3225C32.8761 23.899 32.6375 24.4414 32.2403 24.8403C31.8431 25.2393 31.3169 25.4652 30.7676 25.4725" fill="url(#paint47_linear_2034_413)"/>
</g>
<g filter="url(#filter16_f_2034_413)">
<path d="M11.7275 17.097C12.3125 16.6575 13.7677 15.8823 15.4886 16.1873" stroke="#9A979A" stroke-width="0.25" stroke-linecap="round"/>
</g>
<g filter="url(#filter17_f_2034_413)">
<path d="M27.4847 16.9868C26.8997 16.5473 25.4445 15.7722 23.7236 16.0771" stroke="#9A979A" stroke-width="0.25" stroke-linecap="round"/>
</g>
</g>
<defs>
<filter id="filter0_d_2034_413" x="-4" y="0" width="47" height="49" filterUnits="userSpaceOnUse" color-interpolation-filters="sRGB">
<feFlood flood-opacity="0" result="BackgroundImageFix"/>
<feColorMatrix in="SourceAlpha" type="matrix" values="0 0 0 0 0 0 0 0 0 0 0 0 0 0 0 0 0 0 127 0" result="hardAlpha"/>
<feOffset dy="4"/>
<feGaussianBlur stdDeviation="2"/>
<feComposite in2="hardAlpha" operator="out"/>
<feColorMatrix type="matrix" values="0 0 0 0 0 0 0 0 0 0 0 0 0 0 0 0 0 0 0.25 0"/>
<feBlend mode="normal" in2="BackgroundImageFix" result="effect1_dropShadow_2034_413"/>
<feBlend mode="normal" in="SourceGraphic" in2="effect1_dropShadow_2034_413" result="shape"/>
</filter>
<filter id="filter1_ii_2034_413" x="7.8877" y="9.0661" width="24.2246" height="29.6816" filterUnits="userSpaceOnUse" color-interpolation-filters="sRGB">
<feFlood flood-opacity="0" result="BackgroundImageFix"/>
<feBlend mode="normal" in="SourceGraphic" in2="BackgroundImageFix" result="shape"/>
<feColorMatrix in="SourceAlpha" type="matrix" values="0 0 0 0 0 0 0 0 0 0 0 0 0 0 0 0 0 0 127 0" result="hardAlpha"/>
<feOffset dx="1"/>
<feGaussianBlur stdDeviation="0.7"/>
<feComposite in2="hardAlpha" operator="arithmetic" k2="-1" k3="1"/>
<feColorMatrix type="matrix" values="0 0 0 0 0.913725 0 0 0 0 0.686275 0 0 0 0 0.592157 0 0 0 1 0"/>
<feBlend mode="normal" in2="shape" result="effect1_innerShadow_2034_413"/>
<feColorMatrix in="SourceAlpha" type="matrix" values="0 0 0 0 0 0 0 0 0 0 0 0 0 0 0 0 0 0 127 0" result="hardAlpha"/>
<feOffset dy="0.2"/>
<feGaussianBlur stdDeviation="0.375"/>
<feComposite in2="hardAlpha" operator="arithmetic" k2="-1" k3="1"/>
<feColorMatrix type="matrix" values="0 0 0 0 0.780392 0 0 0 0 0.568627 0 0 0 0 0.486275 0 0 0 1 0"/>
<feBlend mode="normal" in2="effect1_innerShadow_2034_413" result="effect2_innerShadow_2034_413"/>
</filter>
<filter id="filter2_f_2034_413" x="16.0859" y="20.826" width="5.96875" height="8.92773" filterUnits="userSpaceOnUse" color-interpolation-filters="sRGB">
<feFlood flood-opacity="0" result="BackgroundImageFix"/>
<feBlend mode="normal" in="SourceGraphic" in2="BackgroundImageFix" result="shape"/>
<feGaussianBlur stdDeviation="0.5" result="effect1_foregroundBlur_2034_413"/>
</filter>
<filter id="filter3_f_2034_413" x="17.0607" y="21.1705" width="4.66465" height="7.32841" filterUnits="userSpaceOnUse" color-interpolation-filters="sRGB">
<feFlood flood-opacity="0" result="BackgroundImageFix"/>
<feBlend mode="normal" in="SourceGraphic" in2="BackgroundImageFix" result="shape"/>
<feGaussianBlur stdDeviation="0.1" result="effect1_foregroundBlur_2034_413"/>
</filter>
<filter id="filter4_f_2034_413" x="15.4703" y="29.6292" width="7.84551" height="3.10369" filterUnits="userSpaceOnUse" color-interpolation-filters="sRGB">
<feFlood flood-opacity="0" result="BackgroundImageFix"/>
<feBlend mode="normal" in="SourceGraphic" in2="BackgroundImageFix" result="shape"/>
<feGaussianBlur stdDeviation="0.05" result="effect1_foregroundBlur_2034_413"/>
</filter>
<filter id="filter5_i_2034_413" x="4.76953" y="2.17267" width="29.249" height="19.2678" filterUnits="userSpaceOnUse" color-interpolation-filters="sRGB">
<feFlood flood-opacity="0" result="BackgroundImageFix"/>
<feBlend mode="normal" in="SourceGraphic" in2="BackgroundImageFix" result="shape"/>
<feColorMatrix in="SourceAlpha" type="matrix" values="0 0 0 0 0 0 0 0 0 0 0 0 0 0 0 0 0 0 127 0" result="hardAlpha"/>
<feOffset dy="-0.5"/>
<feGaussianBlur stdDeviation="0.625"/>
<feComposite in2="hardAlpha" operator="arithmetic" k2="-1" k3="1"/>
<feColorMatrix type="matrix" values="0 0 0 0 0.380392 0 0 0 0 0.341176 0 0 0 0 0.411765 0 0 0 1 0"/>
<feBlend mode="normal" in2="shape" result="effect1_innerShadow_2034_413"/>
</filter>
<filter id="filter6_i_2034_413" x="23.0225" y="15.286" width="5.18594" height="2.58007" filterUnits="userSpaceOnUse" color-interpolation-filters="sRGB">
<feFlood flood-opacity="0" result="BackgroundImageFix"/>
<feBlend mode="normal" in="SourceGraphic" in2="BackgroundImageFix" result="shape"/>
<feColorMatrix in="SourceAlpha" type="matrix" values="0 0 0 0 0 0 0 0 0 0 0 0 0 0 0 0 0 0 127 0" result="hardAlpha"/>
<feOffset dx="0.1" dy="-0.2"/>
<feGaussianBlur stdDeviation="0.125"/>
<feComposite in2="hardAlpha" operator="arithmetic" k2="-1" k3="1"/>
<feColorMatrix type="matrix" values="0 0 0 0 0.431373 0 0 0 0 0.384314 0 0 0 0 0.443137 0 0 0 1 0"/>
<feBlend mode="normal" in2="shape" result="effect1_innerShadow_2034_413"/>
</filter>
<filter id="filter7_i_2034_413" x="11.0596" y="15.3218" width="5.20645" height="2.53136" filterUnits="userSpaceOnUse" color-interpolation-filters="sRGB">
<feFlood flood-opacity="0" result="BackgroundImageFix"/>
<feBlend mode="normal" in="SourceGraphic" in2="BackgroundImageFix" result="shape"/>
<feColorMatrix in="SourceAlpha" type="matrix" values="0 0 0 0 0 0 0 0 0 0 0 0 0 0 0 0 0 0 127 0" result="hardAlpha"/>
<feOffset dx="0.1" dy="-0.2"/>
<feGaussianBlur stdDeviation="0.125"/>
<feComposite in2="hardAlpha" operator="arithmetic" k2="-1" k3="1"/>
<feColorMatrix type="matrix" values="0 0 0 0 0.431373 0 0 0 0 0.384314 0 0 0 0 0.443137 0 0 0 1 0"/>
<feBlend mode="normal" in2="shape" result="effect1_innerShadow_2034_413"/>
</filter>
<filter id="filter8_f_2034_413" x="5.64453" y="4.1767" width="14.8242" height="14.1186" filterUnits="userSpaceOnUse" color-interpolation-filters="sRGB">
<feFlood flood-opacity="0" result="BackgroundImageFix"/>
<feBlend mode="normal" in="SourceGraphic" in2="BackgroundImageFix" result="shape"/>
<feGaussianBlur stdDeviation="0.25" result="effect1_foregroundBlur_2034_413"/>
</filter>
<filter id="filter9_f_2034_413" x="18.8984" y="4.92908" width="14.5195" height="13.7672" filterUnits="userSpaceOnUse" color-interpolation-filters="sRGB">
<feFlood flood-opacity="0" result="BackgroundImageFix"/>
<feBlend mode="normal" in="SourceGraphic" in2="BackgroundImageFix" result="shape"/>
<feGaussianBlur stdDeviation="0.25" result="effect1_foregroundBlur_2034_413"/>
</filter>
<filter id="filter10_f_2034_413" x="22.8102" y="20.7071" width="1.53301" height="1.38512" filterUnits="userSpaceOnUse" color-interpolation-filters="sRGB">
<feFlood flood-opacity="0" result="BackgroundImageFix"/>
<feBlend mode="normal" in="SourceGraphic" in2="BackgroundImageFix" result="shape"/>
<feGaussianBlur stdDeviation="0.05" result="effect1_foregroundBlur_2034_413"/>
</filter>
<filter id="filter11_f_2034_413" x="24.8459" y="21.0252" width="1.51621" height="1.62614" filterUnits="userSpaceOnUse" color-interpolation-filters="sRGB">
<feFlood flood-opacity="0" result="BackgroundImageFix"/>
<feBlend mode="normal" in="SourceGraphic" in2="BackgroundImageFix" result="shape"/>
<feGaussianBlur stdDeviation="0.1" result="effect1_foregroundBlur_2034_413"/>
</filter>
<filter id="filter12_f_2034_413" x="14.7512" y="20.874" width="1.73105" height="1.9285" filterUnits="userSpaceOnUse" color-interpolation-filters="sRGB">
<feFlood flood-opacity="0" result="BackgroundImageFix"/>
<feBlend mode="normal" in="SourceGraphic" in2="BackgroundImageFix" result="shape"/>
<feGaussianBlur stdDeviation="0.1" result="effect1_foregroundBlur_2034_413"/>
</filter>
<filter id="filter13_f_2034_413" x="12.9078" y="20.6877" width="1.82012" height="1.40538" filterUnits="userSpaceOnUse" color-interpolation-filters="sRGB">
<feFlood flood-opacity="0" result="BackgroundImageFix"/>
<feBlend mode="normal" in="SourceGraphic" in2="BackgroundImageFix" result="shape"/>
<feGaussianBlur stdDeviation="0.05" result="effect1_foregroundBlur_2034_413"/>
</filter>
<filter id="filter14_f_2034_413" x="5.89551" y="20.6946" width="2.38184" height="4.9895" filterUnits="userSpaceOnUse" color-interpolation-filters="sRGB">
<feFlood flood-opacity="0" result="BackgroundImageFix"/>
<feBlend mode="normal" in="SourceGraphic" in2="BackgroundImageFix" result="shape"/>
<feGaussianBlur stdDeviation="0.125" result="effect1_foregroundBlur_2034_413"/>
</filter>
<filter id="filter15_f_2034_413" x="30.2676" y="20.4254" width="3.14453" height="5.54718" filterUnits="userSpaceOnUse" color-interpolation-filters="sRGB">
<feFlood flood-opacity="0" result="BackgroundImageFix"/>
<feBlend mode="normal" in="SourceGraphic" in2="BackgroundImageFix" result="shape"/>
<feGaussianBlur stdDeviation="0.25" result="effect1_foregroundBlur_2034_413"/>
</filter>
<filter id="filter16_f_2034_413" x="11.2025" y="15.593" width="4.81074" height="2.029" filterUnits="userSpaceOnUse" color-interpolation-filters="sRGB">
<feFlood flood-opacity="0" result="BackgroundImageFix"/>
<feBlend mode="normal" in="SourceGraphic" in2="BackgroundImageFix" result="shape"/>
<feGaussianBlur stdDeviation="0.2" result="effect1_foregroundBlur_2034_413"/>
</filter>
<filter id="filter17_f_2034_413" x="23.1986" y="15.4828" width="4.81074" height="2.029" filterUnits="userSpaceOnUse" color-interpolation-filters="sRGB">
<feFlood flood-opacity="0" result="BackgroundImageFix"/>
<feBlend mode="normal" in="SourceGraphic" in2="BackgroundImageFix" result="shape"/>
<feGaussianBlur stdDeviation="0.2" result="effect1_foregroundBlur_2034_413"/>
</filter>
<radialGradient id="paint0_radial_2034_413" cx="0" cy="0" r="1" gradientUnits="userSpaceOnUse" gradientTransform="translate(31.9994 26.0553) rotate(103.035) scale(7.76754 8.8241)">
<stop offset="0.28" stop-color="#B8B6BA"/>
<stop offset="1" stop-color="#8B8295"/>
</radialGradient>
<radialGradient id="paint1_radial_2034_413" cx="0" cy="0" r="1" gradientUnits="userSpaceOnUse" gradientTransform="translate(29.9738 26.7679) rotate(53.4318) scale(2.04032 1.75565)">
<stop stop-color="#8B878F"/>
<stop offset="1" stop-color="#8B878F" stop-opacity="0"/>
</radialGradient>
<radialGradient id="paint2_radial_2034_413" cx="0" cy="0" r="1" gradientUnits="userSpaceOnUse" gradientTransform="translate(6.78705 26.3361) rotate(65.6852) scale(7.02982 3.09371)">
<stop stop-color="#8C8589"/>
<stop offset="1" stop-color="#7C7081"/>
</radialGradient>
<radialGradient id="paint3_radial_2034_413" cx="0" cy="0" r="1" gradientUnits="userSpaceOnUse" gradientTransform="translate(25.7728 23.8069) rotate(180) scale(14.1949 26.3984)">
<stop stop-color="#FFDCC0"/>
<stop offset="1" stop-color="#D6A195"/>
</radialGradient>
<linearGradient id="paint4_linear_2034_413" x1="31.111" y1="27.8339" x2="28.5649" y2="27.7759" gradientUnits="userSpaceOnUse">
<stop stop-color="#FFD6BA"/>
<stop offset="1" stop-color="#FFD6BA" stop-opacity="0"/>
</linearGradient>
<radialGradient id="paint5_radial_2034_413" cx="0" cy="0" r="1" gradientUnits="userSpaceOnUse" gradientTransform="translate(22.9856 9.6811) rotate(94.2529) scale(30.5841 24.1057)">
<stop offset="0.767" stop-color="#B57997" stop-opacity="0"/>
<stop offset="1" stop-color="#B57997"/>
</radialGradient>
<radialGradient id="paint6_radial_2034_413" cx="0" cy="0" r="1" gradientUnits="userSpaceOnUse" gradientTransform="translate(24.9539 20.6717) rotate(-90) scale(2.74316 3.22907)">
<stop offset="0.325" stop-color="#F6B8A8"/>
<stop offset="1" stop-color="#F6B8A8" stop-opacity="0"/>
</radialGradient>
<radialGradient id="paint7_radial_2034_413" cx="0" cy="0" r="1" gradientUnits="userSpaceOnUse" gradientTransform="translate(14.1667 20.7819) rotate(-89.8042) scale(2.61401 2.70589)">
<stop offset="0.378" stop-color="#D39991"/>
<stop offset="1" stop-color="#D39991" stop-opacity="0"/>
</radialGradient>
<radialGradient id="paint8_radial_2034_413" cx="0" cy="0" r="1" gradientUnits="userSpaceOnUse" gradientTransform="translate(27.1927 26.1688) rotate(176.203) scale(19.3474 51.9359)">
<stop offset="0.836" stop-color="#E6AD97" stop-opacity="0"/>
<stop offset="1" stop-color="#E6AD97"/>
</radialGradient>
<radialGradient id="paint9_radial_2034_413" cx="0" cy="0" r="1" gradientUnits="userSpaceOnUse" gradientTransform="translate(6.96998 13.4749) rotate(-48.039) scale(10.5296 3.839)">
<stop offset="0.428" stop-color="#CC8874"/>
<stop offset="1" stop-color="#CC8874" stop-opacity="0"/>
</radialGradient>
<radialGradient id="paint10_radial_2034_413" cx="0" cy="0" r="1" gradientUnits="userSpaceOnUse" gradientTransform="translate(24.9088 11.9143) rotate(119.905) scale(7.94456 6.40208)">
<stop offset="0.078" stop-color="#F6C3B0"/>
<stop offset="1" stop-color="#F6C3B0" stop-opacity="0"/>
</radialGradient>
<linearGradient id="paint11_linear_2034_413" x1="12.675" y1="14.455" x2="27.5743" y2="14.455" gradientUnits="userSpaceOnUse">
<stop stop-color="#DA9C90"/>
<stop offset="1" stop-color="#D5988D"/>
</linearGradient>
<radialGradient id="paint12_radial_2034_413" cx="0" cy="0" r="1" gradientUnits="userSpaceOnUse" gradientTransform="translate(24.1843 12.6942) rotate(95.5722) scale(1.56893 2.79881)">
<stop offset="0.526" stop-color="#C0857B"/>
<stop offset="1" stop-color="#C0857B" stop-opacity="0"/>
</radialGradient>
<linearGradient id="paint13_linear_2034_413" x1="16.2627" y1="11.2711" x2="23.1852" y2="11.2711" gradientUnits="userSpaceOnUse">
<stop stop-color="#DA9E8F"/>
<stop offset="1" stop-color="#BE8477"/>
</linearGradient>
<linearGradient id="paint14_linear_2034_413" x1="21.2975" y1="25.42" x2="19.3923" y2="25.4953" gradientUnits="userSpaceOnUse">
<stop offset="0.36" stop-color="#FFDFC7"/>
<stop offset="1" stop-color="#FFDFC7" stop-opacity="0"/>
</linearGradient>
<radialGradient id="paint15_radial_2034_413" cx="0" cy="0" r="1" gradientUnits="userSpaceOnUse" gradientTransform="translate(20.4529 27.0574) rotate(90) scale(0.583097 1.74323)">
<stop stop-color="#FFDDC7"/>
<stop offset="1" stop-color="#FFDDC7" stop-opacity="0"/>
</radialGradient>
<linearGradient id="paint16_linear_2034_413" x1="19.3926" y1="28.1401" x2="19.3926" y2="27.0305" gradientUnits="userSpaceOnUse">
<stop stop-color="#D89793"/>
<stop offset="1" stop-color="#D89793" stop-opacity="0"/>
</linearGradient>
<radialGradient id="paint17_radial_2034_413" cx="0" cy="0" r="1" gradientUnits="userSpaceOnUse" gradientTransform="translate(20.7171 25.6978) rotate(154.266) scale(3.83698 6.36625)">
<stop offset="0.714" stop-color="#D3968C" stop-opacity="0"/>
<stop offset="1" stop-color="#D3968C"/>
</radialGradient>
<linearGradient id="paint18_linear_2034_413" x1="19.3926" y1="21.3712" x2="19.3926" y2="22.9843" gradientUnits="userSpaceOnUse">
<stop stop-color="#E8BBA8"/>
<stop offset="1" stop-color="#E8BBA8" stop-opacity="0"/>
</linearGradient>
<linearGradient id="paint19_linear_2034_413" x1="16.6627" y1="31.8929" x2="17.4523" y2="29.9255" gradientUnits="userSpaceOnUse">
<stop stop-color="#E1ACA6"/>
<stop offset="1" stop-color="#E1ACA6" stop-opacity="0"/>
</linearGradient>
<radialGradient id="paint20_radial_2034_413" cx="0" cy="0" r="1" gradientUnits="userSpaceOnUse" gradientTransform="translate(19.3926 32.2619) rotate(-90) scale(1.72168 6.58887)">
<stop stop-color="#88014E"/>
<stop offset="1" stop-color="#86004D"/>
</radialGradient>
<linearGradient id="paint21_linear_2034_413" x1="31.5804" y1="10.2807" x2="8.57653" y2="10.2807" gradientUnits="userSpaceOnUse">
<stop stop-color="#BEBEBE"/>
<stop offset="1" stop-color="#848180"/>
</linearGradient>
<radialGradient id="paint22_radial_2034_413" cx="0" cy="0" r="1" gradientUnits="userSpaceOnUse" gradientTransform="translate(7.51013 20.0285) rotate(-90) scale(8.6776 14.625)">
<stop offset="0.216" stop-color="#857F81"/>
<stop offset="1" stop-color="#857F81" stop-opacity="0"/>
</radialGradient>
<radialGradient id="paint23_radial_2034_413" cx="0" cy="0" r="1" gradientUnits="userSpaceOnUse" gradientTransform="translate(30.4385 20.0285) rotate(-90) scale(8.6776 14.625)">
<stop stop-color="#9E9C9F"/>
<stop offset="1" stop-color="#9E9C9F" stop-opacity="0"/>
</radialGradient>
<radialGradient id="paint24_radial_2034_413" cx="0" cy="0" r="1" gradientUnits="userSpaceOnUse" gradientTransform="translate(28.9041 6.88926) rotate(-147.523) scale(8.97079 4.8847)">
<stop stop-color="#B9B9B9"/>
<stop offset="1" stop-color="#B9B9B9" stop-opacity="0"/>
</radialGradient>
<radialGradient id="paint25_radial_2034_413" cx="0" cy="0" r="1" gradientUnits="userSpaceOnUse" gradientTransform="translate(10.6338 4.37929) rotate(40.335) scale(5.19622 12.7505)">
<stop offset="0.287" stop-color="#828080"/>
<stop offset="1" stop-color="#828080" stop-opacity="0"/>
</radialGradient>
<radialGradient id="paint26_radial_2034_413" cx="0" cy="0" r="1" gradientUnits="userSpaceOnUse" gradientTransform="translate(7.80912 11.3567) rotate(-126.665) scale(2.8203 5.10825)">
<stop offset="0.45" stop-color="#8C8588"/>
<stop offset="1" stop-color="#8C8588" stop-opacity="0"/>
</radialGradient>
<radialGradient id="paint27_radial_2034_413" cx="0" cy="0" r="1" gradientUnits="userSpaceOnUse" gradientTransform="translate(19.9688 4.67656) rotate(159.248) scale(10.5979 3.06384)">
<stop stop-color="#B3B3B3"/>
<stop offset="1" stop-color="#B3B3B3" stop-opacity="0"/>
</radialGradient>
<radialGradient id="paint28_radial_2034_413" cx="0" cy="0" r="1" gradientUnits="userSpaceOnUse" gradientTransform="translate(6.83148 16.94) rotate(-60.0303) scale(15.0827 16.3122)">
<stop stop-color="#695E6F"/>
<stop offset="0.233" stop-color="#837D89"/>
<stop offset="1" stop-color="#837D89" stop-opacity="0"/>
</radialGradient>
<radialGradient id="paint29_radial_2034_413" cx="0" cy="0" r="1" gradientUnits="userSpaceOnUse" gradientTransform="translate(27.6205 7.19675) rotate(12.8578) scale(8.89598 5.76596)">
<stop stop-color="#C2C2C3"/>
<stop offset="1" stop-color="#C2C2C3" stop-opacity="0"/>
</radialGradient>
<radialGradient id="paint30_radial_2034_413" cx="0" cy="0" r="1" gradientUnits="userSpaceOnUse" gradientTransform="translate(29.639 17.4791) rotate(-109.323) scale(7.84954 5.40963)">
<stop stop-color="#69616E"/>
<stop offset="1" stop-color="#69616E" stop-opacity="0"/>
</radialGradient>
<radialGradient id="paint31_radial_2034_413" cx="0" cy="0" r="1" gradientUnits="userSpaceOnUse" gradientTransform="translate(31.0464 18.1965) rotate(-118.891) scale(10.105 5.4922)">
<stop stop-color="#716877"/>
<stop offset="1" stop-color="#716877" stop-opacity="0"/>
</radialGradient>
<radialGradient id="paint32_radial_2034_413" cx="0" cy="0" r="1" gradientUnits="userSpaceOnUse" gradientTransform="translate(30.2869 6.91961) rotate(165.844) scale(11.2447 12.7066)">
<stop offset="0.596" stop-color="#7B797E" stop-opacity="0"/>
<stop offset="1" stop-color="#7B797E"/>
</radialGradient>
<radialGradient id="paint33_radial_2034_413" cx="0" cy="0" r="1" gradientUnits="userSpaceOnUse" gradientTransform="translate(27.3426 6.0936) rotate(102.551) scale(1.92791 10.9178)">
<stop offset="0.461" stop-color="#A6A6A6"/>
<stop offset="1" stop-color="#A6A6A6" stop-opacity="0"/>
</radialGradient>
<radialGradient id="paint34_radial_2034_413" cx="0" cy="0" r="1" gradientUnits="userSpaceOnUse" gradientTransform="translate(24.35 21.6185) rotate(90) scale(1.93806 2.93232)">
<stop offset="0.802" stop-color="#7D574A"/>
<stop offset="1" stop-color="#664842"/>
</radialGradient>
<radialGradient id="paint35_radial_2034_413" cx="0" cy="0" r="1" gradientUnits="userSpaceOnUse" gradientTransform="translate(23.8329 21.8192) rotate(-126.433) scale(0.887329 1.20517)">
<stop offset="0.766" stop-color="#FFE6E2" stop-opacity="0"/>
<stop offset="0.966" stop-color="#FFE6E2"/>
</radialGradient>
<linearGradient id="paint36_linear_2034_413" x1="26.1184" y1="21.7479" x2="25.3863" y2="22.1765" gradientUnits="userSpaceOnUse">
<stop stop-color="#B4948D"/>
<stop offset="1" stop-color="#B4948D" stop-opacity="0"/>
</linearGradient>
<radialGradient id="paint37_radial_2034_413" cx="0" cy="0" r="1" gradientUnits="userSpaceOnUse" gradientTransform="translate(14.4347 21.6185) rotate(90) scale(1.93816 2.93248)">
<stop offset="0.802" stop-color="#7D574A"/>
<stop offset="1" stop-color="#664842"/>
</radialGradient>
<linearGradient id="paint38_linear_2034_413" x1="16.1248" y1="21.7479" x2="15.3927" y2="22.1765" gradientUnits="userSpaceOnUse">
<stop stop-color="#B4948D"/>
<stop offset="1" stop-color="#B4948D" stop-opacity="0"/>
</linearGradient>
<radialGradient id="paint39_radial_2034_413" cx="0" cy="0" r="1" gradientUnits="userSpaceOnUse" gradientTransform="translate(14.1231 22.0722) rotate(-117.617) scale(1.16728 1.36485)">
<stop offset="0.766" stop-color="#FFE6E2" stop-opacity="0"/>
<stop offset="0.966" stop-color="#FFE6E2"/>
</radialGradient>
<linearGradient id="paint40_linear_2034_413" x1="34.0177" y1="21.812" x2="31.0602" y2="26.8845" gradientUnits="userSpaceOnUse">
<stop stop-color="#FFD6BD"/>
<stop offset="1" stop-color="#F0B8A6"/>
</linearGradient>
<radialGradient id="paint41_radial_2034_413" cx="0" cy="0" r="1" gradientUnits="userSpaceOnUse" gradientTransform="translate(29.8853 21.6522) rotate(75.0757) scale(5.54574 5.06809)">
<stop offset="0.856" stop-color="#CE978E" stop-opacity="0"/>
<stop offset="1" stop-color="#CE978E"/>
</radialGradient>
<radialGradient id="paint42_radial_2034_413" cx="0" cy="0" r="1" gradientUnits="userSpaceOnUse" gradientTransform="translate(30.7051 22.9536) rotate(-55.2728) scale(3.14224 2.59087)">
<stop offset="0.664" stop-color="#F7B99C"/>
<stop offset="1" stop-color="#F7B99C" stop-opacity="0"/>
</radialGradient>
<radialGradient id="paint43_radial_2034_413" cx="0" cy="0" r="1" gradientUnits="userSpaceOnUse" gradientTransform="translate(30.9635 23.3649) rotate(-70.1943) scale(3.93646 5.06352)">
<stop offset="0.803" stop-color="#EBBB9D" stop-opacity="0"/>
<stop offset="1" stop-color="#EBBB9D"/>
</radialGradient>
<linearGradient id="paint44_linear_2034_413" x1="6.10089" y1="23.4943" x2="9.41707" y2="23.2182" gradientUnits="userSpaceOnUse">
<stop stop-color="#D19787"/>
<stop offset="1" stop-color="#C9887D"/>
</linearGradient>
<radialGradient id="paint45_radial_2034_413" cx="0" cy="0" r="1" gradientUnits="userSpaceOnUse" gradientTransform="translate(8.22447 23.189) rotate(-172.681) scale(3.69563 4.1641)">
<stop offset="0.775" stop-color="#E8AF99" stop-opacity="0"/>
<stop offset="1" stop-color="#E8AF99"/>
</radialGradient>
<radialGradient id="paint46_radial_2034_413" cx="0" cy="0" r="1" gradientUnits="userSpaceOnUse" gradientTransform="translate(8.22614 23.1906) rotate(169.771) scale(2.11611 2.72154)">
<stop stop-color="#C18472"/>
<stop offset="1" stop-color="#CA8B7A"/>
</radialGradient>
<linearGradient id="paint47_linear_2034_413" x1="31.8437" y1="20.9254" x2="31.8437" y2="25.4725" gradientUnits="userSpaceOnUse">
<stop stop-color="#F9BB9E"/>
<stop offset="1" stop-color="#F6BBA0"/>
</linearGradient>
</defs>
</svg>
