<svg width="7" height="7" viewBox="0 0 7 7" fill="none" xmlns="http://www.w3.org/2000/svg">
<path d="M1.75 0.875C1.75 0.642936 1.84219 0.420376 2.00628 0.256282C2.17038 0.0921872 2.39294 0 2.625 0H4.375C4.60706 0 4.82962 0.0921872 4.99372 0.256282C5.15781 0.420376 5.25 0.642936 5.25 0.875V1.75H6.125C6.35706 1.75 6.57962 1.84219 6.74372 2.00628C6.90781 2.17038 7 2.39294 7 2.625V4.375C7 4.60706 6.90781 4.82962 6.74372 4.99372C6.57962 5.15781 6.35706 5.25 6.125 5.25H5.25V6.125C5.25 6.35706 5.15781 6.57962 4.99372 6.74372C4.82962 6.90781 4.60706 7 4.375 7H2.625C2.39294 7 2.17038 6.90781 2.00628 6.74372C1.84219 6.57962 1.75 6.35706 1.75 6.125V5.25H0.875C0.642936 5.25 0.420376 5.15781 0.256282 4.99372C0.0921872 4.82962 0 4.60706 0 4.375V2.625C0 2.39294 0.0921872 2.17038 0.256282 2.00628C0.420376 1.84219 0.642936 1.75 0.875 1.75H1.75V0.875ZM4.375 0.875H2.625V2.1875C2.625 2.30353 2.57891 2.41481 2.49686 2.49686C2.41481 2.57891 2.30353 2.625 2.1875 2.625H0.875V4.375H2.1875C2.30353 4.375 2.41481 4.42109 2.49686 4.50314C2.57891 4.58519 2.625 4.69647 2.625 4.8125V6.125H4.375V4.8125C4.375 4.69647 4.42109 4.58519 4.50314 4.50314C4.58519 4.42109 4.69647 4.375 4.8125 4.375H6.125V2.625H4.8125C4.69647 2.625 4.58519 2.57891 4.50314 2.49686C4.42109 2.41481 4.375 2.30353 4.375 2.1875V0.875Z" fill="black"/>
</svg>
