<svg width="47" height="49" viewBox="0 0 47 49" fill="none" xmlns="http://www.w3.org/2000/svg">
<g filter="url(#filter0_d_1901_1438)">
<rect x="4.5" y="0.5" width="38" height="40" stroke="black" shape-rendering="crispEdges"/>
<path d="M34.4393 26.7935C35.1788 26.7674 35.8941 26.5105 36.4941 26.0555V28.2798C36.4941 30.413 35.2851 32.3144 33.4473 33.1024C33.843 32.2098 34.108 31.2595 34.2334 30.2836L34.4393 26.7935Z" fill="url(#paint0_radial_1901_1438)"/>
<path d="M34.4393 26.7935C35.1788 26.7674 35.8941 26.5105 36.4941 26.0555V28.2798C36.4941 30.413 35.2851 32.3144 33.4473 33.1024C33.843 32.2098 34.108 31.2595 34.2334 30.2836L34.4393 26.7935Z" fill="url(#paint1_radial_1901_1438)"/>
<path d="M12.347 26.7935C11.6072 26.7676 10.8915 26.5106 10.291 26.0555V28.2798C10.291 30.413 11.5 32.3144 13.3379 33.1024C12.9426 32.2098 12.6779 31.2595 12.553 30.2836L12.347 26.7935Z" fill="url(#paint2_radial_1901_1438)"/>
<g filter="url(#filter1_ii_1901_1438)">
<path d="M12.43 30.4118C12.7112 32.6636 13.7621 34.7309 15.3866 36.228C17.0111 37.7251 19.0983 38.5496 21.2587 38.5477H25.5462C27.7066 38.5496 29.7937 37.7251 31.4183 36.228C33.0428 34.7309 34.0937 32.6636 34.3749 30.4118C34.643 25.912 34.9123 21.4302 35.1122 16.933C35.0878 15.1008 33.7131 13.5889 31.9776 13.5121H28.7966C27.7317 13.5102 26.6901 13.1836 25.7982 12.5719C24.9063 11.9601 24.2023 11.0895 23.7717 10.0655C23.6602 9.77103 23.4673 9.51845 23.2179 9.34032C22.9685 9.16219 22.6741 9.06669 22.3726 9.06613H19.4805C15.2868 9.06613 11.8877 12.6793 11.8877 17.138C11.8877 21.5839 12.1522 25.9569 12.43 30.4118Z" fill="url(#paint3_radial_1901_1438)"/>
</g>
<path d="M12.43 30.4118C12.7112 32.6636 13.7621 34.7309 15.3866 36.228C17.0111 37.7251 19.0983 38.5496 21.2587 38.5477H25.5462C27.7066 38.5496 29.7937 37.7251 31.4183 36.228C33.0428 34.7309 34.0937 32.6636 34.3749 30.4118C34.643 25.912 34.9123 21.4302 35.1122 16.933C35.0878 15.1008 33.7131 13.5889 31.9776 13.5121H28.7966C27.7317 13.5102 26.6901 13.1836 25.7982 12.5719C24.9063 11.9601 24.2023 11.0895 23.7717 10.0655C23.6602 9.77103 23.4673 9.51845 23.2179 9.34032C22.9685 9.16219 22.6741 9.06669 22.3726 9.06613H19.4805C15.2868 9.06613 11.8877 12.6793 11.8877 17.138C11.8877 21.5839 12.1522 25.9569 12.43 30.4118Z" fill="url(#paint4_linear_1901_1438)"/>
<path d="M12.43 30.4118C12.7112 32.6636 13.7621 34.7309 15.3866 36.228C17.0111 37.7251 19.0983 38.5496 21.2587 38.5477H25.5462C27.7066 38.5496 29.7937 37.7251 31.4183 36.228C33.0428 34.7309 34.0937 32.6636 34.3749 30.4118C34.643 25.912 34.9123 21.4302 35.1122 16.933C35.0878 15.1008 33.7131 13.5889 31.9776 13.5121H28.7966C27.7317 13.5102 26.6901 13.1836 25.7982 12.5719C24.9063 11.9601 24.2023 11.0895 23.7717 10.0655C23.6602 9.77103 23.4673 9.51845 23.2179 9.34032C22.9685 9.16219 22.6741 9.06669 22.3726 9.06613H19.4805C15.2868 9.06613 11.8877 12.6793 11.8877 17.138C11.8877 21.5839 12.1522 25.9569 12.43 30.4118Z" fill="url(#paint5_radial_1901_1438)"/>
<path d="M12.43 30.4118C12.7112 32.6636 13.7621 34.7309 15.3866 36.228C17.0111 37.7251 19.0983 38.5496 21.2587 38.5477H25.5462C27.7066 38.5496 29.7937 37.7251 31.4183 36.228C33.0428 34.7309 34.0937 32.6636 34.3749 30.4118C34.643 25.912 34.9123 21.4302 35.1122 16.933C35.0878 15.1008 33.7131 13.5889 31.9776 13.5121H28.7966C27.7317 13.5102 26.6901 13.1836 25.7982 12.5719C24.9063 11.9601 24.2023 11.0895 23.7717 10.0655C23.6602 9.77103 23.4673 9.51845 23.2179 9.34032C22.9685 9.16219 22.6741 9.06669 22.3726 9.06613H19.4805C15.2868 9.06613 11.8877 12.6793 11.8877 17.138C11.8877 21.5839 12.1522 25.9569 12.43 30.4118Z" fill="url(#paint6_radial_1901_1438)"/>
<path d="M12.43 30.4118C12.7112 32.6636 13.7621 34.7309 15.3866 36.228C17.0111 37.7251 19.0983 38.5496 21.2587 38.5477H25.5462C27.7066 38.5496 29.7937 37.7251 31.4183 36.228C33.0428 34.7309 34.0937 32.6636 34.3749 30.4118C34.643 25.912 34.9123 21.4302 35.1122 16.933C35.0878 15.1008 33.7131 13.5889 31.9776 13.5121H28.7966C27.7317 13.5102 26.6901 13.1836 25.7982 12.5719C24.9063 11.9601 24.2023 11.0895 23.7717 10.0655C23.6602 9.77103 23.4673 9.51845 23.2179 9.34032C22.9685 9.16219 22.6741 9.06669 22.3726 9.06613H19.4805C15.2868 9.06613 11.8877 12.6793 11.8877 17.138C11.8877 21.5839 12.1522 25.9569 12.43 30.4118Z" fill="url(#paint7_radial_1901_1438)"/>
<path d="M12.43 30.4118C12.7112 32.6636 13.7621 34.7309 15.3866 36.228C17.0111 37.7251 19.0983 38.5496 21.2587 38.5477H25.5462C27.7066 38.5496 29.7937 37.7251 31.4183 36.228C33.0428 34.7309 34.0937 32.6636 34.3749 30.4118C34.643 25.912 34.9123 21.4302 35.1122 16.933C35.0878 15.1008 33.7131 13.5889 31.9776 13.5121H28.7966C27.7317 13.5102 26.6901 13.1836 25.7982 12.5719C24.9063 11.9601 24.2023 11.0895 23.7717 10.0655C23.6602 9.77103 23.4673 9.51845 23.2179 9.34032C22.9685 9.16219 22.6741 9.06669 22.3726 9.06613H19.4805C15.2868 9.06613 11.8877 12.6793 11.8877 17.138C11.8877 21.5839 12.1522 25.9569 12.43 30.4118Z" fill="url(#paint8_radial_1901_1438)"/>
<path d="M12.43 30.4118C12.7112 32.6636 13.7621 34.7309 15.3866 36.228C17.0111 37.7251 19.0983 38.5496 21.2587 38.5477H25.5462C27.7066 38.5496 29.7937 37.7251 31.4183 36.228C33.0428 34.7309 34.0937 32.6636 34.3749 30.4118C34.643 25.912 34.9123 21.4302 35.1122 16.933C35.0878 15.1008 33.7131 13.5889 31.9776 13.5121H28.7966C27.7317 13.5102 26.6901 13.1836 25.7982 12.5719C24.9063 11.9601 24.2023 11.0895 23.7717 10.0655C23.6602 9.77103 23.4673 9.51845 23.2179 9.34032C22.9685 9.16219 22.6741 9.06669 22.3726 9.06613H19.4805C15.2868 9.06613 11.8877 12.6793 11.8877 17.138C11.8877 21.5839 12.1522 25.9569 12.43 30.4118Z" fill="url(#paint9_radial_1901_1438)"/>
<path d="M12.43 30.4118C12.7112 32.6636 13.7621 34.7309 15.3866 36.228C17.0111 37.7251 19.0983 38.5496 21.2587 38.5477H25.5462C27.7066 38.5496 29.7937 37.7251 31.4183 36.228C33.0428 34.7309 34.0937 32.6636 34.3749 30.4118C34.643 25.912 34.9123 21.4302 35.1122 16.933C35.0878 15.1008 33.7131 13.5889 31.9776 13.5121H28.7966C27.7317 13.5102 26.6901 13.1836 25.7982 12.5719C24.9063 11.9601 24.2023 11.0895 23.7717 10.0655C23.6602 9.77103 23.4673 9.51845 23.2179 9.34032C22.9685 9.16219 22.6741 9.06669 22.3726 9.06613H19.4805C15.2868 9.06613 11.8877 12.6793 11.8877 17.138C11.8877 21.5839 12.1522 25.9569 12.43 30.4118Z" fill="url(#paint10_radial_1901_1438)"/>
<path d="M28.4421 13.3942H19.0065C18.7279 13.3942 18.502 13.6317 18.502 13.9246C18.502 14.2176 18.7279 14.4551 19.0065 14.4551H28.4421C28.7207 14.4551 28.9466 14.2176 28.9466 13.9246C28.9466 13.6317 28.7207 13.3942 28.4421 13.3942Z" fill="url(#paint11_linear_1901_1438)"/>
<path d="M28.4421 13.3942H19.0065C18.7279 13.3942 18.502 13.6317 18.502 13.9246C18.502 14.2176 18.7279 14.4551 19.0065 14.4551H28.4421C28.7207 14.4551 28.9466 14.2176 28.9466 13.9246C28.9466 13.6317 28.7207 13.3942 28.4421 13.3942Z" fill="url(#paint12_radial_1901_1438)"/>
<path d="M26.6806 10.2103H20.7673C20.4886 10.2103 20.2627 10.4478 20.2627 10.7407C20.2627 11.0337 20.4886 11.2712 20.7673 11.2712H26.6806C26.9593 11.2712 27.1852 11.0337 27.1852 10.7407C27.1852 10.4478 26.9593 10.2103 26.6806 10.2103Z" fill="url(#paint13_linear_1901_1438)"/>
<path fill-rule="evenodd" clip-rule="evenodd" d="M20.2947 24.2259C20.3952 24.3363 20.4498 24.4842 20.4467 24.637C20.4435 24.7898 20.3827 24.935 20.2777 25.0408C19.193 26.1337 17.8645 26.1811 17.3746 26.1811C17.2292 26.1811 17.0897 26.1203 16.9868 26.0122C16.884 25.9041 16.8262 25.7574 16.8262 25.6045C16.8262 25.4516 16.884 25.3049 16.9868 25.1968C17.0897 25.0887 17.2292 25.0279 17.3746 25.0279C17.8 25.0279 18.7555 24.9767 19.5196 24.2079C19.6247 24.1023 19.7654 24.0449 19.9107 24.0482C20.0561 24.0516 20.1942 24.1155 20.2947 24.2259Z" fill="#E29C93"/>
<path fill-rule="evenodd" clip-rule="evenodd" d="M26.2727 24.2259C26.1721 24.3362 26.1173 24.484 26.1202 24.6368C26.1232 24.7896 26.1838 24.9349 26.2886 25.0408C27.3733 26.1337 28.7017 26.1811 29.1917 26.1811C29.3371 26.1811 29.4766 26.1203 29.5795 26.0122C29.6823 25.9041 29.7401 25.7574 29.7401 25.6045C29.7401 25.4516 29.6823 25.3049 29.5795 25.1968C29.4766 25.0887 29.3371 25.0279 29.1917 25.0279C28.7663 25.0279 27.8108 24.9767 27.0467 24.2079C26.9416 24.1027 26.8012 24.0455 26.6562 24.0489C26.5111 24.0522 26.3733 24.1159 26.2727 24.2259Z" fill="#FFBCAE"/>
<g filter="url(#filter2_f_1901_1438)">
<path d="M22.4806 22.5564L21.1388 26.9473C20.9085 27.8505 21.4593 28.7538 22.2393 28.7538H23.9017C24.6817 28.7538 25.2314 27.8365 25.0022 26.9473L23.8786 22.5564C23.6372 21.5827 22.7329 21.5827 22.4806 22.5564Z" fill="#D69790"/>
</g>
<g filter="url(#filter3_f_1901_1438)">
<path d="M22.5249 22.1016L21.3171 26.4924C21.0709 27.3957 21.662 28.299 22.4993 28.299H24.286C25.1245 28.299 25.7155 27.3816 25.4694 26.4924L24.2628 22.1003C24.0032 21.1266 22.7954 21.1278 22.5249 22.1016Z" fill="#F6BFAB"/>
<path d="M22.5249 22.1016L21.3171 26.4924C21.0709 27.3957 21.662 28.299 22.4993 28.299H24.286C25.1245 28.299 25.7155 27.3816 25.4694 26.4924L24.2628 22.1003C24.0032 21.1266 22.7954 21.1278 22.5249 22.1016Z" fill="url(#paint14_linear_1901_1438)"/>
<path d="M22.5249 22.1016L21.3171 26.4924C21.0709 27.3957 21.662 28.299 22.4993 28.299H24.286C25.1245 28.299 25.7155 27.3816 25.4694 26.4924L24.2628 22.1003C24.0032 21.1266 22.7954 21.1278 22.5249 22.1016Z" fill="url(#paint15_radial_1901_1438)"/>
<path d="M22.5249 22.1016L21.3171 26.4924C21.0709 27.3957 21.662 28.299 22.4993 28.299H24.286C25.1245 28.299 25.7155 27.3816 25.4694 26.4924L24.2628 22.1003C24.0032 21.1266 22.7954 21.1278 22.5249 22.1016Z" fill="url(#paint16_linear_1901_1438)"/>
<path d="M22.5249 22.1016L21.3171 26.4924C21.0709 27.3957 21.662 28.299 22.4993 28.299H24.286C25.1245 28.299 25.7155 27.3816 25.4694 26.4924L24.2628 22.1003C24.0032 21.1266 22.7954 21.1278 22.5249 22.1016Z" fill="url(#paint17_radial_1901_1438)"/>
<path d="M22.5249 22.1016L21.3171 26.4924C21.0709 27.3957 21.662 28.299 22.4993 28.299H24.286C25.1245 28.299 25.7155 27.3816 25.4694 26.4924L24.2628 22.1003C24.0032 21.1266 22.7954 21.1278 22.5249 22.1016Z" fill="url(#paint18_linear_1901_1438)"/>
</g>
<g filter="url(#filter4_f_1901_1438)">
<path d="M20.2874 29.857C20.2022 29.8103 20.1048 29.7943 20.0101 29.8114C19.9154 29.8285 19.8287 29.8779 19.7633 29.9518C19.6962 30.0223 19.655 30.1156 19.647 30.215C19.6389 30.3144 19.6646 30.4136 19.7194 30.495C20.1216 31.1315 20.6678 31.653 21.3088 32.013C21.9499 32.3731 22.6659 32.5602 23.3927 32.5578C24.1198 32.5605 24.836 32.3734 25.4773 32.0134C26.1186 31.6533 26.6649 31.1316 27.0673 30.495C27.1223 30.4127 27.148 30.3125 27.1397 30.2122C27.1315 30.1119 27.0898 30.0179 27.0222 29.9467C26.9562 29.8743 26.8697 29.8265 26.7756 29.8103C26.6815 29.7941 26.585 29.8105 26.5006 29.857C25.5394 30.3742 24.4724 30.6397 23.3927 30.6308C22.2544 30.6308 21.1844 30.349 20.2874 29.857Z" stroke="url(#paint19_linear_1901_1438)" stroke-width="0.15"/>
</g>
<path d="M23.3926 30.7269C22.2985 30.7341 21.2188 30.4647 20.2445 29.9415C19.9337 29.775 19.5986 30.144 19.7948 30.4412C20.1887 31.0647 20.7235 31.5756 21.3514 31.9282C21.9793 32.2809 22.6807 32.4642 23.3926 32.4618C24.1044 32.4642 24.8058 32.2809 25.4337 31.9282C26.0616 31.5756 26.5964 31.0647 26.9903 30.4412C27.1865 30.1324 26.8526 29.775 26.5406 29.9415C25.5667 30.4661 24.4868 30.7356 23.3926 30.7269Z" fill="url(#paint20_radial_1901_1438)"/>
<g filter="url(#filter5_i_1901_1438)">
<path d="M34.4251 7.93864C35.5938 8.36145 36.6432 9.21989 37.305 10.4499C37.8105 11.3772 38.0562 12.436 38.0135 13.5039C37.9708 14.5718 37.6415 15.6051 37.0637 16.4846C36.6648 17.1005 36.4509 17.8279 36.4494 18.573V21.411C35.9918 21.0891 35.4755 20.8709 34.9333 20.7704L35.1112 16.933C35.0868 15.1008 33.7133 13.5889 31.979 13.5121H28.7969C27.7319 13.5102 26.6903 13.1837 25.7984 12.5719C24.9065 11.9601 24.2026 11.0895 23.772 10.0655C23.6604 9.77104 23.4675 9.51845 23.2181 9.34032C22.9688 9.16219 22.6743 9.06669 22.3728 9.06614H19.4808C15.287 9.06614 11.8879 12.6793 11.8879 17.138L11.9586 20.8114C11.3809 20.901 10.7777 21.1035 10.3218 21.4404V18.573C10.3218 17.8299 10.1049 17.0996 9.70759 16.4846C9.15704 15.6322 8.83611 14.6391 8.77882 13.6105C8.72153 12.5819 8.93002 11.5562 9.38219 10.6421C10.0064 9.38449 11.0614 8.42285 12.334 7.95145C13.6385 7.46836 14.7478 6.53305 15.4796 5.29926C15.9531 4.49699 16.6132 3.83481 17.3978 3.37524C18.1823 2.91567 19.0653 2.67388 19.9634 2.6727C20.6983 2.6727 21.3966 2.83926 22.0474 3.12114C22.9152 3.51832 23.8914 3.51832 24.7592 3.12114C25.4149 2.82789 26.1197 2.67542 26.8322 2.6727C28.7481 2.6727 30.4239 3.76176 31.3514 5.37614C32.0509 6.59332 33.1478 7.47739 34.4251 7.93864Z" fill="url(#paint21_linear_1901_1438)"/>
<path d="M34.4251 7.93864C35.5938 8.36145 36.6432 9.21989 37.305 10.4499C37.8105 11.3772 38.0562 12.436 38.0135 13.5039C37.9708 14.5718 37.6415 15.6051 37.0637 16.4846C36.6648 17.1005 36.4509 17.8279 36.4494 18.573V21.411C35.9918 21.0891 35.4755 20.8709 34.9333 20.7704L35.1112 16.933C35.0868 15.1008 33.7133 13.5889 31.979 13.5121H28.7969C27.7319 13.5102 26.6903 13.1837 25.7984 12.5719C24.9065 11.9601 24.2026 11.0895 23.772 10.0655C23.6604 9.77104 23.4675 9.51845 23.2181 9.34032C22.9688 9.16219 22.6743 9.06669 22.3728 9.06614H19.4808C15.287 9.06614 11.8879 12.6793 11.8879 17.138L11.9586 20.8114C11.3809 20.901 10.7777 21.1035 10.3218 21.4404V18.573C10.3218 17.8299 10.1049 17.0996 9.70759 16.4846C9.15704 15.6322 8.83611 14.6391 8.77882 13.6105C8.72153 12.5819 8.93002 11.5562 9.38219 10.6421C10.0064 9.38449 11.0614 8.42285 12.334 7.95145C13.6385 7.46836 14.7478 6.53305 15.4796 5.29926C15.9531 4.49699 16.6132 3.83481 17.3978 3.37524C18.1823 2.91567 19.0653 2.67388 19.9634 2.6727C20.6983 2.6727 21.3966 2.83926 22.0474 3.12114C22.9152 3.51832 23.8914 3.51832 24.7592 3.12114C25.4149 2.82789 26.1197 2.67542 26.8322 2.6727C28.7481 2.6727 30.4239 3.76176 31.3514 5.37614C32.0509 6.59332 33.1478 7.47739 34.4251 7.93864Z" fill="url(#paint22_radial_1901_1438)"/>
<path d="M34.4251 7.93864C35.5938 8.36145 36.6432 9.21989 37.305 10.4499C37.8105 11.3772 38.0562 12.436 38.0135 13.5039C37.9708 14.5718 37.6415 15.6051 37.0637 16.4846C36.6648 17.1005 36.4509 17.8279 36.4494 18.573V21.411C35.9918 21.0891 35.4755 20.8709 34.9333 20.7704L35.1112 16.933C35.0868 15.1008 33.7133 13.5889 31.979 13.5121H28.7969C27.7319 13.5102 26.6903 13.1837 25.7984 12.5719C24.9065 11.9601 24.2026 11.0895 23.772 10.0655C23.6604 9.77104 23.4675 9.51845 23.2181 9.34032C22.9688 9.16219 22.6743 9.06669 22.3728 9.06614H19.4808C15.287 9.06614 11.8879 12.6793 11.8879 17.138L11.9586 20.8114C11.3809 20.901 10.7777 21.1035 10.3218 21.4404V18.573C10.3218 17.8299 10.1049 17.0996 9.70759 16.4846C9.15704 15.6322 8.83611 14.6391 8.77882 13.6105C8.72153 12.5819 8.93002 11.5562 9.38219 10.6421C10.0064 9.38449 11.0614 8.42285 12.334 7.95145C13.6385 7.46836 14.7478 6.53305 15.4796 5.29926C15.9531 4.49699 16.6132 3.83481 17.3978 3.37524C18.1823 2.91567 19.0653 2.67388 19.9634 2.6727C20.6983 2.6727 21.3966 2.83926 22.0474 3.12114C22.9152 3.51832 23.8914 3.51832 24.7592 3.12114C25.4149 2.82789 26.1197 2.67542 26.8322 2.6727C28.7481 2.6727 30.4239 3.76176 31.3514 5.37614C32.0509 6.59332 33.1478 7.47739 34.4251 7.93864Z" fill="url(#paint23_radial_1901_1438)"/>
<path d="M34.4251 7.93864C35.5938 8.36145 36.6432 9.21989 37.305 10.4499C37.8105 11.3772 38.0562 12.436 38.0135 13.5039C37.9708 14.5718 37.6415 15.6051 37.0637 16.4846C36.6648 17.1005 36.4509 17.8279 36.4494 18.573V21.411C35.9918 21.0891 35.4755 20.8709 34.9333 20.7704L35.1112 16.933C35.0868 15.1008 33.7133 13.5889 31.979 13.5121H28.7969C27.7319 13.5102 26.6903 13.1837 25.7984 12.5719C24.9065 11.9601 24.2026 11.0895 23.772 10.0655C23.6604 9.77104 23.4675 9.51845 23.2181 9.34032C22.9688 9.16219 22.6743 9.06669 22.3728 9.06614H19.4808C15.287 9.06614 11.8879 12.6793 11.8879 17.138L11.9586 20.8114C11.3809 20.901 10.7777 21.1035 10.3218 21.4404V18.573C10.3218 17.8299 10.1049 17.0996 9.70759 16.4846C9.15704 15.6322 8.83611 14.6391 8.77882 13.6105C8.72153 12.5819 8.93002 11.5562 9.38219 10.6421C10.0064 9.38449 11.0614 8.42285 12.334 7.95145C13.6385 7.46836 14.7478 6.53305 15.4796 5.29926C15.9531 4.49699 16.6132 3.83481 17.3978 3.37524C18.1823 2.91567 19.0653 2.67388 19.9634 2.6727C20.6983 2.6727 21.3966 2.83926 22.0474 3.12114C22.9152 3.51832 23.8914 3.51832 24.7592 3.12114C25.4149 2.82789 26.1197 2.67542 26.8322 2.6727C28.7481 2.6727 30.4239 3.76176 31.3514 5.37614C32.0509 6.59332 33.1478 7.47739 34.4251 7.93864Z" fill="url(#paint24_radial_1901_1438)"/>
<path d="M34.4251 7.93864C35.5938 8.36145 36.6432 9.21989 37.305 10.4499C37.8105 11.3772 38.0562 12.436 38.0135 13.5039C37.9708 14.5718 37.6415 15.6051 37.0637 16.4846C36.6648 17.1005 36.4509 17.8279 36.4494 18.573V21.411C35.9918 21.0891 35.4755 20.8709 34.9333 20.7704L35.1112 16.933C35.0868 15.1008 33.7133 13.5889 31.979 13.5121H28.7969C27.7319 13.5102 26.6903 13.1837 25.7984 12.5719C24.9065 11.9601 24.2026 11.0895 23.772 10.0655C23.6604 9.77104 23.4675 9.51845 23.2181 9.34032C22.9688 9.16219 22.6743 9.06669 22.3728 9.06614H19.4808C15.287 9.06614 11.8879 12.6793 11.8879 17.138L11.9586 20.8114C11.3809 20.901 10.7777 21.1035 10.3218 21.4404V18.573C10.3218 17.8299 10.1049 17.0996 9.70759 16.4846C9.15704 15.6322 8.83611 14.6391 8.77882 13.6105C8.72153 12.5819 8.93002 11.5562 9.38219 10.6421C10.0064 9.38449 11.0614 8.42285 12.334 7.95145C13.6385 7.46836 14.7478 6.53305 15.4796 5.29926C15.9531 4.49699 16.6132 3.83481 17.3978 3.37524C18.1823 2.91567 19.0653 2.67388 19.9634 2.6727C20.6983 2.6727 21.3966 2.83926 22.0474 3.12114C22.9152 3.51832 23.8914 3.51832 24.7592 3.12114C25.4149 2.82789 26.1197 2.67542 26.8322 2.6727C28.7481 2.6727 30.4239 3.76176 31.3514 5.37614C32.0509 6.59332 33.1478 7.47739 34.4251 7.93864Z" fill="url(#paint25_radial_1901_1438)"/>
<path d="M34.4251 7.93864C35.5938 8.36145 36.6432 9.21989 37.305 10.4499C37.8105 11.3772 38.0562 12.436 38.0135 13.5039C37.9708 14.5718 37.6415 15.6051 37.0637 16.4846C36.6648 17.1005 36.4509 17.8279 36.4494 18.573V21.411C35.9918 21.0891 35.4755 20.8709 34.9333 20.7704L35.1112 16.933C35.0868 15.1008 33.7133 13.5889 31.979 13.5121H28.7969C27.7319 13.5102 26.6903 13.1837 25.7984 12.5719C24.9065 11.9601 24.2026 11.0895 23.772 10.0655C23.6604 9.77104 23.4675 9.51845 23.2181 9.34032C22.9688 9.16219 22.6743 9.06669 22.3728 9.06614H19.4808C15.287 9.06614 11.8879 12.6793 11.8879 17.138L11.9586 20.8114C11.3809 20.901 10.7777 21.1035 10.3218 21.4404V18.573C10.3218 17.8299 10.1049 17.0996 9.70759 16.4846C9.15704 15.6322 8.83611 14.6391 8.77882 13.6105C8.72153 12.5819 8.93002 11.5562 9.38219 10.6421C10.0064 9.38449 11.0614 8.42285 12.334 7.95145C13.6385 7.46836 14.7478 6.53305 15.4796 5.29926C15.9531 4.49699 16.6132 3.83481 17.3978 3.37524C18.1823 2.91567 19.0653 2.67388 19.9634 2.6727C20.6983 2.6727 21.3966 2.83926 22.0474 3.12114C22.9152 3.51832 23.8914 3.51832 24.7592 3.12114C25.4149 2.82789 26.1197 2.67542 26.8322 2.6727C28.7481 2.6727 30.4239 3.76176 31.3514 5.37614C32.0509 6.59332 33.1478 7.47739 34.4251 7.93864Z" fill="url(#paint26_radial_1901_1438)"/>
</g>
<g filter="url(#filter6_i_1901_1438)">
<path d="M31.8755 16.6896C31.477 16.3257 31.0151 15.9387 30.3131 15.7068C29.622 15.4775 28.7567 15.4173 27.5587 15.571C27.3965 15.5967 27.2502 15.6879 27.151 15.8252C27.0517 15.9624 27.0073 16.135 27.0271 16.3062C27.0469 16.4773 27.1295 16.6336 27.2572 16.7418C27.3849 16.85 27.5477 16.9016 27.711 16.8856C28.8043 16.7447 29.4746 16.8177 29.9353 16.9702C30.3862 17.1201 30.6909 17.3609 31.048 17.6877C31.1098 17.7484 31.1826 17.7954 31.262 17.8259C31.3415 17.8563 31.4259 17.8697 31.5104 17.8652C31.5949 17.8606 31.6776 17.8382 31.7537 17.7994C31.8297 17.7605 31.8976 17.7059 31.9531 17.6389C32.0087 17.5718 32.0509 17.4937 32.0771 17.4092C32.1034 17.3247 32.1132 17.2355 32.1059 17.1469C32.0987 17.0583 32.0745 16.9722 32.035 16.8936C31.9954 16.815 31.9411 16.7456 31.8755 16.6896Z" fill="#7F7C7D"/>
</g>
<g filter="url(#filter7_i_1901_1438)">
<path d="M15.6429 16.4295C16.835 15.696 18.2232 15.3944 19.5941 15.571C19.678 15.5793 19.7595 15.6051 19.8337 15.647C19.9079 15.6889 19.9734 15.746 20.0263 15.8149C20.0791 15.8839 20.1183 15.9633 20.1415 16.0485C20.1646 16.1336 20.1713 16.2228 20.1611 16.3107C20.1509 16.3986 20.1241 16.4835 20.0821 16.5603C20.0402 16.6371 19.984 16.7043 19.917 16.7579C19.8499 16.8115 19.7733 16.8504 19.6917 16.8724C19.6101 16.8943 19.5251 16.8988 19.4418 16.8856C18.3487 16.7444 17.2418 16.9834 16.2901 17.5659C16.2193 17.6109 16.1501 17.6588 16.0829 17.7094L16.0756 17.7146C15.9434 17.8221 15.776 17.8701 15.6101 17.8478C15.4443 17.8256 15.2937 17.735 15.1914 17.5961C15.0891 17.4571 15.0435 17.2811 15.0646 17.1067C15.0858 16.9324 15.1719 16.7741 15.3041 16.6665L15.6429 16.4295Z" fill="#7F7C7D"/>
</g>
<g filter="url(#filter8_f_1901_1438)">
<path d="M23.9213 10.3922C23.8682 10.285 23.8182 10.176 23.7714 10.0655C23.6598 9.77105 23.4669 9.51846 23.2176 9.34033C22.9682 9.1622 22.6737 9.0667 22.3722 9.06615H19.4802C15.2864 9.06615 11.8873 12.6793 11.8873 17.138V17.7953C11.1159 17.1777 10.1445 15.8734 10.1445 13.7645C10.1445 11.2033 11.9203 9.90921 13.0525 9.08409C13.373 8.8509 13.6411 8.65487 13.8044 8.47934L14.0311 8.22821C14.8258 7.34415 16.2407 5.76565 18.7111 5.07634C20.2943 4.6343 21.9042 4.62918 22.9902 4.7304C23.5642 4.78549 23.9688 5.30952 23.9688 5.91427V10.3602L23.9213 10.3922Z" fill="url(#paint27_radial_1901_1438)"/>
<path d="M23.9213 10.3922C23.8682 10.285 23.8182 10.176 23.7714 10.0655C23.6598 9.77105 23.4669 9.51846 23.2176 9.34033C22.9682 9.1622 22.6737 9.0667 22.3722 9.06615H19.4802C15.2864 9.06615 11.8873 12.6793 11.8873 17.138V17.7953C11.1159 17.1777 10.1445 15.8734 10.1445 13.7645C10.1445 11.2033 11.9203 9.90921 13.0525 9.08409C13.373 8.8509 13.6411 8.65487 13.8044 8.47934L14.0311 8.22821C14.8258 7.34415 16.2407 5.76565 18.7111 5.07634C20.2943 4.6343 21.9042 4.62918 22.9902 4.7304C23.5642 4.78549 23.9688 5.30952 23.9688 5.91427V10.3602L23.9213 10.3922Z" fill="url(#paint28_radial_1901_1438)"/>
</g>
<g filter="url(#filter9_f_1901_1438)">
<path d="M35.2365 18.1963L35.1719 16.6883C35.1476 14.8651 33.7131 13.3596 31.9788 13.284H28.7966C27.8093 13.2837 26.8403 13.0041 25.9912 12.4745C25.142 11.945 24.444 11.185 23.9704 10.2743C23.9704 10.2743 23.5048 9.14044 23.4025 7.48122C23.3232 6.19997 24.4262 5.28004 25.6389 5.44916C28.1568 5.79894 31.6522 6.62535 34.0543 8.27304C38.0177 10.9906 37.3242 15.8901 35.2365 18.1963Z" fill="url(#paint29_radial_1901_1438)"/>
<path d="M35.2365 18.1963L35.1719 16.6883C35.1476 14.8651 33.7131 13.3596 31.9788 13.284H28.7966C27.8093 13.2837 26.8403 13.0041 25.9912 12.4745C25.142 11.945 24.444 11.185 23.9704 10.2743C23.9704 10.2743 23.5048 9.14044 23.4025 7.48122C23.3232 6.19997 24.4262 5.28004 25.6389 5.44916C28.1568 5.79894 31.6522 6.62535 34.0543 8.27304C38.0177 10.9906 37.3242 15.8901 35.2365 18.1963Z" fill="url(#paint30_radial_1901_1438)"/>
<path d="M35.2365 18.1963L35.1719 16.6883C35.1476 14.8651 33.7131 13.3596 31.9788 13.284H28.7966C27.8093 13.2837 26.8403 13.0041 25.9912 12.4745C25.142 11.945 24.444 11.185 23.9704 10.2743C23.9704 10.2743 23.5048 9.14044 23.4025 7.48122C23.3232 6.19997 24.4262 5.28004 25.6389 5.44916C28.1568 5.79894 31.6522 6.62535 34.0543 8.27304C38.0177 10.9906 37.3242 15.8901 35.2365 18.1963Z" fill="url(#paint31_radial_1901_1438)"/>
<path d="M35.2365 18.1963L35.1719 16.6883C35.1476 14.8651 33.7131 13.3596 31.9788 13.284H28.7966C27.8093 13.2837 26.8403 13.0041 25.9912 12.4745C25.142 11.945 24.444 11.185 23.9704 10.2743C23.9704 10.2743 23.5048 9.14044 23.4025 7.48122C23.3232 6.19997 24.4262 5.28004 25.6389 5.44916C28.1568 5.79894 31.6522 6.62535 34.0543 8.27304C38.0177 10.9906 37.3242 15.8901 35.2365 18.1963Z" fill="url(#paint32_radial_1901_1438)"/>
<path d="M35.2365 18.1963L35.1719 16.6883C35.1476 14.8651 33.7131 13.3596 31.9788 13.284H28.7966C27.8093 13.2837 26.8403 13.0041 25.9912 12.4745C25.142 11.945 24.444 11.185 23.9704 10.2743C23.9704 10.2743 23.5048 9.14044 23.4025 7.48122C23.3232 6.19997 24.4262 5.28004 25.6389 5.44916C28.1568 5.79894 31.6522 6.62535 34.0543 8.27304C38.0177 10.9906 37.3242 15.8901 35.2365 18.1963Z" fill="url(#paint33_radial_1901_1438)"/>
</g>
<path d="M28.8257 19.8299C30.3102 19.8299 31.5631 20.9062 31.9043 22.3591C31.9276 22.4561 31.9294 22.5573 31.9097 22.6552C31.8899 22.753 31.8491 22.8448 31.7904 22.9234C31.7317 23.0021 31.6566 23.0656 31.571 23.109C31.4853 23.1525 31.3913 23.1747 31.2962 23.174H26.2262C26.1494 23.174 26.0736 23.1562 26.004 23.122C25.9345 23.0878 25.873 23.038 25.8238 22.976C25.7746 22.914 25.739 22.8415 25.7194 22.7634C25.6999 22.6854 25.6969 22.6038 25.7106 22.5244C25.8526 21.7655 26.2409 21.0819 26.809 20.5905C27.3772 20.099 28.09 19.8302 28.8257 19.8299Z" fill="white"/>
<path d="M28.3561 20.4795C28.6677 20.48 28.975 20.5559 29.2542 20.7015C29.5334 20.847 29.7769 21.0582 29.9659 21.3187C30.1548 21.5792 30.2842 21.8819 30.3438 22.2035C30.4034 22.525 30.3918 22.8567 30.3098 23.1727H26.3915C26.3441 22.9898 26.3195 22.8011 26.3184 22.6115C26.3203 22.0449 26.5359 21.5023 26.9179 21.1026C27.2999 20.7029 27.8172 20.4788 28.3561 20.4795Z" fill="url(#paint34_radial_1901_1438)"/>
<path d="M27.1954 22.6115C27.1954 21.9324 27.7109 21.3905 28.3569 21.3905C29.0016 21.3905 29.5171 21.9324 29.5171 22.6115C29.5171 22.8152 29.472 23.0087 29.3879 23.1727H27.3331C27.2405 23.0019 27.193 22.8081 27.1954 22.6115Z" fill="black"/>
<g filter="url(#filter10_f_1901_1438)">
<path d="M28.2065 20.9305C28.3515 21.133 28.048 21.3802 27.7068 21.6506C27.3619 21.9196 27.1071 22.1105 26.9633 21.9068C26.8183 21.7044 26.9804 21.3213 27.3229 21.051C27.6665 20.7819 28.0626 20.7268 28.2065 20.9292" fill="#C7A7A3"/>
<path d="M28.2065 20.9305C28.3515 21.133 28.048 21.3802 27.7068 21.6506C27.3619 21.9196 27.1071 22.1105 26.9633 21.9068C26.8183 21.7044 26.9804 21.3213 27.3229 21.051C27.6665 20.7819 28.0626 20.7268 28.2065 20.9292" fill="url(#paint35_radial_1901_1438)"/>
</g>
<g filter="url(#filter11_f_1901_1438)">
<path d="M30.1623 22.3309C30.1019 21.9133 29.9176 21.5263 29.6358 21.2252L29.0459 21.9068L29.3116 22.4513L30.1623 22.3309Z" fill="url(#paint36_linear_1901_1438)"/>
</g>
<path d="M17.9608 19.8299C16.4763 19.8299 15.2222 20.9062 14.8822 22.3591C14.8589 22.4561 14.8571 22.5573 14.8768 22.6552C14.8966 22.753 14.9374 22.8448 14.9961 22.9234C15.0548 23.0021 15.1299 23.0656 15.2156 23.109C15.3012 23.1525 15.3952 23.1747 15.4904 23.174H20.5604C20.6371 23.174 20.713 23.1562 20.7825 23.122C20.852 23.0878 20.9135 23.038 20.9627 22.976C21.0119 22.914 21.0475 22.8415 21.0671 22.7634C21.0866 22.6854 21.0896 22.6038 21.0759 22.5244C20.9326 21.7661 20.544 21.0834 19.9761 20.5922C19.4083 20.101 18.6961 19.8317 17.9608 19.8299Z" fill="white"/>
<path d="M18.4298 20.4795C18.1181 20.4799 17.8106 20.5559 17.5313 20.7015C17.252 20.8471 17.0084 21.0584 16.8194 21.3191C16.6304 21.5797 16.5012 21.8827 16.4416 22.2044C16.3821 22.5261 16.3939 22.8579 16.4761 23.174H20.3932C20.4395 22.9895 20.4676 22.805 20.4676 22.6102C20.4637 22.0446 20.2476 21.5035 19.8662 21.1045C19.4849 20.7054 18.9678 20.4809 18.4298 20.4795Z" fill="url(#paint37_radial_1901_1438)"/>
<path d="M19.5925 22.6115C19.5931 22.451 19.5635 22.2919 19.5054 22.1434C19.4472 21.995 19.3617 21.8601 19.2537 21.7466C19.1457 21.6331 19.0175 21.5432 18.8762 21.482C18.735 21.4209 18.5837 21.3898 18.431 21.3905C18.2783 21.39 18.1271 21.4212 17.986 21.4824C17.8448 21.5436 17.7166 21.6335 17.6086 21.747C17.5007 21.8605 17.4152 21.9953 17.357 22.1436C17.2988 22.292 17.2691 22.451 17.2695 22.6115C17.2695 22.8152 17.3146 23.0087 17.3975 23.174H19.4535C19.5427 23.0007 19.5904 22.8072 19.5925 22.6102" fill="black"/>
<g filter="url(#filter12_f_1901_1438)">
<path d="M20.282 22.3604C20.282 21.6723 19.7495 21.2124 19.6056 21.074L18.9512 21.7403L19.3534 22.6025L20.282 22.3604Z" fill="url(#paint38_linear_1901_1438)"/>
</g>
<g filter="url(#filter13_f_1901_1438)">
<path d="M18.028 21.8072C18.4598 21.5667 18.7158 21.1852 18.5999 20.955C18.4839 20.7249 18.0398 20.7334 17.608 20.9739C17.1762 21.2144 16.9202 21.5959 17.0361 21.826C17.1521 22.0561 17.5962 22.0477 18.028 21.8072Z" fill="#C7A7A3" fill-opacity="0.9"/>
<path d="M18.028 21.8072C18.4598 21.5667 18.7158 21.1852 18.5999 20.955C18.4839 20.7249 18.0398 20.7334 17.608 20.9739C17.1762 21.2144 16.9202 21.5959 17.0361 21.826C17.1521 22.0561 17.5962 22.0477 18.028 21.8072Z" fill="url(#paint39_radial_1901_1438)"/>
</g>
<path d="M34.5771 27.0113C34.7271 24.468 34.8696 21.9299 34.9964 19.3879C35.8796 19.5505 36.6752 20.0486 37.2319 20.7876C37.7886 21.5265 38.0676 22.4548 38.0158 23.3959C37.9641 24.3369 37.5852 25.2252 36.9512 25.8918C36.3172 26.5584 35.4723 26.9568 34.5771 27.0113Z" fill="url(#paint40_linear_1901_1438)"/>
<path d="M34.5771 27.0113C34.7271 24.468 34.8696 21.9299 34.9964 19.3879C35.8796 19.5505 36.6752 20.0486 37.2319 20.7876C37.7886 21.5265 38.0676 22.4548 38.0158 23.3959C37.9641 24.3369 37.5852 25.2252 36.9512 25.8918C36.3172 26.5584 35.4723 26.9568 34.5771 27.0113Z" fill="url(#paint41_radial_1901_1438)"/>
<path d="M34.5771 27.0113C34.7271 24.468 34.8696 21.9299 34.9964 19.3879C35.8796 19.5505 36.6752 20.0486 37.2319 20.7876C37.7886 21.5265 38.0676 22.4548 38.0158 23.3959C37.9641 24.3369 37.5852 25.2252 36.9512 25.8918C36.3172 26.5584 35.4723 26.9568 34.5771 27.0113Z" fill="url(#paint42_radial_1901_1438)"/>
<path d="M34.5771 27.0113C34.7271 24.468 34.8696 21.9299 34.9964 19.3879C35.8796 19.5505 36.6752 20.0486 37.2319 20.7876C37.7886 21.5265 38.0676 22.4548 38.0158 23.3959C37.9641 24.3369 37.5852 25.2252 36.9512 25.8918C36.3172 26.5584 35.4723 26.9568 34.5771 27.0113Z" fill="url(#paint43_radial_1901_1438)"/>
<path d="M11.9315 19.3661C10.1557 19.6287 8.76758 21.2342 8.76758 23.174C8.76774 24.1569 9.12609 25.1024 9.76896 25.8162C10.4118 26.5299 11.2904 26.9576 12.224 27.0113C12.0777 24.4591 11.9778 21.9196 11.9315 19.3661Z" fill="url(#paint44_linear_1901_1438)"/>
<path d="M11.9315 19.3661C10.1557 19.6287 8.76758 21.2342 8.76758 23.174C8.76774 24.1569 9.12609 25.1024 9.76896 25.8162C10.4118 26.5299 11.2904 26.9576 12.224 27.0113C12.0777 24.4591 11.9778 21.9196 11.9315 19.3661Z" fill="url(#paint45_radial_1901_1438)"/>
<g filter="url(#filter14_f_1901_1438)">
<path d="M11.8374 20.9446C11.3408 21.0629 10.8995 21.3609 10.5907 21.7864C10.2818 22.212 10.125 22.7381 10.1477 23.2729C10.1703 23.8077 10.371 24.317 10.7146 24.7121C11.0582 25.1071 11.5229 25.3627 12.0275 25.4341C11.9483 23.9363 11.8812 22.4424 11.8374 20.9446Z" fill="url(#paint46_radial_1901_1438)"/>
</g>
<g filter="url(#filter15_f_1901_1438)">
<path d="M34.7676 25.4713C34.8553 23.9568 34.9406 22.4411 35.0199 20.9254C35.5646 20.9998 36.0623 21.2885 36.4127 21.7333C36.7631 22.1781 36.9401 22.7459 36.9081 23.3225C36.8761 23.899 36.6375 24.4414 36.2403 24.8404C35.8431 25.2393 35.3169 25.4652 34.7676 25.4725" fill="url(#paint47_linear_1901_1438)"/>
</g>
<g filter="url(#filter16_f_1901_1438)">
<path d="M15.7275 17.097C16.3125 16.6576 17.7677 15.8824 19.4886 16.1873" stroke="#9A979A" stroke-width="0.25" stroke-linecap="round"/>
</g>
<g filter="url(#filter17_f_1901_1438)">
<path d="M31.4847 16.9868C30.8997 16.5474 29.4445 15.7722 27.7236 16.0771" stroke="#9A979A" stroke-width="0.25" stroke-linecap="round"/>
</g>
</g>
<defs>
<filter id="filter0_d_1901_1438" x="0" y="0" width="47" height="49" filterUnits="userSpaceOnUse" color-interpolation-filters="sRGB">
<feFlood flood-opacity="0" result="BackgroundImageFix"/>
<feColorMatrix in="SourceAlpha" type="matrix" values="0 0 0 0 0 0 0 0 0 0 0 0 0 0 0 0 0 0 127 0" result="hardAlpha"/>
<feOffset dy="4"/>
<feGaussianBlur stdDeviation="2"/>
<feComposite in2="hardAlpha" operator="out"/>
<feColorMatrix type="matrix" values="0 0 0 0 0 0 0 0 0 0 0 0 0 0 0 0 0 0 0.25 0"/>
<feBlend mode="normal" in2="BackgroundImageFix" result="effect1_dropShadow_1901_1438"/>
<feBlend mode="normal" in="SourceGraphic" in2="effect1_dropShadow_1901_1438" result="shape"/>
</filter>
<filter id="filter1_ii_1901_1438" x="11.8877" y="9.06613" width="24.2246" height="29.6816" filterUnits="userSpaceOnUse" color-interpolation-filters="sRGB">
<feFlood flood-opacity="0" result="BackgroundImageFix"/>
<feBlend mode="normal" in="SourceGraphic" in2="BackgroundImageFix" result="shape"/>
<feColorMatrix in="SourceAlpha" type="matrix" values="0 0 0 0 0 0 0 0 0 0 0 0 0 0 0 0 0 0 127 0" result="hardAlpha"/>
<feOffset dx="1"/>
<feGaussianBlur stdDeviation="0.7"/>
<feComposite in2="hardAlpha" operator="arithmetic" k2="-1" k3="1"/>
<feColorMatrix type="matrix" values="0 0 0 0 0.913725 0 0 0 0 0.686275 0 0 0 0 0.592157 0 0 0 1 0"/>
<feBlend mode="normal" in2="shape" result="effect1_innerShadow_1901_1438"/>
<feColorMatrix in="SourceAlpha" type="matrix" values="0 0 0 0 0 0 0 0 0 0 0 0 0 0 0 0 0 0 127 0" result="hardAlpha"/>
<feOffset dy="0.2"/>
<feGaussianBlur stdDeviation="0.375"/>
<feComposite in2="hardAlpha" operator="arithmetic" k2="-1" k3="1"/>
<feColorMatrix type="matrix" values="0 0 0 0 0.780392 0 0 0 0 0.568627 0 0 0 0 0.486275 0 0 0 1 0"/>
<feBlend mode="normal" in2="effect1_innerShadow_1901_1438" result="effect2_innerShadow_1901_1438"/>
</filter>
<filter id="filter2_f_1901_1438" x="20.0859" y="20.8261" width="5.96875" height="8.9277" filterUnits="userSpaceOnUse" color-interpolation-filters="sRGB">
<feFlood flood-opacity="0" result="BackgroundImageFix"/>
<feBlend mode="normal" in="SourceGraphic" in2="BackgroundImageFix" result="shape"/>
<feGaussianBlur stdDeviation="0.5" result="effect1_foregroundBlur_1901_1438"/>
</filter>
<filter id="filter3_f_1901_1438" x="21.0607" y="21.1706" width="4.66465" height="7.32834" filterUnits="userSpaceOnUse" color-interpolation-filters="sRGB">
<feFlood flood-opacity="0" result="BackgroundImageFix"/>
<feBlend mode="normal" in="SourceGraphic" in2="BackgroundImageFix" result="shape"/>
<feGaussianBlur stdDeviation="0.1" result="effect1_foregroundBlur_1901_1438"/>
</filter>
<filter id="filter4_f_1901_1438" x="19.4703" y="29.6292" width="7.84551" height="3.10366" filterUnits="userSpaceOnUse" color-interpolation-filters="sRGB">
<feFlood flood-opacity="0" result="BackgroundImageFix"/>
<feBlend mode="normal" in="SourceGraphic" in2="BackgroundImageFix" result="shape"/>
<feGaussianBlur stdDeviation="0.05" result="effect1_foregroundBlur_1901_1438"/>
</filter>
<filter id="filter5_i_1901_1438" x="8.76953" y="2.1727" width="29.249" height="19.2678" filterUnits="userSpaceOnUse" color-interpolation-filters="sRGB">
<feFlood flood-opacity="0" result="BackgroundImageFix"/>
<feBlend mode="normal" in="SourceGraphic" in2="BackgroundImageFix" result="shape"/>
<feColorMatrix in="SourceAlpha" type="matrix" values="0 0 0 0 0 0 0 0 0 0 0 0 0 0 0 0 0 0 127 0" result="hardAlpha"/>
<feOffset dy="-0.5"/>
<feGaussianBlur stdDeviation="0.625"/>
<feComposite in2="hardAlpha" operator="arithmetic" k2="-1" k3="1"/>
<feColorMatrix type="matrix" values="0 0 0 0 0.380392 0 0 0 0 0.341176 0 0 0 0 0.411765 0 0 0 1 0"/>
<feBlend mode="normal" in2="shape" result="effect1_innerShadow_1901_1438"/>
</filter>
<filter id="filter6_i_1901_1438" x="27.0225" y="15.286" width="5.18594" height="2.58007" filterUnits="userSpaceOnUse" color-interpolation-filters="sRGB">
<feFlood flood-opacity="0" result="BackgroundImageFix"/>
<feBlend mode="normal" in="SourceGraphic" in2="BackgroundImageFix" result="shape"/>
<feColorMatrix in="SourceAlpha" type="matrix" values="0 0 0 0 0 0 0 0 0 0 0 0 0 0 0 0 0 0 127 0" result="hardAlpha"/>
<feOffset dx="0.1" dy="-0.2"/>
<feGaussianBlur stdDeviation="0.125"/>
<feComposite in2="hardAlpha" operator="arithmetic" k2="-1" k3="1"/>
<feColorMatrix type="matrix" values="0 0 0 0 0.431373 0 0 0 0 0.384314 0 0 0 0 0.443137 0 0 0 1 0"/>
<feBlend mode="normal" in2="shape" result="effect1_innerShadow_1901_1438"/>
</filter>
<filter id="filter7_i_1901_1438" x="15.0596" y="15.3218" width="5.20645" height="2.53136" filterUnits="userSpaceOnUse" color-interpolation-filters="sRGB">
<feFlood flood-opacity="0" result="BackgroundImageFix"/>
<feBlend mode="normal" in="SourceGraphic" in2="BackgroundImageFix" result="shape"/>
<feColorMatrix in="SourceAlpha" type="matrix" values="0 0 0 0 0 0 0 0 0 0 0 0 0 0 0 0 0 0 127 0" result="hardAlpha"/>
<feOffset dx="0.1" dy="-0.2"/>
<feGaussianBlur stdDeviation="0.125"/>
<feComposite in2="hardAlpha" operator="arithmetic" k2="-1" k3="1"/>
<feColorMatrix type="matrix" values="0 0 0 0 0.431373 0 0 0 0 0.384314 0 0 0 0 0.443137 0 0 0 1 0"/>
<feBlend mode="normal" in2="shape" result="effect1_innerShadow_1901_1438"/>
</filter>
<filter id="filter8_f_1901_1438" x="9.64453" y="4.17673" width="14.8242" height="14.1186" filterUnits="userSpaceOnUse" color-interpolation-filters="sRGB">
<feFlood flood-opacity="0" result="BackgroundImageFix"/>
<feBlend mode="normal" in="SourceGraphic" in2="BackgroundImageFix" result="shape"/>
<feGaussianBlur stdDeviation="0.25" result="effect1_foregroundBlur_1901_1438"/>
</filter>
<filter id="filter9_f_1901_1438" x="22.8984" y="4.92911" width="14.5195" height="13.7672" filterUnits="userSpaceOnUse" color-interpolation-filters="sRGB">
<feFlood flood-opacity="0" result="BackgroundImageFix"/>
<feBlend mode="normal" in="SourceGraphic" in2="BackgroundImageFix" result="shape"/>
<feGaussianBlur stdDeviation="0.25" result="effect1_foregroundBlur_1901_1438"/>
</filter>
<filter id="filter10_f_1901_1438" x="26.8102" y="20.7071" width="1.53301" height="1.38512" filterUnits="userSpaceOnUse" color-interpolation-filters="sRGB">
<feFlood flood-opacity="0" result="BackgroundImageFix"/>
<feBlend mode="normal" in="SourceGraphic" in2="BackgroundImageFix" result="shape"/>
<feGaussianBlur stdDeviation="0.05" result="effect1_foregroundBlur_1901_1438"/>
</filter>
<filter id="filter11_f_1901_1438" x="28.8459" y="21.0252" width="1.51621" height="1.62617" filterUnits="userSpaceOnUse" color-interpolation-filters="sRGB">
<feFlood flood-opacity="0" result="BackgroundImageFix"/>
<feBlend mode="normal" in="SourceGraphic" in2="BackgroundImageFix" result="shape"/>
<feGaussianBlur stdDeviation="0.1" result="effect1_foregroundBlur_1901_1438"/>
</filter>
<filter id="filter12_f_1901_1438" x="18.7512" y="20.874" width="1.73105" height="1.92853" filterUnits="userSpaceOnUse" color-interpolation-filters="sRGB">
<feFlood flood-opacity="0" result="BackgroundImageFix"/>
<feBlend mode="normal" in="SourceGraphic" in2="BackgroundImageFix" result="shape"/>
<feGaussianBlur stdDeviation="0.1" result="effect1_foregroundBlur_1901_1438"/>
</filter>
<filter id="filter13_f_1901_1438" x="16.9078" y="20.6878" width="1.82012" height="1.40535" filterUnits="userSpaceOnUse" color-interpolation-filters="sRGB">
<feFlood flood-opacity="0" result="BackgroundImageFix"/>
<feBlend mode="normal" in="SourceGraphic" in2="BackgroundImageFix" result="shape"/>
<feGaussianBlur stdDeviation="0.05" result="effect1_foregroundBlur_1901_1438"/>
</filter>
<filter id="filter14_f_1901_1438" x="9.89551" y="20.6946" width="2.38184" height="4.9895" filterUnits="userSpaceOnUse" color-interpolation-filters="sRGB">
<feFlood flood-opacity="0" result="BackgroundImageFix"/>
<feBlend mode="normal" in="SourceGraphic" in2="BackgroundImageFix" result="shape"/>
<feGaussianBlur stdDeviation="0.125" result="effect1_foregroundBlur_1901_1438"/>
</filter>
<filter id="filter15_f_1901_1438" x="34.2676" y="20.4254" width="3.14453" height="5.54715" filterUnits="userSpaceOnUse" color-interpolation-filters="sRGB">
<feFlood flood-opacity="0" result="BackgroundImageFix"/>
<feBlend mode="normal" in="SourceGraphic" in2="BackgroundImageFix" result="shape"/>
<feGaussianBlur stdDeviation="0.25" result="effect1_foregroundBlur_1901_1438"/>
</filter>
<filter id="filter16_f_1901_1438" x="15.2025" y="15.5931" width="4.81074" height="2.02897" filterUnits="userSpaceOnUse" color-interpolation-filters="sRGB">
<feFlood flood-opacity="0" result="BackgroundImageFix"/>
<feBlend mode="normal" in="SourceGraphic" in2="BackgroundImageFix" result="shape"/>
<feGaussianBlur stdDeviation="0.2" result="effect1_foregroundBlur_1901_1438"/>
</filter>
<filter id="filter17_f_1901_1438" x="27.1986" y="15.4829" width="4.81074" height="2.02897" filterUnits="userSpaceOnUse" color-interpolation-filters="sRGB">
<feFlood flood-opacity="0" result="BackgroundImageFix"/>
<feBlend mode="normal" in="SourceGraphic" in2="BackgroundImageFix" result="shape"/>
<feGaussianBlur stdDeviation="0.2" result="effect1_foregroundBlur_1901_1438"/>
</filter>
<radialGradient id="paint0_radial_1901_1438" cx="0" cy="0" r="1" gradientUnits="userSpaceOnUse" gradientTransform="translate(35.9994 26.0553) rotate(103.035) scale(7.76754 8.8241)">
<stop offset="0.28" stop-color="#B8B6BA"/>
<stop offset="1" stop-color="#8B8295"/>
</radialGradient>
<radialGradient id="paint1_radial_1901_1438" cx="0" cy="0" r="1" gradientUnits="userSpaceOnUse" gradientTransform="translate(33.9738 26.7679) rotate(53.4318) scale(2.04032 1.75565)">
<stop stop-color="#8B878F"/>
<stop offset="1" stop-color="#8B878F" stop-opacity="0"/>
</radialGradient>
<radialGradient id="paint2_radial_1901_1438" cx="0" cy="0" r="1" gradientUnits="userSpaceOnUse" gradientTransform="translate(10.787 26.3361) rotate(65.6852) scale(7.02982 3.09371)">
<stop stop-color="#8C8589"/>
<stop offset="1" stop-color="#7C7081"/>
</radialGradient>
<radialGradient id="paint3_radial_1901_1438" cx="0" cy="0" r="1" gradientUnits="userSpaceOnUse" gradientTransform="translate(29.7728 23.8069) rotate(180) scale(14.1949 26.3984)">
<stop stop-color="#FFDCC0"/>
<stop offset="1" stop-color="#D6A195"/>
</radialGradient>
<linearGradient id="paint4_linear_1901_1438" x1="35.111" y1="27.8339" x2="32.5649" y2="27.7759" gradientUnits="userSpaceOnUse">
<stop stop-color="#FFD6BA"/>
<stop offset="1" stop-color="#FFD6BA" stop-opacity="0"/>
</linearGradient>
<radialGradient id="paint5_radial_1901_1438" cx="0" cy="0" r="1" gradientUnits="userSpaceOnUse" gradientTransform="translate(26.9856 9.68113) rotate(94.2529) scale(30.5841 24.1057)">
<stop offset="0.767" stop-color="#B57997" stop-opacity="0"/>
<stop offset="1" stop-color="#B57997"/>
</radialGradient>
<radialGradient id="paint6_radial_1901_1438" cx="0" cy="0" r="1" gradientUnits="userSpaceOnUse" gradientTransform="translate(28.9539 20.6717) rotate(-90) scale(2.74316 3.22907)">
<stop offset="0.325" stop-color="#F6B8A8"/>
<stop offset="1" stop-color="#F6B8A8" stop-opacity="0"/>
</radialGradient>
<radialGradient id="paint7_radial_1901_1438" cx="0" cy="0" r="1" gradientUnits="userSpaceOnUse" gradientTransform="translate(18.1667 20.7819) rotate(-89.8042) scale(2.61401 2.70589)">
<stop offset="0.378" stop-color="#D39991"/>
<stop offset="1" stop-color="#D39991" stop-opacity="0"/>
</radialGradient>
<radialGradient id="paint8_radial_1901_1438" cx="0" cy="0" r="1" gradientUnits="userSpaceOnUse" gradientTransform="translate(31.1927 26.1689) rotate(176.203) scale(19.3474 51.9359)">
<stop offset="0.836" stop-color="#E6AD97" stop-opacity="0"/>
<stop offset="1" stop-color="#E6AD97"/>
</radialGradient>
<radialGradient id="paint9_radial_1901_1438" cx="0" cy="0" r="1" gradientUnits="userSpaceOnUse" gradientTransform="translate(10.97 13.4749) rotate(-48.039) scale(10.5296 3.839)">
<stop offset="0.428" stop-color="#CC8874"/>
<stop offset="1" stop-color="#CC8874" stop-opacity="0"/>
</radialGradient>
<radialGradient id="paint10_radial_1901_1438" cx="0" cy="0" r="1" gradientUnits="userSpaceOnUse" gradientTransform="translate(28.9088 11.9144) rotate(119.905) scale(7.94456 6.40208)">
<stop offset="0.078" stop-color="#F6C3B0"/>
<stop offset="1" stop-color="#F6C3B0" stop-opacity="0"/>
</radialGradient>
<linearGradient id="paint11_linear_1901_1438" x1="16.675" y1="14.4551" x2="31.5743" y2="14.4551" gradientUnits="userSpaceOnUse">
<stop stop-color="#DA9C90"/>
<stop offset="1" stop-color="#D5988D"/>
</linearGradient>
<radialGradient id="paint12_radial_1901_1438" cx="0" cy="0" r="1" gradientUnits="userSpaceOnUse" gradientTransform="translate(28.1843 12.6942) rotate(95.5722) scale(1.56893 2.79881)">
<stop offset="0.526" stop-color="#C0857B"/>
<stop offset="1" stop-color="#C0857B" stop-opacity="0"/>
</radialGradient>
<linearGradient id="paint13_linear_1901_1438" x1="20.2627" y1="11.2712" x2="27.1852" y2="11.2712" gradientUnits="userSpaceOnUse">
<stop stop-color="#DA9E8F"/>
<stop offset="1" stop-color="#BE8477"/>
</linearGradient>
<linearGradient id="paint14_linear_1901_1438" x1="25.2975" y1="25.42" x2="23.3923" y2="25.4954" gradientUnits="userSpaceOnUse">
<stop offset="0.36" stop-color="#FFDFC7"/>
<stop offset="1" stop-color="#FFDFC7" stop-opacity="0"/>
</linearGradient>
<radialGradient id="paint15_radial_1901_1438" cx="0" cy="0" r="1" gradientUnits="userSpaceOnUse" gradientTransform="translate(24.4529 27.0575) rotate(90) scale(0.583097 1.74323)">
<stop stop-color="#FFDDC7"/>
<stop offset="1" stop-color="#FFDDC7" stop-opacity="0"/>
</radialGradient>
<linearGradient id="paint16_linear_1901_1438" x1="23.3926" y1="28.1401" x2="23.3926" y2="27.0306" gradientUnits="userSpaceOnUse">
<stop stop-color="#D89793"/>
<stop offset="1" stop-color="#D89793" stop-opacity="0"/>
</linearGradient>
<radialGradient id="paint17_radial_1901_1438" cx="0" cy="0" r="1" gradientUnits="userSpaceOnUse" gradientTransform="translate(24.7171 25.6979) rotate(154.266) scale(3.83698 6.36625)">
<stop offset="0.714" stop-color="#D3968C" stop-opacity="0"/>
<stop offset="1" stop-color="#D3968C"/>
</radialGradient>
<linearGradient id="paint18_linear_1901_1438" x1="23.3926" y1="21.3713" x2="23.3926" y2="22.9844" gradientUnits="userSpaceOnUse">
<stop stop-color="#E8BBA8"/>
<stop offset="1" stop-color="#E8BBA8" stop-opacity="0"/>
</linearGradient>
<linearGradient id="paint19_linear_1901_1438" x1="20.6627" y1="31.8929" x2="21.4523" y2="29.9256" gradientUnits="userSpaceOnUse">
<stop stop-color="#E1ACA6"/>
<stop offset="1" stop-color="#E1ACA6" stop-opacity="0"/>
</linearGradient>
<radialGradient id="paint20_radial_1901_1438" cx="0" cy="0" r="1" gradientUnits="userSpaceOnUse" gradientTransform="translate(23.3926 32.2619) rotate(-90) scale(1.72168 6.58887)">
<stop stop-color="#88014E"/>
<stop offset="1" stop-color="#86004D"/>
</radialGradient>
<linearGradient id="paint21_linear_1901_1438" x1="35.5804" y1="10.2808" x2="12.5765" y2="10.2808" gradientUnits="userSpaceOnUse">
<stop stop-color="#BEBEBE"/>
<stop offset="1" stop-color="#848180"/>
</linearGradient>
<radialGradient id="paint22_radial_1901_1438" cx="0" cy="0" r="1" gradientUnits="userSpaceOnUse" gradientTransform="translate(11.5101 20.0285) rotate(-90) scale(8.6776 14.625)">
<stop offset="0.216" stop-color="#857F81"/>
<stop offset="1" stop-color="#857F81" stop-opacity="0"/>
</radialGradient>
<radialGradient id="paint23_radial_1901_1438" cx="0" cy="0" r="1" gradientUnits="userSpaceOnUse" gradientTransform="translate(34.4385 20.0285) rotate(-90) scale(8.6776 14.625)">
<stop stop-color="#9E9C9F"/>
<stop offset="1" stop-color="#9E9C9F" stop-opacity="0"/>
</radialGradient>
<radialGradient id="paint24_radial_1901_1438" cx="0" cy="0" r="1" gradientUnits="userSpaceOnUse" gradientTransform="translate(32.9041 6.88929) rotate(-147.523) scale(8.97079 4.8847)">
<stop stop-color="#B9B9B9"/>
<stop offset="1" stop-color="#B9B9B9" stop-opacity="0"/>
</radialGradient>
<radialGradient id="paint25_radial_1901_1438" cx="0" cy="0" r="1" gradientUnits="userSpaceOnUse" gradientTransform="translate(14.6338 4.37932) rotate(40.335) scale(5.19622 12.7505)">
<stop offset="0.287" stop-color="#828080"/>
<stop offset="1" stop-color="#828080" stop-opacity="0"/>
</radialGradient>
<radialGradient id="paint26_radial_1901_1438" cx="0" cy="0" r="1" gradientUnits="userSpaceOnUse" gradientTransform="translate(11.8091 11.3568) rotate(-126.665) scale(2.8203 5.10825)">
<stop offset="0.45" stop-color="#8C8588"/>
<stop offset="1" stop-color="#8C8588" stop-opacity="0"/>
</radialGradient>
<radialGradient id="paint27_radial_1901_1438" cx="0" cy="0" r="1" gradientUnits="userSpaceOnUse" gradientTransform="translate(23.9688 4.67659) rotate(159.248) scale(10.5979 3.06384)">
<stop stop-color="#B3B3B3"/>
<stop offset="1" stop-color="#B3B3B3" stop-opacity="0"/>
</radialGradient>
<radialGradient id="paint28_radial_1901_1438" cx="0" cy="0" r="1" gradientUnits="userSpaceOnUse" gradientTransform="translate(10.8315 16.9401) rotate(-60.0303) scale(15.0827 16.3122)">
<stop stop-color="#695E6F"/>
<stop offset="0.233" stop-color="#837D89"/>
<stop offset="1" stop-color="#837D89" stop-opacity="0"/>
</radialGradient>
<radialGradient id="paint29_radial_1901_1438" cx="0" cy="0" r="1" gradientUnits="userSpaceOnUse" gradientTransform="translate(31.6205 7.19679) rotate(12.8578) scale(8.89598 5.76596)">
<stop stop-color="#C2C2C3"/>
<stop offset="1" stop-color="#C2C2C3" stop-opacity="0"/>
</radialGradient>
<radialGradient id="paint30_radial_1901_1438" cx="0" cy="0" r="1" gradientUnits="userSpaceOnUse" gradientTransform="translate(33.639 17.4792) rotate(-109.323) scale(7.84954 5.40963)">
<stop stop-color="#69616E"/>
<stop offset="1" stop-color="#69616E" stop-opacity="0"/>
</radialGradient>
<radialGradient id="paint31_radial_1901_1438" cx="0" cy="0" r="1" gradientUnits="userSpaceOnUse" gradientTransform="translate(35.0464 18.1965) rotate(-118.891) scale(10.105 5.4922)">
<stop stop-color="#716877"/>
<stop offset="1" stop-color="#716877" stop-opacity="0"/>
</radialGradient>
<radialGradient id="paint32_radial_1901_1438" cx="0" cy="0" r="1" gradientUnits="userSpaceOnUse" gradientTransform="translate(34.2869 6.91965) rotate(165.844) scale(11.2447 12.7066)">
<stop offset="0.596" stop-color="#7B797E" stop-opacity="0"/>
<stop offset="1" stop-color="#7B797E"/>
</radialGradient>
<radialGradient id="paint33_radial_1901_1438" cx="0" cy="0" r="1" gradientUnits="userSpaceOnUse" gradientTransform="translate(31.3426 6.09363) rotate(102.551) scale(1.92791 10.9178)">
<stop offset="0.461" stop-color="#A6A6A6"/>
<stop offset="1" stop-color="#A6A6A6" stop-opacity="0"/>
</radialGradient>
<radialGradient id="paint34_radial_1901_1438" cx="0" cy="0" r="1" gradientUnits="userSpaceOnUse" gradientTransform="translate(28.35 21.6186) rotate(90) scale(1.93806 2.93232)">
<stop offset="0.802" stop-color="#7D574A"/>
<stop offset="1" stop-color="#664842"/>
</radialGradient>
<radialGradient id="paint35_radial_1901_1438" cx="0" cy="0" r="1" gradientUnits="userSpaceOnUse" gradientTransform="translate(27.8329 21.8192) rotate(-126.433) scale(0.887329 1.20517)">
<stop offset="0.766" stop-color="#FFE6E2" stop-opacity="0"/>
<stop offset="0.966" stop-color="#FFE6E2"/>
</radialGradient>
<linearGradient id="paint36_linear_1901_1438" x1="30.1184" y1="21.7479" x2="29.3863" y2="22.1765" gradientUnits="userSpaceOnUse">
<stop stop-color="#B4948D"/>
<stop offset="1" stop-color="#B4948D" stop-opacity="0"/>
</linearGradient>
<radialGradient id="paint37_radial_1901_1438" cx="0" cy="0" r="1" gradientUnits="userSpaceOnUse" gradientTransform="translate(18.4347 21.6186) rotate(90) scale(1.93816 2.93248)">
<stop offset="0.802" stop-color="#7D574A"/>
<stop offset="1" stop-color="#664842"/>
</radialGradient>
<linearGradient id="paint38_linear_1901_1438" x1="20.1248" y1="21.7479" x2="19.3927" y2="22.1765" gradientUnits="userSpaceOnUse">
<stop stop-color="#B4948D"/>
<stop offset="1" stop-color="#B4948D" stop-opacity="0"/>
</linearGradient>
<radialGradient id="paint39_radial_1901_1438" cx="0" cy="0" r="1" gradientUnits="userSpaceOnUse" gradientTransform="translate(18.1231 22.0723) rotate(-117.617) scale(1.16728 1.36485)">
<stop offset="0.766" stop-color="#FFE6E2" stop-opacity="0"/>
<stop offset="0.966" stop-color="#FFE6E2"/>
</radialGradient>
<linearGradient id="paint40_linear_1901_1438" x1="38.0177" y1="21.812" x2="35.0602" y2="26.8845" gradientUnits="userSpaceOnUse">
<stop stop-color="#FFD6BD"/>
<stop offset="1" stop-color="#F0B8A6"/>
</linearGradient>
<radialGradient id="paint41_radial_1901_1438" cx="0" cy="0" r="1" gradientUnits="userSpaceOnUse" gradientTransform="translate(33.8853 21.6522) rotate(75.0757) scale(5.54574 5.06809)">
<stop offset="0.856" stop-color="#CE978E" stop-opacity="0"/>
<stop offset="1" stop-color="#CE978E"/>
</radialGradient>
<radialGradient id="paint42_radial_1901_1438" cx="0" cy="0" r="1" gradientUnits="userSpaceOnUse" gradientTransform="translate(34.7051 22.9536) rotate(-55.2728) scale(3.14224 2.59087)">
<stop offset="0.664" stop-color="#F7B99C"/>
<stop offset="1" stop-color="#F7B99C" stop-opacity="0"/>
</radialGradient>
<radialGradient id="paint43_radial_1901_1438" cx="0" cy="0" r="1" gradientUnits="userSpaceOnUse" gradientTransform="translate(34.9635 23.3649) rotate(-70.1943) scale(3.93646 5.06352)">
<stop offset="0.803" stop-color="#EBBB9D" stop-opacity="0"/>
<stop offset="1" stop-color="#EBBB9D"/>
</radialGradient>
<linearGradient id="paint44_linear_1901_1438" x1="10.1009" y1="23.4943" x2="13.4171" y2="23.2182" gradientUnits="userSpaceOnUse">
<stop stop-color="#D19787"/>
<stop offset="1" stop-color="#C9887D"/>
</linearGradient>
<radialGradient id="paint45_radial_1901_1438" cx="0" cy="0" r="1" gradientUnits="userSpaceOnUse" gradientTransform="translate(12.2245 23.189) rotate(-172.681) scale(3.69563 4.1641)">
<stop offset="0.775" stop-color="#E8AF99" stop-opacity="0"/>
<stop offset="1" stop-color="#E8AF99"/>
</radialGradient>
<radialGradient id="paint46_radial_1901_1438" cx="0" cy="0" r="1" gradientUnits="userSpaceOnUse" gradientTransform="translate(12.2261 23.1906) rotate(169.771) scale(2.11611 2.72154)">
<stop stop-color="#C18472"/>
<stop offset="1" stop-color="#CA8B7A"/>
</radialGradient>
<linearGradient id="paint47_linear_1901_1438" x1="35.8437" y1="20.9254" x2="35.8437" y2="25.4725" gradientUnits="userSpaceOnUse">
<stop stop-color="#F9BB9E"/>
<stop offset="1" stop-color="#F6BBA0"/>
</linearGradient>
</defs>
</svg>
