<svg width="227" height="227" viewBox="0 0 227 227" fill="none" xmlns="http://www.w3.org/2000/svg">
<g filter="url(#filter0_i_585_3)">
<path d="M0 50C0 22.3858 22.3858 0 50 0H177C204.614 0 227 22.3858 227 50V177C227 204.614 204.614 227 177 227H50C22.3858 227 0 204.614 0 177V50Z" fill="#95D1D9"/>
</g>
<path d="M90.64 171H92.52V188.08H90.64V179.76H87.86V187.78H85.98V171.1H87.86V177.88H90.64V171ZM81.56 173.42C81.54 175.34 81.44 177.06 81.26 178.58L85.42 185.9L83.8 186.82L80.76 181.3C79.92 184.76 78.42 186.68 76.24 187.06V185.12C78.5 184.5 79.62 179.98 79.66 173.42H76.5V171.62H84.54V173.42H81.56ZM109.198 182.88V173.46H96.3783V171.6H111.258V182.88H109.198ZM103.738 185.4H112.398V187.26H95.3383V185.4H101.698V177.78H103.738V185.4ZM126.077 172.98V174.72H114.497V172.98H119.277V170.82H121.297V172.98H126.077ZM132.437 177.76V179.66H130.077V188.08H128.097V171H130.077V177.76H132.437ZM121.277 182.78V185.3C123.537 185.28 125.497 185.08 126.677 184.54V186.34C125.597 186.82 123.497 187.06 121.097 187.06H114.577V185.3H119.297V182.76C116.877 182.5 115.377 181.22 115.377 179.3C115.377 177.12 117.297 175.76 120.317 175.76C123.337 175.76 125.257 177.12 125.257 179.3C125.257 181.24 123.737 182.52 121.277 182.78ZM117.257 179.3C117.257 180.38 118.297 181.2 120.317 181.2C122.337 181.2 123.377 180.38 123.377 179.3C123.377 178.22 122.337 177.38 120.317 177.38C118.297 177.38 117.257 178.22 117.257 179.3ZM147.935 183.7V178.82H145.135V177.06H147.935V174.66H145.135V172.9H147.935V171H149.895V183.7H147.935ZM144.135 171.42V180.66H134.535V171.42H144.135ZM142.175 178.94V173.14H136.475V178.94H142.175ZM137.375 186.08H150.255V187.86H135.355V182.32H137.375V186.08Z" fill="black"/>
<path d="M75.5 44.75H150.5V57.25H75.5V44.75ZM144.25 63.5H81.75C74.875 63.5 69.25 69.125 69.25 76V144.75C69.25 151.625 74.875 157.25 81.75 157.25H144.25C151.125 157.25 156.75 151.625 156.75 144.75V76C156.75 69.125 151.125 63.5 144.25 63.5ZM138 119.75H122.375V135.375H103.625V119.75H88V101H103.625V85.375H122.375V101H138V119.75Z" fill="black" fill-opacity="0.5"/>
<defs>
<filter id="filter0_i_585_3" x="-5" y="-5" width="232" height="232" filterUnits="userSpaceOnUse" color-interpolation-filters="sRGB">
<feFlood flood-opacity="0" result="BackgroundImageFix"/>
<feBlend mode="normal" in="SourceGraphic" in2="BackgroundImageFix" result="shape"/>
<feColorMatrix in="SourceAlpha" type="matrix" values="0 0 0 0 0 0 0 0 0 0 0 0 0 0 0 0 0 0 127 0" result="hardAlpha"/>
<feOffset dx="-5" dy="-5"/>
<feGaussianBlur stdDeviation="5"/>
<feComposite in2="hardAlpha" operator="arithmetic" k2="-1" k3="1"/>
<feColorMatrix type="matrix" values="0 0 0 0 0 0 0 0 0 0 0 0 0 0 0 0 0 0 0.25 0"/>
<feBlend mode="normal" in2="shape" result="effect1_innerShadow_585_3"/>
</filter>
</defs>
</svg>
