<svg width="227" height="227" viewBox="0 0 227 227" fill="none" xmlns="http://www.w3.org/2000/svg">
<g filter="url(#filter0_i_585_2)">
<path d="M0 50C0 22.3858 22.3858 0 50 0H177C204.614 0 227 22.3858 227 50V177C227 204.614 204.614 227 177 227H50C22.3858 227 0 204.614 0 177V50Z" fill="#AED391"/>
</g>
<path d="M84.28 176.54C82.56 178.58 79.74 179.82 76.66 180.02V178.18C80.14 177.9 83.04 176.08 83.76 173.24H77.08V171.44H92.16V173.24H85.86C85.74 173.86 85.54 174.46 85.28 175L92.72 178.3L91.9 179.96L84.28 176.54ZM93.16 181.86V183.7H85.6V188.48H83.6V183.7H76.1V181.86H93.16ZM109.298 183.68V171H111.278V183.68H109.298ZM96.1183 180.64V171.42H106.278V180.64H96.1183ZM98.0783 178.92H104.318V173.14H98.0783V178.92ZM96.7983 187.86V182.32H98.7983V186.06H111.738V187.86H96.7983ZM126.077 172.98V174.72H114.497V172.98H119.277V170.82H121.297V172.98H126.077ZM132.437 177.76V179.66H130.077V188.08H128.097V171H130.077V177.76H132.437ZM121.277 182.78V185.3C123.537 185.28 125.497 185.08 126.677 184.54V186.34C125.597 186.82 123.497 187.06 121.097 187.06H114.577V185.3H119.297V182.76C116.877 182.5 115.377 181.22 115.377 179.3C115.377 177.12 117.297 175.76 120.317 175.76C123.337 175.76 125.257 177.12 125.257 179.3C125.257 181.24 123.737 182.52 121.277 182.78ZM117.257 179.3C117.257 180.38 118.297 181.2 120.317 181.2C122.337 181.2 123.377 180.38 123.377 179.3C123.377 178.22 122.337 177.38 120.317 177.38C118.297 177.38 117.257 178.22 117.257 179.3ZM147.935 183.7V178.82H145.135V177.06H147.935V174.66H145.135V172.9H147.935V171H149.895V183.7H147.935ZM144.135 171.42V180.66H134.535V171.42H144.135ZM142.175 178.94V173.14H136.475V178.94H142.175ZM137.375 186.08H150.255V187.86H135.355V182.32H137.375V186.08Z" fill="black"/>
<path d="M82.5312 95C94.181 95 103.625 85.556 103.625 73.9062C103.625 62.2565 94.181 52.8125 82.5312 52.8125C70.8815 52.8125 61.4375 62.2565 61.4375 73.9062C61.4375 85.556 70.8815 95 82.5312 95Z" fill="black" fill-opacity="0.5"/>
<path d="M106.555 106.719C98.3047 102.529 89.1992 100.859 82.5312 100.859C69.4707 100.859 42.6875 108.869 42.6875 124.883V137.188H86.6328V132.479C86.6328 126.913 88.9766 121.332 93.0781 116.68C96.3506 112.965 100.933 109.517 106.555 106.719Z" fill="black" fill-opacity="0.5"/>
<path d="M137.609 104.375C122.354 104.375 91.9062 113.797 91.9062 132.5V146.562H183.312V132.5C183.312 113.797 152.864 104.375 137.609 104.375Z" fill="black" fill-opacity="0.5"/>
<path d="M137.609 95C151.848 95 163.391 83.4573 163.391 69.2188C163.391 54.9802 151.848 43.4375 137.609 43.4375C123.371 43.4375 111.828 54.9802 111.828 69.2188C111.828 83.4573 123.371 95 137.609 95Z" fill="black" fill-opacity="0.5"/>
<defs>
<filter id="filter0_i_585_2" x="-5" y="-5" width="232" height="232" filterUnits="userSpaceOnUse" color-interpolation-filters="sRGB">
<feFlood flood-opacity="0" result="BackgroundImageFix"/>
<feBlend mode="normal" in="SourceGraphic" in2="BackgroundImageFix" result="shape"/>
<feColorMatrix in="SourceAlpha" type="matrix" values="0 0 0 0 0 0 0 0 0 0 0 0 0 0 0 0 0 0 127 0" result="hardAlpha"/>
<feOffset dx="-5" dy="-5"/>
<feGaussianBlur stdDeviation="5"/>
<feComposite in2="hardAlpha" operator="arithmetic" k2="-1" k3="1"/>
<feColorMatrix type="matrix" values="0 0 0 0 0 0 0 0 0 0 0 0 0 0 0 0 0 0 0.25 0"/>
<feBlend mode="normal" in2="shape" result="effect1_innerShadow_585_2"/>
</filter>
</defs>
</svg>
