<svg width="45" height="31" viewBox="0 0 45 31" fill="none" xmlns="http://www.w3.org/2000/svg">
<path fill-rule="evenodd" clip-rule="evenodd" d="M0.15625 1.75C0.15625 1.29416 0.337332 0.856988 0.65966 0.53466C0.981988 0.212332 1.41916 0.03125 1.875 0.03125H43.125C43.5808 0.03125 44.018 0.212332 44.3403 0.53466C44.6627 0.856988 44.8438 1.29416 44.8438 1.75C44.8438 2.20584 44.6627 2.64301 44.3403 2.96534C44.018 3.28767 43.5808 3.46875 43.125 3.46875H1.875C1.41916 3.46875 0.981988 3.28767 0.65966 2.96534C0.337332 2.64301 0.15625 2.20584 0.15625 1.75ZM0.15625 10.9167C0.15625 10.4608 0.337332 10.0237 0.65966 9.70133C0.981988 9.379 1.41916 9.19792 1.875 9.19792H43.125C43.5808 9.19792 44.018 9.379 44.3403 9.70133C44.6627 10.0237 44.8438 10.4608 44.8438 10.9167C44.8438 11.3725 44.6627 11.8097 44.3403 12.132C44.018 12.4543 43.5808 12.6354 43.125 12.6354H1.875C1.41916 12.6354 0.981988 12.4543 0.65966 12.132C0.337332 11.8097 0.15625 11.3725 0.15625 10.9167ZM0.15625 20.0833C0.15625 19.6275 0.337332 19.1903 0.65966 18.868C0.981988 18.5457 1.41916 18.3646 1.875 18.3646H20.2083C20.6642 18.3646 21.1013 18.5457 21.4237 18.868C21.746 19.1903 21.9271 19.6275 21.9271 20.0833C21.9271 20.5392 21.746 20.9763 21.4237 21.2987C21.1013 21.621 20.6642 21.8021 20.2083 21.8021H1.875C1.41916 21.8021 0.981988 21.621 0.65966 21.2987C0.337332 20.9763 0.15625 20.5392 0.15625 20.0833ZM33.9858 21.0688C34.2973 20.8019 34.694 20.6552 35.1042 20.6552C35.5144 20.6552 35.911 20.8019 36.2225 21.0688L44.2433 27.9438C44.4149 28.0906 44.5558 28.2698 44.6581 28.4712C44.7604 28.6725 44.822 28.892 44.8394 29.1171C44.8569 29.3423 44.8298 29.5686 44.7598 29.7833C44.6898 29.998 44.5781 30.1968 44.4313 30.3683C44.2844 30.5399 44.1052 30.6808 43.9039 30.7831C43.7025 30.8854 43.483 30.947 43.2579 30.9644C43.0327 30.9819 42.8064 30.9548 42.5917 30.8848C42.377 30.8148 42.1782 30.7031 42.0067 30.5562L35.1042 24.6369L28.2017 30.5517C28.0317 30.7073 27.8323 30.8271 27.6151 30.9041C27.3979 30.9811 27.1675 31.0136 26.9375 30.9997C26.7075 30.9859 26.4826 30.9259 26.2763 30.8234C26.0699 30.7209 25.8863 30.5779 25.7363 30.403C25.5863 30.2281 25.4729 30.0249 25.4031 29.8053C25.3332 29.5857 25.3082 29.3543 25.3295 29.1249C25.3509 28.8955 25.4181 28.6727 25.5273 28.4698C25.6365 28.2669 25.7853 28.088 25.965 27.9438L33.9858 21.0688ZM0.15625 29.25C0.15625 28.7942 0.337332 28.357 0.65966 28.0347C0.981988 27.7123 1.41916 27.5312 1.875 27.5312H20.2083C20.6642 27.5312 21.1013 27.7123 21.4237 28.0347C21.746 28.357 21.9271 28.7942 21.9271 29.25C21.9271 29.7058 21.746 30.143 21.4237 30.4653C21.1013 30.7877 20.6642 30.9688 20.2083 30.9688H1.875C1.41916 30.9688 0.981988 30.7877 0.65966 30.4653C0.337332 30.143 0.15625 29.7058 0.15625 29.25Z" fill="#AED391"/>
</svg>
