<svg width="227" height="227" viewBox="0 0 227 227" fill="none" xmlns="http://www.w3.org/2000/svg">
<g filter="url(#filter0_i_585_4)">
<path d="M0 50C0 22.3858 22.3858 0 50 0H177C204.614 0 227 22.3858 227 50V177C227 204.614 204.614 227 177 227H50C22.3858 227 0 204.614 0 177V50Z" fill="#AED391"/>
</g>
<path d="M68.62 171H70.52V188.08H68.62V179.74H65.7V187.78H63.8V171.1H65.7V177.88H68.62V171ZM54.48 173.42V171.62H61.62V176.22C61.62 182.82 58.66 186.98 54.48 187.02V185.16C57.66 185.06 59.7 181.6 59.7 176.32V173.42H54.48ZM87.2983 183.68V171H89.2783V183.68H87.2983ZM78.9183 181.1C75.5783 181.1 73.4983 179 73.4983 176.14C73.4983 173.28 75.5783 171.18 78.9183 171.18C82.2583 171.18 84.3183 173.28 84.3183 176.14C84.3183 179 82.2583 181.1 78.9183 181.1ZM78.9183 179.42C80.9383 179.42 82.3383 178.16 82.3383 176.14C82.3383 174.12 80.9383 172.84 78.9183 172.84C76.8783 172.84 75.4783 174.12 75.4783 176.14C75.4783 178.16 76.8783 179.42 78.9183 179.42ZM74.9983 187.86V182.28H77.0183V186.06H89.7383V187.86H74.9983ZM103.357 174.22H106.677V171H108.657V180.6H106.677V175.94H103.357V174.22ZM98.5966 176.72C97.4166 178.58 95.4366 179.86 92.9166 180.1V178.32C95.7366 177.94 97.4966 175.92 97.7366 173.14H93.1366V171.44H104.037V173.14H99.7166C99.6766 173.84 99.5366 174.5 99.3366 175.14L104.597 178.46L103.617 179.94L98.5966 176.72ZM101.417 181.16C105.557 181.16 108.797 182.12 108.797 184.62C108.797 187.12 105.557 188.08 101.417 188.08C97.2766 188.08 94.0366 187.12 94.0366 184.62C94.0366 182.12 97.2766 181.16 101.417 181.16ZM101.417 186.46C104.357 186.46 106.697 185.88 106.697 184.62C106.697 183.36 104.357 182.78 101.417 182.78C98.4766 182.78 96.1366 183.36 96.1366 184.62C96.1366 185.88 98.4766 186.46 101.417 186.46ZM121.335 185.4H128.875V187.26H111.815V185.4H119.315V181.56H112.935V171.5H114.895V174.56H125.775V171.5H127.735V181.56H121.335V185.4ZM114.895 176.34V179.78H125.775V176.34H114.895ZM150.779 183.68V178.84H147.979V177.08H150.779V174.7H147.979V172.94H150.779V171H152.739V183.68H150.779ZM147.099 171.3V180.92H137.359V171.3H139.299V174.24H145.159V171.3H147.099ZM139.299 179.22H145.159V175.92H139.299V179.22ZM140.219 186.06H153.099V187.86H138.199V182.4H140.219V186.06ZM169.997 180.44V178.58H166.357V176.84H169.997V174.58H167.017V172.84H169.997V171H171.977V180.44H169.997ZM166.177 173.28C166.177 177.92 162.337 179.9 156.437 179.9V178.18C161.217 178.16 164.177 176.68 164.177 173.62V173.1H156.437V171.42H166.177V173.28ZM164.777 181C168.857 181 172.217 181.94 172.217 184.54C172.217 187.12 168.857 188.08 164.777 188.08C160.697 188.08 157.337 187.12 157.337 184.54C157.337 181.94 160.697 181 164.777 181ZM164.777 186.44C167.677 186.44 170.117 185.88 170.117 184.54C170.117 183.2 167.677 182.64 164.777 182.64C161.897 182.64 159.437 183.2 159.437 184.54C159.437 185.88 161.897 186.44 164.777 186.44Z" fill="black"/>
<g opacity="0.5" clip-path="url(#clip0_585_4)">
<path d="M131.75 123.5C154.531 123.5 173 105.031 173 82.25C173 59.4688 154.531 41 131.75 41C108.969 41 90.5 59.4688 90.5 82.25C90.5 86.6328 91.1797 90.875 92.4453 94.8359L54.6406 132.641C53.5859 133.695 53 135.125 53 136.625V155.375C53 158.492 55.5078 161 58.625 161H77.375C80.4922 161 83 158.492 83 155.375V146H92.375C95.4922 146 98 143.492 98 140.375V131H107.375C108.875 131 110.305 130.414 111.359 129.359L119.164 121.555C123.125 122.82 127.367 123.5 131.75 123.5ZM141.125 63.5C143.611 63.5 145.996 64.4877 147.754 66.2459C149.512 68.004 150.5 70.3886 150.5 72.875C150.5 75.3614 149.512 77.746 147.754 79.5041C145.996 81.2623 143.611 82.25 141.125 82.25C138.639 82.25 136.254 81.2623 134.496 79.5041C132.738 77.746 131.75 75.3614 131.75 72.875C131.75 70.3886 132.738 68.004 134.496 66.2459C136.254 64.4877 138.639 63.5 141.125 63.5Z" fill="black"/>
</g>
<defs>
<filter id="filter0_i_585_4" x="-5" y="-5" width="232" height="232" filterUnits="userSpaceOnUse" color-interpolation-filters="sRGB">
<feFlood flood-opacity="0" result="BackgroundImageFix"/>
<feBlend mode="normal" in="SourceGraphic" in2="BackgroundImageFix" result="shape"/>
<feColorMatrix in="SourceAlpha" type="matrix" values="0 0 0 0 0 0 0 0 0 0 0 0 0 0 0 0 0 0 127 0" result="hardAlpha"/>
<feOffset dx="-5" dy="-5"/>
<feGaussianBlur stdDeviation="5"/>
<feComposite in2="hardAlpha" operator="arithmetic" k2="-1" k3="1"/>
<feColorMatrix type="matrix" values="0 0 0 0 0 0 0 0 0 0 0 0 0 0 0 0 0 0 0.25 0"/>
<feBlend mode="normal" in2="shape" result="effect1_innerShadow_585_4"/>
</filter>
<clipPath id="clip0_585_4">
<rect width="120" height="120" fill="white" transform="translate(53 41)"/>
</clipPath>
</defs>
</svg>
