<svg width="34" height="25" viewBox="0 0 34 25" fill="none" xmlns="http://www.w3.org/2000/svg">
<path d="M3.73564 1.78571V23.2143C3.73564 23.6879 3.53885 24.1421 3.18857 24.477C2.83828 24.8119 2.3632 25 1.86782 25C1.37244 25 0.897356 24.8119 0.547072 24.477C0.196788 24.1421 0 23.6879 0 23.2143V1.78571C0 1.31211 0.196788 0.85791 0.547072 0.523023C0.897356 0.188137 1.37244 0 1.86782 0C2.3632 0 2.83828 0.188137 3.18857 0.523023C3.53885 0.85791 3.73564 1.31211 3.73564 1.78571ZM16.6127 9.33036L14.3199 10.0417V7.7381C14.3199 7.26449 14.1232 6.81029 13.7729 6.4754C13.4226 6.14052 12.9475 5.95238 12.4521 5.95238C11.9568 5.95238 11.4817 6.14052 11.1314 6.4754C10.7811 6.81029 10.5843 7.26449 10.5843 7.7381V10.0417L8.29156 9.33036C8.05657 9.25133 7.80743 9.21804 7.55878 9.23244C7.31013 9.24684 7.06701 9.30865 6.84373 9.41422C6.62044 9.5198 6.4215 9.66701 6.25861 9.84718C6.09571 10.0274 5.97217 10.2369 5.89523 10.4634C5.8183 10.6899 5.78954 10.9288 5.81063 11.1661C5.83173 11.4034 5.90226 11.6343 6.01808 11.8451C6.1339 12.056 6.29266 12.2425 6.48502 12.3939C6.67738 12.5452 6.89946 12.6582 7.13818 12.7262L9.42937 13.439L8.01295 15.3021C7.72171 15.6853 7.60163 16.1634 7.67913 16.6313C7.75663 17.0992 8.02536 17.5184 8.4262 17.7969C8.82704 18.0753 9.32716 18.1901 9.81654 18.116C10.3059 18.0419 10.7445 17.785 11.0357 17.4018L12.4521 15.5387L13.8686 17.4018C14.1598 17.785 14.5983 18.0419 15.0877 18.116C15.5771 18.1901 16.0772 18.0753 16.4781 17.7969C16.8789 17.5184 17.1476 17.0992 17.2251 16.6313C17.3026 16.1634 17.1826 15.6853 16.8913 15.3021L15.4749 13.439L17.7661 12.7262C18.0048 12.6582 18.2269 12.5452 18.4192 12.3939C18.6116 12.2425 18.7704 12.056 18.8862 11.8451C19.002 11.6343 19.0725 11.4034 19.0936 11.1661C19.1147 10.9288 19.086 10.6899 19.009 10.4634C18.9321 10.2369 18.8085 10.0274 18.6457 9.84718C18.4828 9.66701 18.2838 9.5198 18.0605 9.41422C17.8372 9.30865 17.5941 9.24684 17.3455 9.23244C17.0968 9.21804 16.8477 9.25133 16.6127 9.33036ZM33.9087 10.4762C33.7555 10.0259 33.4215 9.65227 32.9801 9.43739C32.5388 9.22252 32.0263 9.18402 31.5553 9.33036L29.2625 10.0417V7.7381C29.2625 7.26449 29.0657 6.81029 28.7154 6.4754C28.3651 6.14052 27.8901 5.95238 27.3947 5.95238C26.8993 5.95238 26.4242 6.14052 26.0739 6.4754C25.7237 6.81029 25.5269 7.26449 25.5269 7.7381V10.0417L23.2341 9.33036C22.9991 9.25133 22.75 9.21804 22.5013 9.23244C22.2527 9.24684 22.0096 9.30865 21.7863 9.41422C21.563 9.5198 21.3641 9.66701 21.2012 9.84718C21.0383 10.0274 20.9147 10.2369 20.8378 10.4634C20.7609 10.6899 20.7321 10.9288 20.7532 11.1661C20.7743 11.4034 20.8448 11.6343 20.9606 11.8451C21.0765 12.056 21.2352 12.2425 21.4276 12.3939C21.6199 12.5452 21.842 12.6582 22.0807 12.7262L24.3719 13.439L22.9555 15.3021C22.6643 15.6853 22.5442 16.1634 22.6217 16.6313C22.6992 17.0992 22.9679 17.5184 23.3688 17.7969C23.7696 18.0753 24.2697 18.1901 24.7591 18.116C25.2485 18.0419 25.687 17.785 25.9783 17.4018L27.3947 15.5387L28.8111 17.4018C28.9553 17.5915 29.1372 17.7523 29.3464 17.8748C29.5556 17.9974 29.788 18.0793 30.0303 18.116C30.2726 18.1527 30.5201 18.1434 30.7586 18.0886C30.9972 18.0339 31.2221 17.9347 31.4206 17.7969C31.6191 17.659 31.7872 17.4851 31.9154 17.2851C32.0436 17.0851 32.1293 16.863 32.1677 16.6313C32.2061 16.3996 32.1963 16.163 32.1391 15.935C32.0818 15.7069 31.9781 15.4918 31.8339 15.3021L30.4174 13.439L32.7086 12.7262C32.942 12.6538 33.1581 12.5382 33.3447 12.3859C33.5313 12.2337 33.6847 12.0478 33.7962 11.8388C33.9076 11.6299 33.9749 11.402 33.9942 11.1682C34.0135 10.9344 33.9845 10.6993 33.9087 10.4762Z" fill="#AED391"/>
</svg>
